<svg xmlns="http://www.w3.org/2000/svg" viewBox="0 0 100 100"><title>02_Woman_v15</title><g id="icons"><path d="M67.59,59.44a2.78,2.78,0,0,1-3-2.09L59.84,37.42v-1.6h-.62A6.91,6.91,0,0,1,58,40.13c0,8,2.71,8.61,2.71,15.49l.37,35.8c0,2.46-.62,2.83-2.46,2.83H56.39c-2,0-2.33-.87-2.46-2.83L51.47,62.63c-.12-.86-.37-1.1-1.47-1.1s-1.36.24-1.48,1.1L46.06,91.42c-.12,2-.61,2.83-2.58,2.83h-2c-1.85,0-2.46-.37-2.46-2.83l.37-35.8c0-6.88,2.58-7.5,2.58-15.49a7.93,7.93,0,0,1-1.11-4.31h-.61l-.12,1.6L35.48,57.35a2.76,2.76,0,0,1-2.95,2.09C30,59.44,29,57,29.33,55.13L35.11,30c.74-3.08,2.34-4.31,4.8-4.8A56.35,56.35,0,0,1,50,24.38a71.88,71.88,0,0,1,10.21.86C62.67,25.61,64.26,27,65,30l5.66,25.09C71,57,70.17,59.44,67.59,59.44Zm-22-39.36c-.74-1.48-1.23-6.28-1.23-9.23,0-2,.12-2.46.74-2.95a7.9,7.9,0,0,1,9.84,0c.61.49.73,1,.73,2.95,0,3-.61,7.75-1.35,9.23-.37.73-1.84,1.84-4.3,1.84S45.94,20.81,45.57,20.08Z"/></g></svg>