<svg xmlns="http://www.w3.org/2000/svg" viewBox="0 0 100 100"><title>06_Authority_instruction_v15</title><g id="icons"><path d="M21.2,54.89l6-24.24c1.11-4.55,3.2-6,6.77-6l-.87,11.19L27.72,56A3.56,3.56,0,0,1,24.4,58.7,3.19,3.19,0,0,1,21.2,54.89ZM57.86,91.42c.12,1.84-.25,3.19-2.34,3.19H52.81c-2.09,0-2.7-1.47-2.82-2.82L46.42,60.67h-3.2L39.65,91.79c-.12,1.35-.73,2.82-2.83,2.82h-2.7c-1.72,0-2.46-1.1-2.34-2.82L34.36,55H55.27ZM40.51,52.55,44.2,46.4H40.51l-3.69,6.15H34.49l2-27.92H52.94L55,52.55H48.51L52.2,46.4H48.51l-3.69,6.15Zm-.12-33a40.34,40.34,0,0,1-1.23-9.47,3,3,0,0,1,1-2.58,6.86,6.86,0,0,1,5.16-2,6.15,6.15,0,0,1,5,2c.5.49,1,1.11,1,3a46.22,46.22,0,0,1-1.23,9.1c-.25,1-2.09,2.22-4.8,2.22S40.76,20.57,40.39,19.58Zm15,5.05H77.05c1.23,0,1.84.49,1.84,1.35,0,2.21-2.83,5-6.15,5.17L56,31.64Z"/></g></svg>