<svg xmlns="http://www.w3.org/2000/svg" viewBox="0 0 100 100"><title>07_Evacuate_to_shelter_v15</title><g id="icons"><path d="M38.07,58.94l12,35.67H44.59a4.27,4.27,0,0,1-3.69-2.7l-10-29H29v14a3,3,0,0,1-3.08,2.95H7.56V76a2.83,2.83,0,0,1,3.08-2.7H20.85V59.93a17.31,17.31,0,0,1,.37-3.57l4.67-19.68c-3.32,0-5.78,3-7,7.75l-1.72,7c-.49,2-1.72,2.83-3.08,2.83a3.17,3.17,0,0,1-2.95-4.06l1.72-6.76C15.19,34.1,20,29.67,31.55,29.67c7.26,0,11.68,3.32,10.09,11.19ZM33.52,26.6c-.86-1.48-1.11-6.4-1.11-9.35a3.08,3.08,0,0,1,.74-2.46,6.66,6.66,0,0,1,4.8-2,7.48,7.48,0,0,1,4.79,2c.62.49.62,1.35.62,2.7,0,3,0,7.75-.86,9.11-.37.61-1.85,1.59-4.55,1.59C35.49,28.19,33.89,27.21,33.52,26.6ZM54.8,53.9a3.39,3.39,0,0,1-3.08,3.45,9.42,9.42,0,0,1-2.58-.5l-6.89-2,1.35-6.52,8.61,2.33A3.41,3.41,0,0,1,54.8,53.9ZM92.44,13.68V43.57H86.29V17.37l-13-4.8-13,4.8v26.2H54.06V13.68l19.19-7.5Z"/></g></svg>