<svg xmlns="http://www.w3.org/2000/svg" viewBox="0 0 100 100"><title>09_Emergency_exit_v15</title><g id="icons"><path d="M94.53,5.54V94.46H73.74l-1.85-6.15H88.38V11.69H49.75V29.4c-10.94,0-16.6,5-19.55,16.6l-1.73,6.64c-1.1,4.43,1.36,8.25,6.15,8.25H37l-1.47,6H30.44c-4.06,0-6.39,1.36-7.62,5l-3,8.85H46.31l3.44-3.32v17H5.47V5.54ZM66.36,88.31l1.84,6.15H59.35l-1.72-6.15L50,62.61H48.52L46.31,74.17l-3.44,3H25.28l1.23-3.81A3.87,3.87,0,0,1,30.2,70.6h8.11l7-29.76c-2.83.73-4.31,2.83-5.29,7l-1.73,7A3.26,3.26,0,0,1,35,57.69a3.1,3.1,0,0,1-2.83-4.06l1.73-6.77c2.58-10.08,7.25-13.77,17.22-13.77,7.75,0,11.81,3.32,10.08,11.19L57.75,59.9Zm-2.09-67.4c0,2.95,0,7.63-.86,9-.37.61-1.85,1.6-4.55,1.6-2.46,0-4.06-1-4.43-1.6-.86-1.48-1.11-6.27-1.11-9.23a3.11,3.11,0,0,1,.74-2.46,6.57,6.57,0,0,1,4.8-1.84,7.32,7.32,0,0,1,4.79,1.84C64.27,18.7,64.27,19.56,64.27,20.91Zm6.89,39a9.47,9.47,0,0,1-2.59-.49l-6.89-2L63,50.92l8.61,2.34a3.37,3.37,0,0,1-.49,6.64Z"/></g></svg>