<svg xmlns="http://www.w3.org/2000/svg" viewBox="0 0 100 100"><title>13_Not_allowed_v15</title><g id="icons"><path d="M21.34,59.41V39.73h2c4.67,0,7.26,3.07,7.26,6.4v9l3,3.2V18c0-3.32,2-5.41,4.67-5.41s4.55,2.09,4.55,5.41V49.45h2.83V11.69c0-3.2,1.85-5.29,4.68-5.29,2.46,0,4.42,2.09,4.42,5.29V49.45H57.5V16.24C57.5,13,59.59,11,62.3,11c2.46,0,4.43,2.09,4.43,5.29L66.6,49.45h2.83V21.4c0-3.32,2.22-5.29,4.43-5.29a4.94,4.94,0,0,1,4.8,5.29l-.25,41.45C78.29,83.52,67.47,93.6,50.74,93.6,32.9,93.6,21.34,80.44,21.34,59.41Z"/></g></svg>