<svg xmlns="http://www.w3.org/2000/svg" viewBox="0 0 100 100"><title>18_Wash_hands_v15</title><g id="icons"><path d="M74.48,74.11H47.91a2.79,2.79,0,0,0-2.46-1.47,2.71,2.71,0,1,0,0,5.41A2.87,2.87,0,0,0,48,76.45H70.79a4,4,0,0,1,4.3,3.94c0,2.09-1.72,3.69-4.3,3.69L43.23,84v2.34H66.48c2.71,0,4.31,1.84,4.31,3.69A4.08,4.08,0,0,1,66.48,94H32C14.94,94,6.58,84.69,6.58,70.79c0-14.76,11-24.35,28.29-24.35H51.72l-.37,1.84c-.74,3.94-2.58,5.78-5.29,5.78H37.21l-1.36,2.46H48.52v.13a2.71,2.71,0,0,0,5.42,0v-.13H69.31c2.71,0,4.43,1.73,4.43,3.94S72,64.15,69.31,64.15H43.23v2.46H58.49v.49a2.71,2.71,0,1,0,5.41,0v-.49H74.48c2.7,0,4.43,1.48,4.43,3.81C78.91,72.51,77.18,74.11,74.48,74.11ZM46.56,42.38H34.75c-9.47,0-17.22,2.58-23,7.26C12.24,38.2,20.48,29,35,26.51l16.12-2.7-.62,2.82c-1,4.31-2.34,5.42-5.9,6.15l-6.52,1.36L38,36.23l17.22-3.45L53.2,41ZM68,5.72H93.42V16.43h-21c-1.36,0-2,.49-2.22,1.72L69.56,21h-13l2.21-8.61C60,7.69,62.79,5.72,68,5.72ZM81.49,52.1c.49,2-.86,4-3.57,4.42l-1,.13a8.62,8.62,0,0,0-1.6-2.09,9.17,9.17,0,0,0-6-2.1H63.78l.12-1L76.44,49A4.06,4.06,0,0,1,81.49,52.1ZM79.77,46,64.27,49l1.11-7.87,12.91-2.58c2.58-.5,4.55.61,5,3C83.7,43.49,82.35,45.45,79.77,46Zm-13-15.26,4.43-1c2.7-.62,4.67.74,5.16,2.95s-1,3.94-3.69,4.55l-7,1.48Z"/></g></svg>