<svg xmlns="http://www.w3.org/2000/svg" viewBox="0 0 100 100"><title>23_Evacuate_fire_v15</title><g id="icons"><path d="M71.4,77.15l2.34,6.27C72.26,87,63.41,94.61,45.08,94.61,25,94.61,6.83,78.5,6.83,57.47c0-19.19,9.84-33.46,16.85-39.12h1.23c-.49.62-1.48,4.92-1.48,8.61,0,8.12,2.22,13.78,5.78,18.45,0-14.88,10.21-22.87,10.21-35.42a10,10,0,0,0-1.11-4.43h1.36C49,11.22,61.19,26.35,62.92,41.23c-5.42,1.72-8.49,5.91-10,13l-1.1,5.41c-.87,4.06,1,7.75,5.9,7.75,3.32,0,5.17-2.34,5.9-5.66l2.59-12.05c-2.71,0-3.57,1.11-4.68,6.15L60.33,61.4a2.58,2.58,0,0,1-2.58,2.34c-1.48,0-2.58-1.47-2.21-3.32L56.64,55c1.6-7.63,5.29-11.19,16.73-11.19,5.54,0,8,2.58,7,7.87L77.8,65.83,87.88,92.15H84.93c-2.58,0-4.18-.86-5-3L72.14,69.65H70.66l-3.44,8.24A3.1,3.1,0,0,1,64,79.73H50.86c-1.72,0-2.21.74-2.58,2.09l-.37,1.6H63.16C69.07,83.42,70.17,81.33,71.4,77.15Zm3.94-35.67c2.09,0,3.2-.74,3.44-1.11a33.53,33.53,0,0,0,.74-6.89c0-1,0-1.72-.61-2.09A5,5,0,0,0,75.34,30a5.84,5.84,0,0,0-3.45,1.35,2.13,2.13,0,0,0-.61,1.85,28.33,28.33,0,0,0,.86,7.13A4.16,4.16,0,0,0,75.34,41.48Zm7,14.51-1,4.92,7.38,2a12.52,12.52,0,0,0,2,.25,2.55,2.55,0,0,0,2.46-2.46,2.6,2.6,0,0,0-2.09-2.46Z"/></g></svg>