<svg xmlns="http://www.w3.org/2000/svg" viewBox="0 0 100 100"><title>34_Radio_v15</title><g id="icons"><path d="M93.05,36.76V51.4h-6.4V42.91H13.35V51.4H7V36.76A2.47,2.47,0,0,1,9.41,34.3h7.87L75.22,13.39l-.13-.24a1.22,1.22,0,0,1,.62-1.6L81,9.33a1.23,1.23,0,0,1,1.6.62l1.84,4.3a1.27,1.27,0,0,1-.74,1.6l-5.29,2.22a1.23,1.23,0,0,1-1.6-.62l-.12-.37-47,16.73v.49H65.62V31.23h14V34.3h11A2.47,2.47,0,0,1,93.05,36.76Zm0,51.54a2.47,2.47,0,0,1-2.46,2.46H9.41A2.47,2.47,0,0,1,7,88.3V82.15h57a11.4,11.4,0,0,0,19.19-8.36A11.34,11.34,0,0,0,71.65,62.35a11.71,11.71,0,0,0-8,3.19H7V56.93h86.1ZM60.58,76.62H7V71.08H60.58a9.44,9.44,0,0,0-.37,2.71A10.4,10.4,0,0,0,60.58,76.62Z"/></g></svg>