<svg xmlns="http://www.w3.org/2000/svg" viewBox="0 0 100 100"><title>39_Keep_distance_v15</title><g id="icons"><path d="M6.47,51.81l1.23-10c.49-3.82,1.84-5.05,4.79-5.66a63.56,63.56,0,0,1,10.21-.86,52.27,52.27,0,0,1,10.21.86c3,.61,4.18,2.09,4.8,5.66l1.6,10.33a3.76,3.76,0,0,1-3.69,4.18H9.79C7,56.36,6.1,54.52,6.47,51.81Zm8.36,23.86L23.44,64.6h6.15L20.86,75.67l8.73,11.2H23.44ZM17.66,30c-.62-1.35-1.23-6.89-1.23-10.21a3,3,0,0,1,1-2.58,7.53,7.53,0,0,1,5.54-2,6.72,6.72,0,0,1,5.16,2c.5.49.86,1.1.86,2.95A47.57,47.57,0,0,1,27.87,30c-.37,1-2.22,2.21-5.17,2.21C20.12,32.25,18.15,31,17.66,30Zm15,45.63a2.71,2.71,0,1,1,2.71,2.71A2.73,2.73,0,0,1,32.66,75.67Zm14.15,0a2.71,2.71,0,1,1,2.71,2.71A2.73,2.73,0,0,1,46.81,75.67ZM59.36,51.81l1.23-10c.49-3.82,1.84-5.05,4.79-5.66a63.56,63.56,0,0,1,10.21-.86,52.27,52.27,0,0,1,10.21.86c3,.61,4.18,2.09,4.8,5.66l1.6,10.33a3.76,3.76,0,0,1-3.69,4.18H62.68C59.85,56.36,59,54.52,59.36,51.81ZM61,75.67a2.71,2.71,0,1,1,2.71,2.71A2.73,2.73,0,0,1,61,75.67ZM70.55,30c-.62-1.35-1.23-6.89-1.23-10.21a3,3,0,0,1,1-2.58,7.53,7.53,0,0,1,5.54-2,6.7,6.7,0,0,1,5.16,2c.5.49.86,1.1.86,2.95A47.57,47.57,0,0,1,80.76,30c-.37,1-2.22,2.21-5.17,2.21C73,32.25,71,31,70.55,30Zm7.5,45.63L69.44,64.6h6.15l8.73,11.07L75.59,86.74H69.44Z"/></g></svg>