<svg xmlns="http://www.w3.org/2000/svg" viewBox="0 0 100 100"><title>41_Water_v15</title><g id="icons"><path d="M42.87,28H20.48l-1.23-10.7H29.83V13.59H23.92a2.13,2.13,0,0,1-2-2.09V10.15a1.9,1.9,0,0,1,2-2.09H42.25a2,2,0,0,1,2.21,2.09V11.5a2.27,2.27,0,0,1-2.21,2.09H36.72v3.69H47.29c5.17,0,8,2,9.23,6.64l2.21,8.61h-13l-.61-2.82A1.9,1.9,0,0,0,42.87,28ZM80.75,40.53l-3.69,25c-1.48.86-14.64,3.69-24.72,3.69-9.47,0-23-2.58-25.59-3.69l-3.69-25H48.89L45.33,51a17.64,17.64,0,0,0-1,5.29c0,4.06,3.08,8.37,8,8.37s7.87-4.31,7.87-8.37a17.64,17.64,0,0,0-1-5.29L55.78,40.53ZM28.23,75.34H75.71L75,80.87H29.09Zm1.35,11.07H74.11l-.37,2.7a3.36,3.36,0,0,1-3.44,2.83H32.9a2.82,2.82,0,0,1-2.83-2.58Z"/></g></svg>