<svg xmlns="http://www.w3.org/2000/svg" viewBox="0 0 100 100"><title>42_Fire_v15</title><g id="icons"><path d="M87.27,59.29c0,18.94-16,34.19-34.44,35.54v-12A12.89,12.89,0,1,0,37.08,70.23,13.05,13.05,0,0,0,47.29,82.9V94.83c-18.45-1.47-34.56-16.6-34.56-36.77,0-16,7.26-31.37,16.61-39.36h1.84a17.52,17.52,0,0,0-1.72,7.5c0,8.12,1.84,14.27,5.53,19.68C35,33.7,45.33,22.26,45.33,9.72a11.16,11.16,0,0,0-1.11-4.55h1.84c10.21,6.27,21.53,25.46,21.53,41.45a11.14,11.14,0,0,1-.25,2.7,16.85,16.85,0,0,0,4.8-11.19,34.56,34.56,0,0,0-2.21-11.44h1.84C81,33,87.27,45.88,87.27,59.29Z"/></g></svg>