<svg xmlns="http://www.w3.org/2000/svg" viewBox="0 0 100 100"><title>44_Volcano_eruption_v15</title><g id="icons"><path d="M8.15,23.52a2.39,2.39,0,0,1-2.46-2.46A2.46,2.46,0,0,1,8.15,18.6a2.65,2.65,0,0,1,2.46,2.46A2.55,2.55,0,0,1,8.15,23.52Zm50.8,28L92.65,87v1.48H6.55V87l32.1-35.43C36.81,44.43,33,40.74,28.2,40.74c-5.41,0-10,4.8-12.55,13.28a1.71,1.71,0,0,1-2.33,1.36A1.75,1.75,0,0,1,12,53c3.08-10.09,9-16,16.24-16,6.89,0,12.18,5.41,14.51,14.51h1.85v-.24c0-14-12.3-26.2-26.2-27.55a2,2,0,0,1-2-2,1.73,1.73,0,0,1,2-1.85c16,1.6,30.13,15.26,30.13,31.37v.24h1.24v-.24C49.73,28.19,64,9.5,83.18,9.5a1.78,1.78,0,0,1,2,1.84c0,1.11-.74,1.72-2,1.85-17,1.72-29.52,17.1-29.52,38.13v.24h1.6c2.09-13.28,8-20.66,16.48-20.66,7.38,0,13.53,5.78,16.24,14.76a2,2,0,0,1-1.35,2.71c-1.11.24-2-.5-2.34-1.73-2.22-7.5-7-12-12.55-12C65.47,34.59,60.79,40.37,59,51.56ZM11.23,60.05a2.76,2.76,0,0,1,2.46,2.58,2.55,2.55,0,0,1-2.46,2.46,2.6,2.6,0,0,1-2.71-2.46A2.8,2.8,0,0,1,11.23,60.05ZM44.93,27a2.58,2.58,0,0,1,5.16,0,2.58,2.58,0,0,1-5.16,0ZM88.72,53.78a2.76,2.76,0,0,1,2.46,2.58,2.55,2.55,0,0,1-2.46,2.46A2.61,2.61,0,0,1,86,56.36,2.8,2.8,0,0,1,88.72,53.78ZM94,11.47a2.55,2.55,0,0,1-2.46,2.46A2.67,2.67,0,0,1,89,11.47a2.6,2.6,0,0,1,2.59-2.59A2.5,2.5,0,0,1,94,11.47Z"/></g></svg>