<svg xmlns="http://www.w3.org/2000/svg" viewBox="0 0 100 100"><title>48_Earthquake_v15</title><g id="icons"><path d="M5.47,58.58H17A44.19,44.19,0,0,0,5.47,82.93Zm17.84,0h7.62l-3.56-35.8,13.4-5.66V30.65l12.06,4.8-4.06,22A31.82,31.82,0,0,0,18.39,89.08H9.53A40.25,40.25,0,0,1,23.31,58.58ZM50,61.9A27.18,27.18,0,0,1,77.18,89.08h-9a18.27,18.27,0,1,0-36.53,0H22.82A27.18,27.18,0,0,1,50,61.9Zm0,13.28a13.86,13.86,0,0,1,13.78,13.9H54.92a4.92,4.92,0,0,0-9.84,0h-9A14,14,0,0,1,50,75.18Zm8.24-16.6a35.85,35.85,0,0,0-5.29-1L57.5,32.87,45,28V15.28l4.42-1.85L69.56,18.6l3.81,40h3.32a40.25,40.25,0,0,1,13.78,30.5H81.61A31.68,31.68,0,0,0,58.24,58.58Zm24.72,0H94.53V82.93A45.16,45.16,0,0,0,83,58.58Z"/></g></svg>