<svg xmlns="http://www.w3.org/2000/svg" viewBox="0 0 100 100"><title>49_Landslide_v15</title><g id="icons"><path d="M85.72,82.81v10.7H5.53V11.22h5l6.76,9.22A2,2,0,0,1,18.81,20a2.76,2.76,0,0,1,2.71,2.83,2.64,2.64,0,0,1-2.09,2.59l1.84,6.51h.62a2.65,2.65,0,0,1,2.7,2.71,2.77,2.77,0,0,1-1.84,2.58L25,44.68a2.41,2.41,0,0,1,2.09-1.11,2.76,2.76,0,0,1,2.71,2.83,2.73,2.73,0,0,1-2.71,2.7h-.24c.73,1.11,2,2.71,3.44,4.56a2.72,2.72,0,0,1,5.29.86A2.62,2.62,0,0,1,33,57.22c.61.86,1.23,1.6,1.84,2.34a5.6,5.6,0,0,1,4.31-2.09,5.46,5.46,0,0,1,5.41,5.41,5.54,5.54,0,0,1-2.83,4.8,16.41,16.41,0,0,0,3.69,3.07,4.28,4.28,0,0,1-.12-1.23,5.41,5.41,0,1,1,9.47,3.69h4.06a2.24,2.24,0,0,1-.13-1,5.38,5.38,0,0,1,5.41-5.41,5.3,5.3,0,0,1,5.42,5.41,5.6,5.6,0,0,1-.62,2.46c1.48.49,3.08,1,4.68,1.6a8.87,8.87,0,0,1-.86-4.06,10.82,10.82,0,1,1,13,10.58ZM28.16,28.93a2.71,2.71,0,1,1,2.7,2.71A2.73,2.73,0,0,1,28.16,28.93Zm5.78,7.26a2.71,2.71,0,1,1-2.71,2.7A2.73,2.73,0,0,1,33.94,36.19Zm5.41,10a2.71,2.71,0,1,1,2.71,2.71A2.73,2.73,0,0,1,39.35,46.15Zm2.09-13.28a2.71,2.71,0,1,1,2.71,2.7A2.73,2.73,0,0,1,41.44,32.87Zm3.94,21.89a5.41,5.41,0,1,1,5.41,5.41A5.46,5.46,0,0,1,45.38,54.76Zm5.41-15a2.71,2.71,0,1,1,2.71,2.7A2.73,2.73,0,0,1,50.79,39.76Zm6.89,7.74a2.71,2.71,0,1,1,2.7,2.71A2.75,2.75,0,0,1,57.68,47.5Zm4.18,10.09a5.46,5.46,0,0,1,5.41-5.41,5.41,5.41,0,1,1,0,10.82A5.46,5.46,0,0,1,61.86,57.59Zm15-6a5.41,5.41,0,1,1,10.82,0,5.41,5.41,0,1,1-10.82,0Z"/></g></svg>