<svg xmlns="http://www.w3.org/2000/svg" viewBox="0 0 100 100"><title>51_Avalanche_v15</title><g id="icons"><path d="M94.28,85.31a8.77,8.77,0,0,1-8.86,8.61H5.72V58.61l14.14-35.3,8.25-2.95h1.35l7.26,2.95L63.28,76.08c1.85,3.57,2.71,4.3,6,4.3h2.83L71,84.32H68.94c-4.79,0-6.76-.86-9.59-6.27L33.52,27.74l-4.8-2.09-5.53,2.09L13.1,52l8.36-3.56,8.61,5.65L39.54,52l16,31.37C57.87,87.89,60.82,90,67.71,90H85.42a4.68,4.68,0,1,0-4.67-4.67H76.81a8.67,8.67,0,0,1,8.61-8.74h.13a4.78,4.78,0,0,0-4.43-3.32,4.65,4.65,0,0,0-4.67,4.55H72.39a8.74,8.74,0,0,1,8.73-8.61c4.67,0,8.36,3.2,8.49,8.49A8.77,8.77,0,0,1,94.28,85.31ZM65.5,69.19,54.92,48h1.72l5.78,5.65,6.89,13.78a1.62,1.62,0,0,0,1.85,1.11h1.6l-1.23,3.93h-.62C67.84,72.51,67,72.14,65.5,69.19ZM59.35,31.43l12.3-6.76L59.35,17.9,61.56,14l12.06,7.38L73.25,7.2h4.67l-.37,14L89.48,14l2.34,3.94-12.3,6.77,12.3,6.76-2.34,3.94L77.55,28.11l.37,14H73.25L73.62,28,61.56,35.37Z"/></g></svg>