<svg xmlns="http://www.w3.org/2000/svg" viewBox="0 0 100 100"><title>52_Hurricane_v15</title><g id="icons"><path d="M67.1,76.94c-4.55,4.67-13.9,7.38-22.51,7.38-12.43,0-28.54-6.52-39-19.44l3.32-.61c2.95,2.46,9.1,5.29,13.77,5.29a22.89,22.89,0,0,0,5.79-.74A38.21,38.21,0,0,1,17.77,42.74,52.35,52.35,0,0,1,33.52,5.6l.61,3.32c-2.21,3.44-4.06,11.19-4.06,17.22,0,17.34,8.74,32.72,19.68,32.72,3.57,0,6.77-2.09,7.51-3.69C63.78,62.3,67.34,69.56,67.1,76.94ZM82.6,57.13A52.67,52.67,0,0,1,66.48,94.4l-.61-3.07c2.09-3.57,4.06-11.56,4.06-17.84,0-17.22-8.74-32.22-19.68-32.22-3.69,0-6.65,2.21-7.38,3.81C36.1,38,32.9,30.44,32.78,23.43c5.29-4.67,14.39-7.26,22.63-7.26,13.16,0,29.28,7,39,19.07l-3.32.62c-3-2.34-8.61-4.93-13.16-4.93a24.23,24.23,0,0,0-6,.74A37,37,0,0,1,82.6,57.13Z"/></g></svg>