<svg xmlns="http://www.w3.org/2000/svg" viewBox="0 0 100 100"><title>67_Emergency_vehicle_v15</title><g id="icons"><path d="M5.47,44.31H59.59V30.53a2.27,2.27,0,0,1,2.34-2.34H87.64c2,0,3.2.86,3.44,2.22l3.45,18.82h-5l-2.7-16.12H64.51V49.23h-59Zm8-11.2h-8V28.19h49.2v4.92h-8v7.51H41.76V33.11H32.53v7.51H27.61V33.11H18.39v7.51H13.47Zm-8,21H94.53v2.7l-2.46.62v7l2.46.74v2.83h-11a14.12,14.12,0,0,0-9.35-3.45A13.79,13.79,0,0,0,65,68.05H33.52a13.48,13.48,0,0,0-9.1-3.45,14.73,14.73,0,0,0-9.23,3.45H5.47ZM82.84,73H94.53v6H84.81a10.58,10.58,0,1,1-21.16,0H35a10.58,10.58,0,1,1-21.15,0H5.47V73H15.81a10.54,10.54,0,0,1,17.34,0H65.62a10.42,10.42,0,0,1,17.22,0ZM79.77,23.89H69.93V21.31l.49-2.59c.37-2.09,1.35-3.07,3.32-3.07H76c2,0,2.83.74,3.32,3.07l.5,2.59Z"/></g></svg>