<?xml version="1.0" encoding="utf-8"?>
<!-- Generator: Adobe Illustrator 17.0.0, SVG Export Plug-In . SVG Version: 6.00 Build 0)  -->
<!DOCTYPE svg PUBLIC "-//W3C//DTD SVG 1.1//EN" "http://www.w3.org/Graphics/SVG/1.1/DTD/svg11.dtd">
<svg version="1.1" xmlns="http://www.w3.org/2000/svg" xmlns:xlink="http://www.w3.org/1999/xlink" x="0px" y="0px" width="100px"
	 height="100px" viewBox="0 0 100 100" enable-background="new 0 0 100 100" xml:space="preserve">
<g id="Layer_1">
	<path d="M94.649,86.101c0,1.722-1.107,3.075-3.321,3.075H8.917c-2.214,0-3.566-1.23-3.566-2.952c0-0.615,0.245-1.23,0.614-1.968
		l41.083-71.709c0.614-1.107,1.722-1.722,2.829-1.722c1.106,0,2.214,0.615,2.829,1.722L94.28,84.256
		C94.649,84.871,94.649,85.609,94.649,86.101z M31.55,53.137c4.551-3.075,10.332-5.166,17.22-5.166
		c11.809,0,16.975,7.749,18.327,11.562l-0.738,0.369c-1.106-1.353-3.689-2.706-7.257-2.706c-5.781,0-7.995,3.813-7.995,7.626
		c0,6.273,6.273,12.177,20.91,12.177c4.306,0,7.38-0.861,9.472-1.722L50,20.91L31.55,53.137z"/>
</g>
<g id="_x3C_Layer_x3E_">
</g>
</svg>
