<?xml version="1.0" encoding="utf-8"?>
<!-- Generator: Adobe Illustrator 17.0.0, SVG Export Plug-In . SVG Version: 6.00 Build 0)  -->
<!DOCTYPE svg PUBLIC "-//W3C//DTD SVG 1.1//EN" "http://www.w3.org/Graphics/SVG/1.1/DTD/svg11.dtd">
<svg version="1.1" xmlns="http://www.w3.org/2000/svg" xmlns:xlink="http://www.w3.org/1999/xlink" x="0px" y="0px" width="100px"
	 height="100px" viewBox="0 0 100 100" enable-background="new 0 0 100 100" xml:space="preserve">
<g id="Layer_1">
	<path d="M50.052,95.109c-24.974,0-45.161-20.188-45.161-45.058c0-24.974,20.188-45.161,45.161-45.161
		c24.87,0,45.058,20.188,45.058,45.161C95.11,74.922,74.922,95.109,50.052,95.109z M51.301,38.294v-9.47H39.75
		c-4.475,0-8.116,3.329-8.116,6.972v6.764l8.116-0.104l1.457-4.162H51.301z M31.634,56.295v6.764c0,3.643,2.913,6.972,8.116,6.972
		h11.551v-9.469H41.207l-1.457-4.163L31.634,56.295z M65.765,35.796c0-4.059-0.832-6.868-9.573-6.868v15.609h-8.845v9.573h8.845
		v15.713c7.804,0,9.573-2.705,9.573-6.764v-8.116c0-3.122-1.873-4.995-4.162-5.827c2.289-0.729,4.162-2.706,4.162-5.828V35.796z"/>
</g>
<g id="_x3C_Layer_x3E_">
</g>
</svg>
