<?xml version="1.0" encoding="utf-8"?>
<!-- Generator: Adobe Illustrator 17.0.0, SVG Export Plug-In . SVG Version: 6.00 Build 0)  -->
<!DOCTYPE svg PUBLIC "-//W3C//DTD SVG 1.1//EN" "http://www.w3.org/Graphics/SVG/1.1/DTD/svg11.dtd">
<svg version="1.1" xmlns="http://www.w3.org/2000/svg" xmlns:xlink="http://www.w3.org/1999/xlink" x="0px" y="0px" width="100px"
	 height="100px" viewBox="0 0 100 100" enable-background="new 0 0 100 100" xml:space="preserve">
<g id="Layer_1">
	<path d="M95.109,50.052c0,24.87-20.188,45.058-45.057,45.058c-24.974,0-45.162-20.188-45.162-45.058
		c0-24.974,20.188-45.161,45.162-45.161C74.922,4.891,95.109,25.078,95.109,50.052z M42.248,53.174v-14.88h24.246v-9.47H32.778
		v15.921L42.248,53.174z M47.243,53.174h9.781v7.388H42.248l-3.746-3.434l-5.724-0.104v6.035c0,3.747,2.81,6.972,7.284,6.972h19.147
		c5.411,0,7.284-3.225,7.284-6.972V49.635c0-3.225-1.873-5.931-7.284-5.931H47.243V53.174z"/>
</g>
<g id="_x3C_Layer_x3E_">
</g>
</svg>
