<svg xmlns="http://www.w3.org/2000/svg" viewBox="0 0 100 100"><title>NNN</title><path d="M37.26,90.84l4.06-54.61c0-.49-.25-.62-.49-.62s-.49.25-.61.62L35,57a3.14,3.14,0,0,1-3,2.46c-2.58,0-3.44-2.71-3.08-4.18l6-25c.86-3.2,1.72-4.55,4.43-5.17a34.78,34.78,0,0,1,10.33-1,35.93,35.93,0,0,1,10.46,1c2.71.62,3.57,2,4.31,5.17L71,55.53c.62,2.21-1.6,3.94-3.32,3.94A3.41,3.41,0,0,1,64.56,57L59.15,36.22c-.12-.49-.25-.62-.49-.62s-.25.12-.25.62l4.3,54.37c.12,2.21-.49,3.44-2.46,3.44h-3a2.6,2.6,0,0,1-2.58-2.83L50.91,61.32c0-.37-.49-.74-1-.74s-1.11.25-1.11.62L45,91.21c-.25,1.72-.62,2.83-2.58,2.83h-3C37.5,94,37,92.8,37.26,90.84Zm8-71.09a41.15,41.15,0,0,1-1.11-9.35c0-1.35.25-1.84.86-2.34A7.63,7.63,0,0,1,50,6a6.11,6.11,0,0,1,4.67,2.09c.49.49.86,1,.86,2.71,0,3-.37,7.75-1.11,9-.25.86-2,2-4.67,2A5.46,5.46,0,0,1,45.25,19.74Z"/></svg>