<svg xmlns="http://www.w3.org/2000/svg" viewBox="0 0 100 100"><title>NNN</title><path d="M20.6,48.46a7.12,7.12,0,0,1-3.2-5.78c0-2,1.11-2.83,3.44-2.83H31.06C27,40.47,22.32,44.16,20.6,48.46Zm30.5,23.37c7.26,0,12.55,1.35,14.88,3.44l-2.21,2.21c-2.21,2.21-2.58,4.92-.74,6.77a4.59,4.59,0,0,0,3.32,1.48,7.41,7.41,0,0,0,3.57-1.11C78.29,80.07,82.6,70.85,82.6,60.52c0-9.72-6.64-19.8-18.7-19.8h-25c-12.05,0-18.82,10.09-18.82,19.8,0,10.33,4.43,19.56,12.79,24.11a7.41,7.41,0,0,0,3.57,1.11,4.54,4.54,0,0,0,3.2-1.48c1.85-1.85,1.6-4.55-.62-6.77l-2.21-2.21C40.41,73.19,44.59,71.83,51.11,71.83Zm-16-38.38c-1-1.84-1.48-8.61-1.48-12.79,0-2.09.25-3.08,1-3.81a9.08,9.08,0,0,1,6.64-2.58A9.76,9.76,0,0,1,48,16.85c.86.86,1.11,1.48,1.11,3.44,0,4.18-.62,11.32-1.6,13.16-.49.86-2.58,2.34-6.27,2.34S35.61,34.32,35.12,33.46ZM45.69,65.68c-1.23-1.72-1.48-6.77-1.48-10.95,0-2.09,0-3.2,1.11-3.94a9.93,9.93,0,0,1,6-1.72,12.25,12.25,0,0,1,6.52,1.72c.74.49,1,1.6,1,3.57,0,4.18-.49,9.72-1.48,11.32-.62,1-2.58,2.09-6,2.09S46.19,66.42,45.69,65.68ZM55.9,36c-1.11-1.84-1.48-8.61-1.48-12.79,0-2.21.37-3,1-3.81,1.6-2.21,4.18-2.46,6.64-2.58a9.23,9.23,0,0,1,6.77,2.58c.86.86,1.11,1.48,1.11,3.44,0,4.18-.62,11.44-1.6,13.16-.49.86-2.58,2.09-6.27,2.21S56.4,36.9,55.9,36Z"/></svg>