<svg xmlns="http://www.w3.org/2000/svg" viewBox="0 0 100 100"><title>NNN</title><path d="M12.61,58.06c0-17.71,8.86-32.84,16.85-39.73h1.6c-.62.86-4.18,10.58-4.18,20.66,0,9.47,2.46,18.45,6,22.75l12.3-.86L32.9,72.57V74l18.33-1.23L69.68,74V72.57L57.26,60.89l12.42.86V60.27L57.13,48.46l12.55.86a27.68,27.68,0,0,0,2.71-11.69,33.4,33.4,0,0,0-2.46-11.32h1.23C80,32,87.39,43.54,87.39,59.41c0,17-14.27,31.73-31.12,34.69V79a29.33,29.33,0,0,0-10.09-1.6v17.1C28.23,92.5,12.61,76.51,12.61,58.06ZM34.75,49.2l10.58-.74L33.89,59.29A67,67,0,0,1,34.75,49.2ZM51.23,30.63l-15.87,15c3.08-14.88,10-25.83,10-35.55a13.26,13.26,0,0,0-1-4.55h1.48C56,11.69,69.68,32.23,69.68,46.86V48Z"/></svg>