<svg xmlns="http://www.w3.org/2000/svg" viewBox="0 0 100 100"><title>NNN</title><path d="M6.83,87.5V37.44A2.47,2.47,0,0,1,9.29,35h4.06a10.39,10.39,0,0,1,9.22-5.66,10.86,10.86,0,0,1,5.66,1.6L68.7,14.19l-.12-.25a1.22,1.22,0,0,1,.62-1.6l5.29-2.21a1.22,1.22,0,0,1,1.6.62l1.72,4.06a1.28,1.28,0,0,1-.74,1.6l-5.29,2.21a1.22,1.22,0,0,1-1.6-.62L70,17.64l-39,16.24L31.8,35H68.08V32.89h14V35h8.61a2.47,2.47,0,0,1,2.46,2.46V87.5A2.47,2.47,0,0,1,90.71,90H9.29A2.47,2.47,0,0,1,6.83,87.5ZM86.65,53.18V42.11H13.22V53.18Zm-68,9.23a2.65,2.65,0,0,0-2.71-2.71,2.71,2.71,0,1,0,0,5.41A2.65,2.65,0,0,0,18.64,62.41Zm0,9.72a2.65,2.65,0,0,0-2.71-2.71,2.71,2.71,0,1,0,0,5.41A2.65,2.65,0,0,0,18.64,72.13Zm0,9.72a2.65,2.65,0,0,0-2.71-2.71,2.71,2.71,0,1,0,0,5.41A2.65,2.65,0,0,0,18.64,81.84Zm10.7-19.43a2.65,2.65,0,0,0-2.71-2.71,2.71,2.71,0,1,0,0,5.41A2.65,2.65,0,0,0,29.34,62.41Zm0,9.72a2.65,2.65,0,0,0-2.71-2.71,2.71,2.71,0,1,0,0,5.41A2.65,2.65,0,0,0,29.34,72.13Zm0,9.72a2.65,2.65,0,0,0-2.71-2.71,2.71,2.71,0,1,0,0,5.41A2.65,2.65,0,0,0,29.34,81.84ZM40,62.41a2.65,2.65,0,0,0-2.71-2.71,2.71,2.71,0,1,0,0,5.41A2.65,2.65,0,0,0,40,62.41Zm0,9.72a2.65,2.65,0,0,0-2.71-2.71,2.71,2.71,0,0,0,0,5.41A2.65,2.65,0,0,0,40,72.13Zm0,9.72a2.65,2.65,0,0,0-2.71-2.71,2.71,2.71,0,1,0,0,5.41A2.65,2.65,0,0,0,40,81.84Zm10.7-19.43A2.65,2.65,0,0,0,48,59.7a2.71,2.71,0,1,0,0,5.41A2.65,2.65,0,0,0,50.74,62.41Zm0,9.72A2.65,2.65,0,0,0,48,69.42a2.71,2.71,0,0,0,0,5.41A2.65,2.65,0,0,0,50.74,72.13Zm0,9.72A2.65,2.65,0,0,0,48,79.14a2.71,2.71,0,1,0,0,5.41A2.65,2.65,0,0,0,50.74,81.84Zm32.35-9.47a11.44,11.44,0,0,0-22.88,0,11.44,11.44,0,1,0,22.88,0Z"/></svg>