<svg xmlns="http://www.w3.org/2000/svg" viewBox="0 0 100 100"><title>NNN</title><path d="M54.18,57.81h5.54V86.1c0,2.83-1.48,3.94-3.94,3.94H15.68a3.72,3.72,0,0,1-3.32-3.94V15.74c0-4.06,2.09-5.78,5.54-5.78H53.81c4.43,0,5.9,1.72,5.9,5.78v4.92H19.25a1.71,1.71,0,0,0-1.48,1.6V74.91a1.48,1.48,0,0,0,1.48,1.35H52.58a1.6,1.6,0,0,0,1.6-1.35ZM28.6,15.38A1.36,1.36,0,0,0,30,16.73H42a1.4,1.4,0,0,0,1.48-1.35A1.42,1.42,0,0,0,42,13.9H30A1.4,1.4,0,0,0,28.6,15.38Zm59,12.92V50.18a3.28,3.28,0,0,1-3.32,3.2H52.58l-13.78,13,2.83-13H32.78a3.28,3.28,0,0,1-3.32-3.2V28.29a3.28,3.28,0,0,1,3.32-3.2H84.32A3.28,3.28,0,0,1,87.64,28.29Zm-48,54.86A3.63,3.63,0,1,0,36,86.84,3.6,3.6,0,0,0,39.67,83.15Z"/></svg>