<svg xmlns="http://www.w3.org/2000/svg" viewBox="0 0 100 100"><title>NNN</title><path d="M68.93,58.18a3.35,3.35,0,0,1-3.08-2.09L59,37a.68.68,0,0,0-.61-.37c-.25,0-.37.25-.37.49V47.6l8.24,21.28a1.7,1.7,0,0,1-1.6,2.58H59.71L60.57,91c.12,2.21-.49,3.44-2.46,3.44H55.77c-2.09,0-2.46-1.84-2.58-2.83L51.34,71.46H48.64L46.92,91.64c-.12,1.72-.61,2.83-2.58,2.83H42c-2,0-2.34-1.11-2.21-3.2l.74-19.8h-5a1.84,1.84,0,0,1-1.84-2.58L42.12,47.6V37.15a.45.45,0,0,0-.49-.49c-.25,0-.37.12-.49.37L34.12,56A3.17,3.17,0,0,1,31,58.06,3.38,3.38,0,0,1,28,53.75L37.2,29C38.31,26,39.54,24.6,42,24.11a53,53,0,0,1,8-.62,52,52,0,0,1,8,.62c2.46.49,3.69,1.84,4.8,4.92L72,53.87A3.29,3.29,0,0,1,68.93,58.18ZM50.11,21.28c2.71,0,4.18-.86,4.55-1.6.74-1.48.86-6.4.86-9.35,0-1.48,0-2.21-.62-2.83a7.19,7.19,0,0,0-4.92-2,6.7,6.7,0,0,0-4.8,2,3,3,0,0,0-.86,2.58c0,3,.49,8.12,1.23,9.59C45.81,20.42,47.41,21.28,50.11,21.28Z"/></svg>