<svg xmlns="http://www.w3.org/2000/svg" viewBox="0 0 100 100"><title>NNN</title><path d="M41.64,25.58H19.25L18,14.88H28.23V11.32h-5.9a2.13,2.13,0,0,1-2-2.09V7.63a1.91,1.91,0,0,1,2-2.09H40.65a2,2,0,0,1,2.21,2.09v1.6a2.27,2.27,0,0,1-2.21,2.09H35.12v3.57H46.06c5,0,8,2,9.23,6.64l2.21,8h-13l-.62-2.21C43.48,26.08,43,25.58,41.64,25.58ZM74.48,94.46H27.61l-7.38-60H82Zm-43-19.68,1.72,14.15H69.43l1.72-14a66.35,66.35,0,0,1-19.43,3A76.7,76.7,0,0,1,31.43,74.79ZM45,59.29a6.7,6.7,0,1,0,13.41,0,6.56,6.56,0,0,0-.74-3l-5.9-12.92-6,12.92A9.41,9.41,0,0,0,45,59.29Z"/></svg>