<svg xmlns="http://www.w3.org/2000/svg" viewBox="0 0 100 100"><title>NNN</title><path d="M67.47,89.85l-9-23.49,2.58-14.15c1-5.54-1.72-7.87-5.78-7.87H45.69c-3.08,0-5.29,1.35-5.78,3.57L37.58,58.36a2.44,2.44,0,1,0,4.8.86l2.46-9.84h3.44L45.2,64.76A16.66,16.66,0,0,0,45,67.22V78.29H36.59c-1.48,0-2.58.86-2.58,1.84v3H48.89a2.24,2.24,0,0,0,2.34-2.21V70.54a.85.85,0,0,1,1.6-.37l8.86,22.26a35.11,35.11,0,0,1-11.81,2.09A37.06,37.06,0,0,1,12.61,57.38c0-18,10.09-33.46,17.1-39.11h1c-.49.61-1.48,4.92-1.48,8.61,0,8.12,2.21,13.78,5.78,18.45C35,30.44,45.2,22.45,45.2,9.9A10,10,0,0,0,44.1,5.47H45.2C55.41,11.62,67.71,26.26,67.71,40.9A29.77,29.77,0,0,1,63,56.52l-1,4.8,8.86,2.34a12.24,12.24,0,0,0,2,.25,2.44,2.44,0,0,0,2.46-2.34,2.5,2.5,0,0,0-2.09-2.46l-9.47-2.34a22.38,22.38,0,0,0,8.36-18A34.42,34.42,0,0,0,69.8,26.26H71c9,5.66,16.36,17.22,16.36,33C87.39,71.65,78.91,83.58,67.47,89.85ZM56,42c2.09,0,3.2-.74,3.44-1.11A33.64,33.64,0,0,0,60.21,34c0-1,0-1.72-.62-2.09A5,5,0,0,0,56,30.57a5.82,5.82,0,0,0-3.44,1.35A2.12,2.12,0,0,0,52,33.76a28.28,28.28,0,0,0,.86,7.13A4.16,4.16,0,0,0,56,42Z"/></svg>