<svg xmlns="http://www.w3.org/2000/svg" viewBox="0 0 100 100"><title>NNN</title><path d="M5.35,86.22a4.52,4.52,0,0,1,.61-2L47,12.55a3.18,3.18,0,0,1,5.66,0L94.28,84.26a3.54,3.54,0,0,1,.37,1.85,3,3,0,0,1-3.32,3.07H8.92C6.7,89.18,5.35,87.95,5.35,86.22ZM65,65.19c0-5-2.46-11.07-6.64-13.78h-.61a11.51,11.51,0,0,1,1,4.8,7,7,0,0,1-1.84,4.55v-1c0-6.27-5-14.76-9.47-17.47h-.49a5.48,5.48,0,0,1,.37,2c0,5.29-4.31,10.09-4.31,15.25a13.65,13.65,0,0,1-2.46-8.24,5.78,5.78,0,0,1,.74-3.2h-.62c-4.06,3.32-7.13,9.84-7.13,16.73A15.83,15.83,0,0,0,49.26,80.44C57.63,80.44,65,73.68,65,65.19ZM43.73,69.86a5.54,5.54,0,0,1,11.07,0,5.54,5.54,0,0,1-11.07,0Z"/></svg>