<svg xmlns="http://www.w3.org/2000/svg" viewBox="0 0 100 100"><title>NNN</title><path d="M49.38,10c15.25,0,29.4,3.32,37.52,8.73V48.4C86.9,72,64.39,81.86,52.34,89.11a6.46,6.46,0,0,1-3,.86,6.45,6.45,0,0,1-3-.86C34.87,82.23,13.1,71.16,13.1,48.4V18.76C21,13.35,35.36,10,49.38,10Zm-10,46.25a5.31,5.31,0,0,1,2,2.09l1.84,4.06a1.55,1.55,0,0,0,2,.74l3.94-1.72a5.05,5.05,0,0,1,2.71,0L56,63.28a1.61,1.61,0,0,0,2-.86l1.6-4.18a3.73,3.73,0,0,1,2.09-1.84l4.06-1.85a1.33,1.33,0,0,0,.74-2l-1.72-3.94a3.75,3.75,0,0,1,0-2.83l1.84-4.18a1.56,1.56,0,0,0-1-2l-4.18-1.48c-.86-.25-1.35-1.35-1.72-2.09l-1.84-4.18a1.48,1.48,0,0,0-2-.74L52,32.9a3.76,3.76,0,0,1-2.83.12L45,31.18a1.31,1.31,0,0,0-1.84.74l-1.6,4.18a3.81,3.81,0,0,1-2.09,1.85l-4.06,1.84a1.68,1.68,0,0,0-.86,2.09l1.6,4.06a3.19,3.19,0,0,1,.25,2.58L34.5,52.71a1.47,1.47,0,0,0,1,2Z"/></svg>