<svg xmlns="http://www.w3.org/2000/svg" viewBox="0 0 100 100"><title>NNN</title><path d="M32.53,54.55,41,86.78H36.59a2.83,2.83,0,0,1-3-2.21L26.26,58.24a.51.51,0,0,0-1,0L22.32,71a4.82,4.82,0,0,1-1.23,2L8.43,84.69l-2-2a3.88,3.88,0,0,1-.86-2.34,3.08,3.08,0,0,1,1-2.21l9.47-9.35,2.58-14,3.2-20.42c.62-3.32,3.08-6.4,7.26-6.4s6.76,2.46,6.76,6.52a10.58,10.58,0,0,1-.12,2l-1.48,8.61h7.38a3,3,0,1,1,0,6H33.15Zm-6-30.26c-.62-1.11-1-5.41-1-7.75a2.61,2.61,0,0,1,.62-2.09A6.33,6.33,0,0,1,30.44,13a6.08,6.08,0,0,1,3.69,1.48c.49.37.49,1.11.49,2.21,0,2.46-.12,6.52-.74,7.63-.25.62-1.48,1.48-3.69,1.48S26.75,24.91,26.51,24.29ZM80.87,66.73A20.23,20.23,0,1,1,48.65,50.37L46.8,43.85a7.25,7.25,0,0,1-.25-1.72,5,5,0,0,1,1.6-3.69l7.5-7.13a4.15,4.15,0,0,1,3.44-1.72,17.26,17.26,0,0,1,2.21.25l5.17.74a4.46,4.46,0,0,1,3.94,4.06l1.84,12.67A21.45,21.45,0,0,0,60.82,44a22.24,22.24,0,0,0-3.07.25l-.49-4.67c-.12-.74-.62-.86-1-.37l-3.2,3.32a1.05,1.05,0,0,0-.37,1.11l1,4.06a19.88,19.88,0,0,1,7.13-1.35A20.21,20.21,0,0,1,80.87,66.73ZM75.34,67A14.54,14.54,0,0,0,60.82,52.46,14.71,14.71,0,0,0,55,53.69l.12.86a2.33,2.33,0,0,1-2.58,2.58,2.43,2.43,0,0,1-1.72-.74A14.52,14.52,0,1,0,75.34,67ZM61.07,26.14c-.61-1.11-.86-5.41-.86-7.87,0-1.11,0-1.6.49-2.09a6,6,0,0,1,4.18-1.48,5.8,5.8,0,0,1,3.94,1.48c.37.37.37,1.11.37,2.34,0,2.46-.25,6.52-.86,7.63-.25.49-1.35,1.35-3.57,1.35S61.32,26.63,61.07,26.14ZM94.4,77.92c0,.49-.25,1.11-.86,1.11l-4.18,1c-1.11.25-1.85,0-2.21-1.6L83.58,63.78c-.74-3.32-1.48-6.27-3.44-9.1h5.54c2.58,0,4.92,1.6,5,3.81Z"/></svg>