<svg xmlns="http://www.w3.org/2000/svg" viewBox="0 0 100 100"><title>NNN</title><path d="M22.57,63.53H43.48V74.85H60.7V86H77.43v8.49H22.57ZM31.43,60c-.86-1.72-.37-3.81,1.85-5.41L42.13,48l3.2,4.43L32.66,61.93Zm17,10.46-.61-16.73-8.24-14a10.26,10.26,0,0,1-1.23-5.54V24.79c0-3.44,1.85-6.15,5.9-6.15,2.71,0,4.43.86,5.41,3.44l3.69,9.23,6.15,9.1c1,1.48.12,3.94-1.72,3.94A2.79,2.79,0,0,1,55.41,43l-3-4.18-2.58-4.43h-.12L50,41.51l3.44,5.78a5.14,5.14,0,0,1,.74,3.32V73.74H51.6C49.75,73.74,48.4,72.76,48.4,70.42ZM42,15.31c-.61-1-.86-4.67-.86-6.77,0-1.23.12-1.6.61-2A5.75,5.75,0,0,1,45.2,5.47a6.12,6.12,0,0,1,3.57,1.11c.37.37.49,1,.49,2.09,0,2.21-.25,5.66-.74,6.64-.25.49-1.35,1.23-3.32,1.23S42.25,15.81,42,15.31Z"/></svg>