<svg xmlns="http://www.w3.org/2000/svg" viewBox="0 0 100 100"><title>NNN</title><path d="M5.47,22.94,50,6.83,94.53,22.94V93.17H80V31.8H20V93.17H5.47Zm33.33,69L37,69.56l-2.71-1a2,2,0,0,1-1.6-2.46l1.48-14.39c.25-2.34,2.21-3.94,6.4-3.94H61.07A2.07,2.07,0,0,1,63.28,50a2,2,0,0,1-1.48,2v.12a2.14,2.14,0,0,1,1.72,1.48l2.71,11.32a37.17,37.17,0,0,1,1.23,8.49c0,3.44-1.23,4.55-3.94,5.29l-3.57,1-1.11,12.3a1.15,1.15,0,0,1-1.23,1.23H53.44a.94.94,0,0,1-.62-.25l.74-11.19H55c1,0,1.6-.49,1.48-1.48L55.66,69.8a2.3,2.3,0,0,0-2-2.34,22.16,22.16,0,0,0-4.92-.37,21.51,21.51,0,0,0-4.8.37,2.29,2.29,0,0,0-1.84,2.34l-.86,10.46q-.18,1.48,1.48,1.48h1.48L45,93.17H40C39.3,93.17,38.93,92.8,38.81,91.94Zm1.35-46.62c-.49-.86-.61-4.06-.61-5.9,0-.86,0-1.35.37-1.72a4.65,4.65,0,0,1,3-1.11,5.05,5.05,0,0,1,3.2,1.11c.37.37.37.74.37,1.6,0,1.85-.12,5.17-.62,6-.25.49-1.23,1-3,1S40.41,45.82,40.16,45.33ZM51.23,64.76a24.78,24.78,0,0,0,.49-4.67c0-.86-.12-1.23-.37-1.35a6,6,0,0,0-2.46-.62,5.2,5.2,0,0,0-2.46.62q-.37.18-.37,1.48a24.3,24.3,0,0,0,.37,4.55,3.63,3.63,0,0,0,2.34.74A4.08,4.08,0,0,0,51.23,64.76ZM52.46,45.2a24.77,24.77,0,0,1-.74-5.9,1.94,1.94,0,0,1,.62-1.6,4.72,4.72,0,0,1,3.07-1.11,5.24,5.24,0,0,1,3.08,1.11c.37.37.37.74.37,1.84a24.1,24.1,0,0,1-.49,5.66,3.69,3.69,0,0,1-3,1.11A3.69,3.69,0,0,1,52.46,45.2Z"/></svg>