<?xml version="1.0" encoding="utf-8"?>
<!-- Generator: Adobe Illustrator 17.0.0, SVG Export Plug-In . SVG Version: 6.00 Build 0)  -->
<!DOCTYPE svg PUBLIC "-//W3C//DTD SVG 1.1//EN" "http://www.w3.org/Graphics/SVG/1.1/DTD/svg11.dtd">
<svg version="1.1" xmlns="http://www.w3.org/2000/svg" xmlns:xlink="http://www.w3.org/1999/xlink" x="0px" y="0px" width="100px"
	 height="100px" viewBox="0 0 100 100" enable-background="new 0 0 100 100" xml:space="preserve">
<g id="Layer_1">
	<path d="M29.076,30.381c1.229-4.674,4.551-6.027,10.086-6.027h34.194c2.214,0,3.936,1.107,3.936,3.075
		c0,2.214-1.476,3.567-3.936,3.69l-18.327,0.492c-1.23,0-1.846,0.492-1.723,1.353l4.306,58.303c0.123,1.845-0.369,3.321-2.46,3.321
		h-2.706c-2.215,0-2.583-1.845-2.706-2.952l-3.567-31.242c0-0.492-0.492-0.738-1.476-0.738c-0.984,0-1.6,0.246-1.723,0.861
		l-3.566,31.119c-0.123,1.107-0.615,2.829-2.829,2.829h-2.706c-1.723,0-2.46-1.23-2.337-2.829l3.936-55.596
		c0-0.246-0.123-0.492-0.492-0.492s-0.615,0.123-0.737,0.492l-5.044,19.68c-0.368,1.353-1.476,2.706-3.197,2.706
		c-2.214,0-3.69-2.091-3.198-3.813L29.076,30.381z M39.285,7.872l-0.738,1.722v1.353h13.53V9.102l1.722-2.583l-0.123-1.107
		L39.285,7.872z M38.67,13.038c0.246,2.829,0.615,5.781,1.106,6.765c0.492,0.861,2.338,1.968,5.412,1.968
		c3.198,0,4.92-1.107,5.412-1.968c0.369-0.861,0.615-2.829,0.861-4.92h4.059v-0.738l-3.443-1.107H38.67z M46.173,33.703
		c0,1.107,0.738,1.599,1.353,1.968c0,0,0.246,0.123,0.369,0.123s0.369-0.123,0.369-0.123c0.738-0.369,1.477-0.738,1.477-1.968
		v-1.476c-0.492-0.246-1.23-0.492-1.846-0.492c-0.614,0-1.229,0.246-1.722,0.492V33.703z"/>
</g>
<g id="_x3C_Layer_x3E_">
</g>
</svg>
