<?xml version="1.0" encoding="utf-8"?>
<!-- Generator: Adobe Illustrator 17.0.0, SVG Export Plug-In . SVG Version: 6.00 Build 0)  -->
<!DOCTYPE svg PUBLIC "-//W3C//DTD SVG 1.1//EN" "http://www.w3.org/Graphics/SVG/1.1/DTD/svg11.dtd">
<svg version="1.1" xmlns="http://www.w3.org/2000/svg" xmlns:xlink="http://www.w3.org/1999/xlink" x="0px" y="0px" width="100px"
	 height="100px" viewBox="0 0 100 100" enable-background="new 0 0 100 100" xml:space="preserve">
<g id="Layer_1">
	<path d="M93.604,21.956c0,6.888-4.797,9.471-8.856,9.471H69.25c-3.566,0-6.519-2.091-7.749-4.92l-0.492-0.984V25.4l-49.815,0.861
		c-3.074,0-4.797-1.476-4.797-4.305c0-2.952,1.723-4.428,4.797-4.428l49.815,0.861v-0.123l0.492-0.861
		c1.6-2.706,4.183-4.92,7.749-4.92h15.498C88.807,12.485,93.604,15.437,93.604,21.956z M89.914,48.155v1.599
		c0,0.984-0.983,2.091-2.214,2.091H10.456c-1.107,0-1.969-1.107-1.969-2.091v-1.599c0-1.353,0.861-2.091,1.969-2.091H87.7
		C88.93,46.064,89.914,46.802,89.914,48.155z M11.931,56.888h74.416c0,16.113-9.472,25.584-23.862,30.627H35.917
		C21.402,82.472,11.931,73.001,11.931,56.888z"/>
</g>
<g id="_x3C_Layer_x3E_">
</g>
</svg>
