<?xml version="1.0" encoding="utf-8"?>
<!-- Generator: Adobe Illustrator 17.0.0, SVG Export Plug-In . SVG Version: 6.00 Build 0)  -->
<!DOCTYPE svg PUBLIC "-//W3C//DTD SVG 1.1//EN" "http://www.w3.org/Graphics/SVG/1.1/DTD/svg11.dtd">
<svg version="1.1" xmlns="http://www.w3.org/2000/svg" xmlns:xlink="http://www.w3.org/1999/xlink" x="0px" y="0px" width="100px"
	 height="100px" viewBox="0 0 100 100" enable-background="new 0 0 100 100" xml:space="preserve">
<g id="Layer_1">
	<path d="M93.173,87.501c0,1.353-1.106,2.46-2.46,2.46H9.287c-1.353,0-2.46-1.107-2.46-2.46V37.44c0-1.353,1.107-2.46,2.46-2.46
		h4.06c1.722-3.321,5.166-5.658,9.225-5.658c2.091,0,4.059,0.615,5.658,1.599l40.467-16.729l-0.123-0.246
		c-0.245-0.615,0-1.353,0.615-1.599l5.289-2.214c0.615-0.246,1.354,0,1.6,0.615l1.722,4.059c0.246,0.615-0.123,1.353-0.738,1.599
		l-5.289,2.214c-0.615,0.246-1.353,0-1.599-0.615l-0.123-0.369L31.058,33.872l0.738,1.107h36.285v-2.091h14.021v2.091h8.61
		c1.354,0,2.46,1.107,2.46,2.46V87.501z M86.655,42.113H13.223v11.07h73.432V42.113z M13.223,63.024
		c0,1.477,1.229,2.706,2.706,2.706c1.599,0,2.706-1.229,2.706-2.706c0-1.476-1.107-2.706-2.706-2.706
		C14.453,60.318,13.223,61.548,13.223,63.024z M13.223,72.126c0,1.476,1.229,2.706,2.706,2.706c1.599,0,2.706-1.23,2.706-2.706
		c0-1.477-1.107-2.706-2.706-2.706C14.453,69.42,13.223,70.65,13.223,72.126z M13.223,81.228c0,1.477,1.229,2.706,2.706,2.706
		c1.599,0,2.706-1.229,2.706-2.706c0-1.476-1.107-2.706-2.706-2.706C14.453,78.522,13.223,79.752,13.223,81.228z M23.678,63.024
		c0,1.477,1.229,2.706,2.706,2.706c1.599,0,2.706-1.229,2.706-2.706c0-1.476-1.107-2.706-2.706-2.706
		C24.908,60.318,23.678,61.548,23.678,63.024z M23.678,72.126c0,1.476,1.229,2.706,2.706,2.706c1.599,0,2.706-1.23,2.706-2.706
		c0-1.477-1.107-2.706-2.706-2.706C24.908,69.42,23.678,70.65,23.678,72.126z M23.678,81.228c0,1.477,1.229,2.706,2.706,2.706
		c1.599,0,2.706-1.229,2.706-2.706c0-1.476-1.107-2.706-2.706-2.706C24.908,78.522,23.678,79.752,23.678,81.228z M34.133,63.024
		c0,1.477,1.229,2.706,2.706,2.706c1.599,0,2.706-1.229,2.706-2.706c0-1.476-1.107-2.706-2.706-2.706
		C35.363,60.318,34.133,61.548,34.133,63.024z M34.133,72.126c0,1.476,1.229,2.706,2.706,2.706c1.599,0,2.706-1.23,2.706-2.706
		c0-1.477-1.107-2.706-2.706-2.706C35.363,69.42,34.133,70.65,34.133,72.126z M34.133,81.228c0,1.477,1.229,2.706,2.706,2.706
		c1.599,0,2.706-1.229,2.706-2.706c0-1.476-1.107-2.706-2.706-2.706C35.363,78.522,34.133,79.752,34.133,81.228z M44.588,63.024
		c0,1.477,1.229,2.706,2.706,2.706C48.893,65.73,50,64.5,50,63.024c0-1.476-1.107-2.706-2.706-2.706
		C45.818,60.318,44.588,61.548,44.588,63.024z M44.588,72.126c0,1.476,1.229,2.706,2.706,2.706c1.599,0,2.706-1.23,2.706-2.706
		c0-1.477-1.107-2.706-2.706-2.706C45.818,69.42,44.588,70.65,44.588,72.126z M44.588,81.228c0,1.477,1.229,2.706,2.706,2.706
		c1.599,0,2.706-1.229,2.706-2.706c0-1.476-1.107-2.706-2.706-2.706C45.818,78.522,44.588,79.752,44.588,81.228z M59.963,72.371
		c0,6.273,5.166,11.439,11.438,11.439c6.396,0,11.439-5.166,11.439-11.439c0-6.396-5.043-11.438-11.439-11.438
		C65.129,60.933,59.963,65.976,59.963,72.371z"/>
</g>
<g id="_x3C_Layer_x3E_">
</g>
</svg>
