<?xml version="1.0" encoding="utf-8"?>
<!-- Generator: Adobe Illustrator 17.0.0, SVG Export Plug-In . SVG Version: 6.00 Build 0)  -->
<!DOCTYPE svg PUBLIC "-//W3C//DTD SVG 1.1//EN" "http://www.w3.org/Graphics/SVG/1.1/DTD/svg11.dtd">
<svg version="1.1" xmlns="http://www.w3.org/2000/svg" xmlns:xlink="http://www.w3.org/1999/xlink" x="0px" y="0px" width="100px"
	 height="100px" viewBox="0 0 100 100" enable-background="new 0 0 100 100" xml:space="preserve">
<g id="Layer_1">
	<path d="M95.109,50.052c0,24.87-20.188,45.058-45.057,45.058c-24.974,0-45.162-20.188-45.162-45.058
		c0-24.974,20.188-45.161,45.162-45.161C74.922,4.891,95.109,25.078,95.109,50.052z M52.029,60.562h-9.365V28.824
		c-7.284,0-10.302,2.913-10.302,6.868v27.471c0,3.538,3.746,6.868,8.948,6.868h10.719V60.562z M57.024,70.031
		c8.013,0,10.302-2.809,10.302-6.868V35.692c0-3.538-3.018-6.868-9.365-6.868H47.659v9.47h9.365V70.031z"/>
</g>
<g id="_x3C_Layer_x3E_">
</g>
</svg>
