<?xml version="1.0" encoding="utf-8"?>
<!-- Generator: Adobe Illustrator 17.0.0, SVG Export Plug-In . SVG Version: 6.00 Build 0)  -->
<!DOCTYPE svg PUBLIC "-//W3C//DTD SVG 1.1//EN" "http://www.w3.org/Graphics/SVG/1.1/DTD/svg11.dtd">
<svg version="1.1" xmlns="http://www.w3.org/2000/svg" xmlns:xlink="http://www.w3.org/1999/xlink" x="0px" y="0px" width="100px"
	 height="100px" viewBox="0 0 100 100" enable-background="new 0 0 100 100" xml:space="preserve">
<g id="Layer_1">
	<path d="M68.933,58.18c-1.353,0-2.583-0.861-3.075-2.091L58.97,37.023c-0.123-0.246-0.369-0.369-0.615-0.369
		s-0.369,0.246-0.369,0.492v10.455l8.241,21.279c0.738,1.722-0.492,2.583-1.599,2.583h-4.92l0.861,19.557
		c0.123,2.214-0.492,3.444-2.46,3.444h-2.337c-2.091,0-2.46-1.845-2.583-2.829l-1.845-20.172h-2.706l-1.722,20.172
		c-0.123,1.722-0.615,2.829-2.583,2.829h-2.337c-1.968,0-2.337-1.107-2.214-3.198l0.738-19.803h-5.043
		c-1.107,0-2.46-0.861-1.845-2.583l8.487-21.279V37.146c0-0.246-0.123-0.492-0.492-0.492c-0.246,0-0.369,0.123-0.492,0.369
		l-7.011,18.942c-0.492,1.353-1.722,2.091-3.075,2.091c-2.337,0-3.69-2.583-3.075-4.305l9.348-24.723
		c1.107-3.075,2.337-4.428,4.797-4.92c3.198-0.615,7.872-0.615,7.872-0.615s4.797,0,7.872,0.615c2.46,0.492,3.69,1.845,4.797,4.92
		l9.348,24.846C72.623,55.474,71.516,58.18,68.933,58.18z M45.563,19.68c-0.738-1.476-1.23-6.642-1.23-9.594
		c0-1.476,0.246-1.968,0.861-2.583c1.353-1.353,3.075-1.968,4.797-1.968s3.444,0.615,4.92,1.968
		c0.615,0.615,0.615,1.353,0.615,2.829c0,2.952-0.123,7.872-0.861,9.348c-0.369,0.738-1.845,1.599-4.551,1.599
		S45.809,20.418,45.563,19.68z"/>
</g>
<g id="_x3C_Layer_x3E_">
</g>
</svg>
