<?xml version="1.0" encoding="utf-8"?>
<!-- Generator: Adobe Illustrator 17.0.0, SVG Export Plug-In . SVG Version: 6.00 Build 0)  -->
<!DOCTYPE svg PUBLIC "-//W3C//DTD SVG 1.1//EN" "http://www.w3.org/Graphics/SVG/1.1/DTD/svg11.dtd">
<svg version="1.1" xmlns="http://www.w3.org/2000/svg" xmlns:xlink="http://www.w3.org/1999/xlink" x="0px" y="0px" width="100px"
	 height="100px" viewBox="0 0 100 100" enable-background="new 0 0 100 100" xml:space="preserve">
<g id="Layer_1">
	<path d="M89.613,69.79c0,1.476-0.984,1.968-2.46,1.968h-8.61L77.19,92.791c0,0.861-0.492,1.845-2.091,1.845h-7.134
		c-1.23,0-1.968-0.861-1.968-1.845l-1.353-21.033h-7.872c-0.861,0-2.214-0.738-1.722-2.583l8.856-31.365v-0.246
		c0-0.492-0.246-0.738-0.615-0.738c-0.369,0-0.738,0.246-0.861,0.615l-7.134,17.958c-0.615,1.476-1.845,2.214-3.198,2.214
		s-2.706-1.23-3.075-2.583l-5.166-19.803c-0.123-0.369-0.369-0.492-0.738-0.492c-0.369,0-0.492,0.246-0.492,0.492l1.599,22.878
		L41.52,92.791c0,0.861-0.492,1.845-2.091,1.845H29.342c-1.23,0-2.091-0.861-2.091-1.845l-2.706-32.35l-4.797-3.444
		c-1.845-1.353-2.091-2.337-1.968-4.059l2.091-23.493c0.246-3.198,1.599-4.551,4.059-5.043c3.936-0.984,8.61-1.107,9.963-1.107
		c1.476,0,5.535,0,11.07,1.107c2.337,0.492,3.321,1.845,4.059,5.043l3.69,16.113h0.123l6.027-16.605
		c1.107-3.075,2.091-4.182,4.551-4.674c2.46-0.615,5.781-0.615,7.749-0.615c1.968,0,4.92,0.123,8.118,0.615
		c2.337,0.369,3.813,1.722,4.428,4.92l4.674,22.509c0.123,0.492,0.246,1.23,0.246,1.476c0,0.492-0.123,0.984-0.738,1.599
		l-1.476,1.476l2.46,9.84C89.49,68.313,89.613,69.175,89.613,69.79z M38.937,19.359c0.615-1.353,1.107-6.519,1.107-9.471
		c0-1.476-0.246-2.091-0.861-2.583c-1.353-1.107-2.952-1.722-4.674-1.722c-1.722,0-3.444,0.615-4.92,1.722
		c-0.615,0.369-0.615,1.476-0.615,2.829c0,2.952,0.246,7.872,0.984,9.225c0.369,0.738,1.722,1.599,4.428,1.599
		C36.968,20.958,38.567,20.097,38.937,19.359z M75.96,19.359c0.615-1.353,1.107-6.519,1.107-9.471c0-1.476-0.246-2.091-0.861-2.583
		c-1.353-1.107-2.952-1.722-4.674-1.722s-3.444,0.615-4.92,1.722c-0.615,0.369-0.615,1.476-0.615,2.829
		c0,2.952,0.246,7.872,0.984,9.225c0.369,0.738,1.722,1.599,4.428,1.599C73.992,20.958,75.591,20.097,75.96,19.359z"/>
</g>
<g id="_x3C_Layer_x3E_">
</g>
</svg>
