<?xml version="1.0" encoding="utf-8"?>
<!-- Generator: Adobe Illustrator 17.0.0, SVG Export Plug-In . SVG Version: 6.00 Build 0)  -->
<!DOCTYPE svg PUBLIC "-//W3C//DTD SVG 1.1//EN" "http://www.w3.org/Graphics/SVG/1.1/DTD/svg11.dtd">
<svg version="1.1" xmlns="http://www.w3.org/2000/svg" xmlns:xlink="http://www.w3.org/1999/xlink" x="0px" y="0px" width="100px"
	 height="100px" viewBox="0 0 100 100" enable-background="new 0 0 100 100" xml:space="preserve">
<g id="Layer_1">
	<path d="M72.279,55.658l3.813,12.915c0.123,0.369,0.246,0.984,0.246,1.353c0,1.107-0.861,1.599-1.723,1.599h-7.995l-1.353,20.91
		c0,0.738-0.861,1.968-2.214,1.968h-8.61l1.106-17.589h2.461c1.599,0,2.337-0.861,2.214-2.46l-1.354-16.236
		c-0.246-2.46-1.229-3.321-2.952-3.69c-3.443-0.861-7.626-0.861-7.626-0.861s-4.182,0-7.626,0.861
		c-1.722,0.369-2.706,1.23-2.952,3.69l-1.353,16.236v0.246c0,1.476,0.86,2.214,2.214,2.214h2.46l1.107,17.589H32.057
		c-1.229,0-1.845-0.984-1.968-1.968L27.26,55.658h-2.583c-2.091,0-3.321-1.353-3.075-3.567l2.337-22.509
		c0.492-3.444,3.198-6.15,9.964-6.15h34.686c2.215,0,3.813,1.476,3.813,3.321c0,1.968-0.984,2.829-2.091,3.198v0.246
		c1.106,0.123,1.968,0.738,2.214,1.599l5.658,20.049c0.123,0.369,0.246,1.107,0.246,1.476c0,1.599-0.984,2.337-2.706,2.337H72.279z
		 M43.497,19.496c0.738-1.353,1.107-6.52,1.107-9.471c0-1.353-0.246-1.845-0.738-2.46c-1.477-1.353-3.198-1.968-4.92-1.968
		c-1.6,0-3.321,0.738-4.674,1.968c-0.492,0.615-0.615,1.353-0.615,2.706c0,2.952,0.246,7.872,0.983,9.225
		c0.369,0.615,1.723,1.599,4.429,1.599C41.652,21.095,43.127,20.111,43.497,19.496z M51.738,49.754
		c0.492-0.984,0.984-5.043,0.984-7.257c0-1.107-0.246-1.599-0.738-1.968c-1.107-0.984-2.46-1.353-3.813-1.353
		c-1.353,0-2.583,0.492-3.689,1.353c-0.492,0.369-0.492,0.984-0.492,2.091c0,2.337,0.246,6.15,0.738,7.134
		c0.368,0.615,1.476,1.353,3.566,1.353C50.261,51.107,51.492,50.369,51.738,49.754z M63.054,19.865
		c0.737-1.353,0.86-6.273,0.86-9.348c0-1.353,0-2.214-0.615-2.706c-1.353-1.23-2.951-1.968-4.551-1.968
		c-1.845,0-3.689,0.492-5.166,1.968c-0.492,0.492-0.738,1.107-0.738,2.46c0,3.075,0.369,8.241,1.107,9.594
		c0.369,0.738,1.968,1.722,4.551,1.722C61.208,21.587,62.685,20.603,63.054,19.865z"/>
</g>
<g id="_x3C_Layer_x3E_">
</g>
</svg>
