<?xml version="1.0" encoding="utf-8"?>
<!-- Generator: Adobe Illustrator 17.0.0, SVG Export Plug-In . SVG Version: 6.00 Build 0)  -->
<!DOCTYPE svg PUBLIC "-//W3C//DTD SVG 1.1//EN" "http://www.w3.org/Graphics/SVG/1.1/DTD/svg11.dtd">
<svg version="1.1" xmlns="http://www.w3.org/2000/svg" xmlns:xlink="http://www.w3.org/1999/xlink" x="0px" y="0px" width="100px"
	 height="100px" viewBox="0 0 100 100" enable-background="new 0 0 100 100" xml:space="preserve">
<g id="Layer_1">
	<path d="M43.419,63.53v11.316h17.22V86.04h16.728v8.487H22.632V63.53H43.419z M42.066,48.032l-8.856,6.519
		c-2.214,1.599-2.706,3.69-1.845,5.412l1.23,1.968l12.669-9.471L42.066,48.032z M53.998,42.128c2.214,2.952,6.027,0.246,4.059-2.583
		l-5.043-7.626l-3.444-9.84c-0.861-2.583-2.829-3.444-5.412-3.444c-4.182,0-5.904,2.706-5.904,6.15V35.24
		c0,1.968,0.369,2.952,1.353,4.428l3.075,5.289l3.813,6.519l1.23,2.214l0.615,16.728c0,2.337,1.476,3.321,3.198,3.321h2.583V50.615
		c0-1.722-0.123-2.337-0.738-3.321l-3.444-5.781l-0.246-7.134h0.123l1.23,3.567L53.998,42.128z M48.462,15.314
		c0.492-0.984,0.738-4.428,0.738-6.642c0-1.107-0.123-1.722-0.492-2.091c-0.984-0.738-2.337-1.107-3.567-1.107
		s-2.46,0.369-3.444,1.107c-0.492,0.369-0.615,0.738-0.615,1.968c0,2.091,0.246,5.781,0.861,6.765
		c0.246,0.492,1.353,1.23,3.198,1.23C47.109,16.544,48.217,15.806,48.462,15.314z"/>
</g>
<g id="_x3C_Layer_x3E_">
</g>
</svg>
