<?xml version="1.0" encoding="utf-8"?>
<!-- Generator: Adobe Illustrator 17.0.0, SVG Export Plug-In . SVG Version: 6.00 Build 0)  -->
<!DOCTYPE svg PUBLIC "-//W3C//DTD SVG 1.1//EN" "http://www.w3.org/Graphics/SVG/1.1/DTD/svg11.dtd">
<svg version="1.1" xmlns="http://www.w3.org/2000/svg" xmlns:xlink="http://www.w3.org/1999/xlink" x="0px" y="0px" width="100px"
	 height="100px" viewBox="0 0 100 100" enable-background="new 0 0 100 100" xml:space="preserve">
<g id="Layer_1">
	<path d="M41.267,55.104l14.391,39.237H50c-1.477,0-3.075-1.23-3.69-2.706l-12.423-31.12c-0.492-1.107-1.969-0.738-1.969,0.369
		v14.883c0,1.599-1.353,2.952-3.074,2.952H8.057v-3.813c0-1.476,1.476-2.706,3.32-2.706h12.424V56.334
		c0-1.23,0.122-2.337,0.368-3.567l4.06-22.017h-5.904l-3.075,14.268c-0.614,2.091-1.845,2.829-3.197,2.829
		c-1.846,0-3.69-1.722-3.075-4.059l2.952-14.883c0.614-3.075,3.566-5.043,7.38-5.043h13.775c5.167,0,8.856,3.321,7.504,11.193
		L41.267,55.104z M39.053,21.156c2.706,0,4.182-0.984,4.551-1.599c0.615-1.476,0.861-6.273,0.861-9.225c0-1.353,0-2.214-0.615-2.706
		c-1.354-1.353-3.075-1.968-4.797-1.968c-1.723,0-3.444,0.615-4.797,1.968c-0.492,0.492-0.738,1.107-0.738,2.46
		c0,2.952,0.369,7.995,1.106,9.471C34.993,20.172,36.593,21.156,39.053,21.156z M86.285,51.168c0.737,0.246,1.845,0.492,2.583,0.492
		c1.599,0,3.075-1.476,3.075-3.444c0-1.476-1.107-2.829-2.583-3.198l-12.793-3.567l1.354-6.396
		c1.599-7.872-2.214-11.193-7.503-11.193H58.363c-3.812,0-6.888,1.968-7.503,5.043l-2.952,14.883
		c-0.491,2.337,1.354,4.059,3.198,4.059c1.354,0,2.706-0.861,3.198-2.829L57.38,30.75h4.305L58.24,49.447l-3.566,15.744
		c-0.246,1.353,0.492,2.214,1.599,2.46l5.412,0.984l-0.615,3.813H50.737l2.091,6.396h13.161c1.6,0,2.706-1.353,2.952-2.952
		l0.738-5.904l4.92,0.861l7.626,20.788c0.492,1.476,1.969,2.706,3.69,2.706h5.535L75.953,48.217L86.285,51.168z M71.647,21.648
		c2.706,0,4.183-0.984,4.552-1.722c0.737-1.476,0.86-6.396,0.86-9.471c0-1.476,0-2.214-0.492-2.706
		c-1.476-1.476-3.197-2.091-5.043-2.091c-1.722,0-3.443,0.738-4.797,2.091c-0.615,0.492-0.86,0.984-0.86,2.46
		c0,3.075,0.368,8.241,1.106,9.717C67.343,20.665,68.941,21.648,71.647,21.648z"/>
</g>
<g id="_x3C_Layer_x3E_">
</g>
</svg>
