<?xml version="1.0" encoding="utf-8"?>
<!-- Generator: Adobe Illustrator 17.0.0, SVG Export Plug-In . SVG Version: 6.00 Build 0)  -->
<!DOCTYPE svg PUBLIC "-//W3C//DTD SVG 1.1//EN" "http://www.w3.org/Graphics/SVG/1.1/DTD/svg11.dtd">
<svg version="1.1" xmlns="http://www.w3.org/2000/svg" xmlns:xlink="http://www.w3.org/1999/xlink" x="0px" y="0px" width="100px"
	 height="100px" viewBox="0 0 100 100" enable-background="new 0 0 100 100" xml:space="preserve">
<g id="Layer_1">
	<path d="M5.596,57.784c0-17.589,12.055-26.322,25.093-26.322c13.161,0,21.156,8.364,21.156,17.098
		c0,8.486-5.289,13.038-10.578,13.038c-1.845,0-4.183-0.984-4.797-1.477V59.26c0.492-0.368,0.983-1.353,0.983-2.46
		c0-1.599-1.353-3.443-3.812-3.443s-4.797,1.722-4.797,6.765c0,6.15,5.289,9.349,11.931,9.349c10.824,0,16.605-11.562,31.98-11.562
		c11.439,0,20.172,6.027,21.648,7.134v25.707H5.596V57.784z M94.404,57.661v-17.22l-16.482-6.396l-16.359,6.396V53.11
		c2.706-0.984,6.273-2.091,11.07-2.091C84.195,51.019,92.804,56.309,94.404,57.661z"/>
</g>
<g id="_x3C_Layer_x3E_">
</g>
</svg>
