<?xml version="1.0" encoding="utf-8"?>
<!-- Generator: Adobe Illustrator 17.0.0, SVG Export Plug-In . SVG Version: 6.00 Build 0)  -->
<!DOCTYPE svg PUBLIC "-//W3C//DTD SVG 1.1//EN" "http://www.w3.org/Graphics/SVG/1.1/DTD/svg11.dtd">
<svg version="1.1" xmlns="http://www.w3.org/2000/svg" xmlns:xlink="http://www.w3.org/1999/xlink" x="0px" y="0px" width="100px"
	 height="100px" viewBox="0 0 100 100" enable-background="new 0 0 100 100" xml:space="preserve">
<g id="Layer_1">
	<path d="M5.474,59.02h11.562c-6.15,6.642-10.332,15.006-11.562,24.354V59.02z M40.774,31.099v-13.53l-13.407,5.658l3.567,35.793
		h-7.626C14.821,66.4,9.532,77.347,9.532,89.524h8.856c0-14.637,9.963-26.813,23.37-30.504c2.214-0.615,4.551-0.984,7.011-1.107
		l4.059-22.017L40.774,31.099z M22.816,89.524h8.856c0-10.086,8.24-18.327,18.327-18.327c10.086,0,18.204,8.241,18.204,18.327h8.979
		c0-15.006-12.177-27.183-27.183-27.183C34.993,62.341,22.816,74.518,22.816,89.524z M36.101,89.524h8.979
		c0-2.706,2.215-4.92,4.921-4.92s4.92,2.214,4.92,4.92h8.855c0-7.626-6.149-13.898-13.775-13.898
		C42.373,75.625,36.101,81.898,36.101,89.524z M73.37,59.02l-3.813-39.976l-20.172-5.166l-4.429,1.845v12.67l12.547,4.92
		l-4.552,24.723c1.846,0.246,3.567,0.492,5.289,0.984c13.407,3.69,23.371,15.867,23.371,30.504h8.855
		c0-12.177-5.289-23.124-13.776-30.504H73.37z M94.526,59.02H82.964c6.15,6.642,10.209,15.006,11.562,24.354V59.02z"/>
</g>
<g id="_x3C_Layer_x3E_">
</g>
</svg>
