<?xml version="1.0" encoding="utf-8"?>
<!-- Generator: Adobe Illustrator 17.0.0, SVG Export Plug-In . SVG Version: 6.00 Build 0)  -->
<!DOCTYPE svg PUBLIC "-//W3C//DTD SVG 1.1//EN" "http://www.w3.org/Graphics/SVG/1.1/DTD/svg11.dtd">
<svg version="1.1" xmlns="http://www.w3.org/2000/svg" xmlns:xlink="http://www.w3.org/1999/xlink" x="0px" y="0px" width="100px"
	 height="100px" viewBox="0 0 100 100" enable-background="new 0 0 100 100" xml:space="preserve">
<g id="Layer_1">
	<path d="M82.349,74.047c-2.829,0-5.289-1.107-7.257-2.706c0.123,0.246,0.123,0.492,0.123,0.86c0,0.615-0.123,1.23-0.246,1.846
		c3.321,1.353,6.273,3.443,8.733,5.781l6.149,5.903v7.503H6.827V6.765h5.289l9.225,10.578l1.477,5.904
		c0.492-0.615,1.353-1.106,2.214-1.106c1.477,0,2.706,1.229,2.706,2.828c0,1.477-1.229,2.706-2.706,2.706
		c-0.369,0-0.861-0.122-1.106-0.245l1.968,8.117c1.599,0.123,2.583,1.23,2.583,2.706c0,0.984-0.492,1.846-1.23,2.338l1.107,4.551
		c0,0,0.492,0.492,1.229,1.476c0.246-1.353,1.354-2.214,2.583-2.214c1.477,0,2.706,1.23,2.706,2.829
		c0,1.476-1.229,2.706-2.583,2.706c1.107,1.476,2.46,3.075,3.813,4.674c0.123-1.229,1.229-2.337,2.706-2.337
		c1.599,0,2.706,1.23,2.706,2.706c0,1.599-1.23,2.706-2.706,2.706h-0.246c0.492,0.615,0.984,1.23,1.476,1.722
		c3.813,4.552,6.889,7.626,10.209,9.472c0.123-2.829,2.583-5.166,5.412-5.166c2.952,0,5.412,2.46,5.412,5.412
		c0,0.983-0.246,1.845-0.614,2.583c1.229,0.123,2.583,0.123,3.936,0.123c0.246-2.952,2.583-5.043,5.412-5.043
		c0.984,0,1.845,0.245,2.583,0.614c-0.615-1.353-0.861-2.706-0.861-4.182v-0.492c-0.491,0.123-1.106,0.246-1.722,0.246
		c-2.952,0-5.412-2.46-5.412-5.412s2.46-5.412,5.412-5.412c2.214,0,4.182,1.354,4.92,3.198c1.354-1.354,3.075-2.337,5.043-2.706
		c-1.722-0.984-2.829-2.829-2.829-4.797c0-3.075,2.46-5.412,5.412-5.412s5.412,2.337,5.412,5.412c0,1.968-1.106,3.812-2.829,4.797
		c4.797,1.107,8.241,5.412,8.241,10.578C93.173,69.127,88.376,74.047,82.349,74.047z M33.887,34.072
		c1.476,0,2.706-1.229,2.706-2.706c0-1.476-1.23-2.706-2.706-2.706c-1.477,0-2.706,1.23-2.706,2.706
		C31.181,32.842,32.411,34.072,33.887,34.072z M38.684,42.559c1.476,0,2.706-1.23,2.706-2.706c0-1.477-1.23-2.706-2.706-2.706
		c-1.477,0-2.706,1.229-2.706,2.706C35.978,41.329,37.208,42.559,38.684,42.559z M45.941,49.939c1.477,0,2.706-1.23,2.706-2.706
		s-1.229-2.706-2.706-2.706c-1.476,0-2.706,1.23-2.706,2.706S44.465,49.939,45.941,49.939z M45.941,63.838
		c1.477,0,2.706-1.23,2.706-2.706c0-1.477-1.229-2.706-2.706-2.706c-1.476,0-2.706,1.229-2.706,2.706
		C43.235,62.608,44.465,63.838,45.941,63.838z M47.294,36.778c1.476,0,2.706-1.23,2.706-2.706s-1.23-2.706-2.706-2.706
		c-1.477,0-2.706,1.23-2.706,2.706S45.818,36.778,47.294,36.778z M55.043,59.902c2.952,0,5.412-2.46,5.412-5.412
		s-2.46-5.412-5.412-5.412s-5.412,2.46-5.412,5.412S52.091,59.902,55.043,59.902z M55.535,42.559c1.477,0,2.706-1.23,2.706-2.706
		c0-1.477-1.229-2.706-2.706-2.706c-1.476,0-2.706,1.229-2.706,2.706C52.829,41.329,54.059,42.559,55.535,42.559z M62.916,49.939
		c1.476,0,2.706-1.23,2.706-2.706c0-1.599-1.23-2.829-2.706-2.829c-1.477,0-2.706,1.23-2.706,2.829
		C60.209,48.708,61.439,49.939,62.916,49.939z M70.911,43.789c1.476,0,2.706-1.229,2.706-2.706c0-1.476-1.23-2.706-2.706-2.706
		c-1.6,0-2.706,1.23-2.706,2.706C68.205,42.559,69.311,43.789,70.911,43.789z"/>
</g>
<g id="_x3C_Layer_x3E_">
</g>
</svg>
