<?xml version="1.0" encoding="utf-8"?>
<!-- Generator: Adobe Illustrator 17.0.0, SVG Export Plug-In . SVG Version: 6.00 Build 0)  -->
<!DOCTYPE svg PUBLIC "-//W3C//DTD SVG 1.1//EN" "http://www.w3.org/Graphics/SVG/1.1/DTD/svg11.dtd">
<svg version="1.1" xmlns="http://www.w3.org/2000/svg" xmlns:xlink="http://www.w3.org/1999/xlink" x="0px" y="0px" width="100px"
	 height="100px" viewBox="0 0 100 100" enable-background="new 0 0 100 100" xml:space="preserve">
<g id="Layer_1">
	<path d="M67.639,59.471c-1.353,0-2.706-1.107-3.075-2.46l-5.412-20.787c-0.123-0.492-0.246-0.615-0.492-0.615
		c-0.123,0-0.246,0.123-0.246,0.615l4.305,54.366c0.123,2.214-0.492,3.444-2.46,3.444h-2.952c-2.091,0-2.583-1.845-2.583-2.829
		l-3.813-29.889c0-0.369-0.492-0.738-0.984-0.738c-0.615,0-1.107,0.246-1.107,0.615l-3.813,30.012
		c-0.246,1.722-0.615,2.829-2.583,2.829h-2.952c-1.968,0-2.46-1.23-2.214-3.198l4.059-54.612c0-0.492-0.246-0.615-0.492-0.615
		s-0.492,0.246-0.615,0.615l-5.166,20.787c-0.246,1.353-1.599,2.46-2.952,2.46c-2.583,0-3.444-2.706-3.075-4.182l6.027-24.969
		c0.861-3.198,1.722-4.551,4.428-5.166c4.428-1.353,10.332-0.984,10.332-0.984s5.781-0.369,10.455,0.984
		c2.706,0.615,3.567,1.968,4.305,5.166l6.396,25.215C71.575,57.749,69.361,59.471,67.639,59.471z M54.478,19.741
		c0.738-1.23,1.107-6.027,1.107-8.979c0-1.722-0.369-2.214-0.861-2.706c-1.353-1.476-2.952-2.091-4.674-2.091
		s-3.567,0.738-5.043,2.091c-0.615,0.492-0.861,0.984-0.861,2.337c0,3.075,0.615,8.118,1.107,9.348
		c0.492,0.861,2.214,1.968,4.551,1.968C52.51,21.71,54.232,20.603,54.478,19.741z"/>
</g>
<g id="_x3C_Layer_x3E_">
</g>
</svg>
