<?xml version="1.0" encoding="utf-8"?>
<!-- Generator: Adobe Illustrator 17.0.0, SVG Export Plug-In . SVG Version: 6.00 Build 0)  -->
<!DOCTYPE svg PUBLIC "-//W3C//DTD SVG 1.1//EN" "http://www.w3.org/Graphics/SVG/1.1/DTD/svg11.dtd">
<svg version="1.1" xmlns="http://www.w3.org/2000/svg" xmlns:xlink="http://www.w3.org/1999/xlink" x="0px" y="0px" width="100px"
	 height="100px" viewBox="0 0 100 100" enable-background="new 0 0 100 100" xml:space="preserve">
<g id="Layer_1">
	<path d="M66.174,69.072c0,13.161-10.823,24.354-24.107,24.354c-13.53,0-24.354-11.193-24.354-24.354
		c0-8.241,3.936-15.129,9.84-19.557l-2.214-8.118c-0.492-1.845-0.615-4.305,1.599-6.519l8.856-8.61
		c1.599-1.599,2.952-2.214,6.027-1.845l7.257,0.984c2.46,0.369,4.305,2.46,4.551,4.92l1.107,7.257l1.106,7.872
		c-4.059-2.46-8.609-3.813-13.775-3.813H38.5l-0.492-4.797v-0.861c-0.246-0.492-0.861-0.738-1.353-0.246l-3.813,4.059
		c-0.492,0.246-0.615,0.861-0.492,1.353l1.107,5.166c2.706-0.984,5.658-1.599,8.61-1.599C55.351,44.718,66.174,55.541,66.174,69.072
		z M59.41,69.072c0-9.594-7.749-17.343-17.343-17.343c-2.46,0-4.921,0.492-7.012,1.476c0.369,1.722,0,3.567-2.091,4.059
		c-1.229,0.246-2.091-0.123-2.829-0.738c-3.321,3.075-5.412,7.626-5.412,12.546c0,9.594,7.749,17.343,17.344,17.343
		C51.661,86.415,59.41,78.666,59.41,69.072z M42.313,20.363c-0.861-1.353-1.107-6.519-1.107-9.471c0-1.353,0-1.968,0.615-2.46
		c1.476-1.23,3.074-1.845,4.797-1.845c1.722-0.123,3.444,0.615,4.92,1.845c0.492,0.492,0.492,1.353,0.492,2.706
		c0,2.952-0.246,7.872-1.107,9.225c-0.246,0.492-1.599,1.599-4.305,1.599C44.158,21.962,42.558,20.855,42.313,20.363z
		 M82.288,82.233c0,0.615-0.246,1.353-0.983,1.353l-4.92,1.107c-1.354,0.246-2.215,0-2.706-1.845l-4.306-17.589
		c-0.86-4.059-1.845-7.503-4.059-10.824h6.519c3.198,0,5.904,1.845,6.15,4.551L82.288,82.233z"/>
</g>
<g id="_x3C_Layer_x3E_">
</g>
</svg>
