<?xml version="1.0" encoding="utf-8"?>
<!-- Generator: Adobe Illustrator 17.0.0, SVG Export Plug-In . SVG Version: 6.00 Build 0)  -->
<!DOCTYPE svg PUBLIC "-//W3C//DTD SVG 1.1//EN" "http://www.w3.org/Graphics/SVG/1.1/DTD/svg11.dtd">
<svg version="1.1" xmlns="http://www.w3.org/2000/svg" xmlns:xlink="http://www.w3.org/1999/xlink" x="0px" y="0px" width="100px"
	 height="100px" viewBox="0 0 100 100" enable-background="new 0 0 100 100" xml:space="preserve">
<g id="Layer_1">
	<path d="M69.434,65.135c0,6.15-1.722,7.872-5.781,8.733l-5.166,1.107l-0.737,17.22c0,1.23-0.615,1.968-2.092,1.968H44.342
		c-1.477,0-2.091-0.738-2.091-1.968l-0.738-17.22l-5.166-1.107c-4.06-0.861-5.781-2.583-5.781-8.733
		c0-12.546,5.535-31.365,5.535-31.365C36.593,32.17,38.93,30.571,50,30.571c11.069,0,13.406,1.599,13.898,3.198
		C63.899,33.769,69.434,52.588,69.434,65.135z M38.438,17.656c0-2.214,1.845-4.182,4.059-4.305v-1.599
		c0-1.968,0.246-2.583,0.984-3.321c1.845-1.722,4.182-2.583,6.396-2.583c2.46-0.123,4.797,0.861,6.765,2.583
		c0.738,0.738,0.738,1.722,0.738,3.69v1.23c2.337,0.123,4.182,1.968,4.182,4.305s-1.968,4.305-4.305,4.305h-0.369
		c-0.246,1.107-0.492,2.091-0.738,2.706c-0.492,0.861-2.46,2.214-6.027,2.214c-3.566,0-5.657-1.353-6.149-2.214
		c-0.246-0.615-0.492-1.599-0.738-2.706h-0.492C40.406,21.961,38.438,19.993,38.438,17.656z"/>
</g>
<g id="_x3C_Layer_x3E_">
</g>
</svg>
