<?xml version="1.0" encoding="utf-8"?>
<!-- Generator: Adobe Illustrator 17.0.0, SVG Export Plug-In . SVG Version: 6.00 Build 0)  -->
<!DOCTYPE svg PUBLIC "-//W3C//DTD SVG 1.1//EN" "http://www.w3.org/Graphics/SVG/1.1/DTD/svg11.dtd">
<svg version="1.1" xmlns="http://www.w3.org/2000/svg" xmlns:xlink="http://www.w3.org/1999/xlink" x="0px" y="0px" width="100px"
	 height="100px" viewBox="0 0 100 100" enable-background="new 0 0 100 100" xml:space="preserve">
<g id="Layer_1">
	<path d="M49.939,94.219c-7.504,0-8.487-0.246-9.349-0.246c-0.861-0.123-1.476-0.492-1.476-1.353l-0.492-23.616l-3.813-1.353
		c-2.214-0.738-3.812-1.353-3.566-3.936l0.86-25.953c0.246-3.69,3.321-5.167,6.027-5.781c4.551-1.107,9.84-1.23,11.439-1.23
		c1.476,0,6.149,0.123,12.3,1.23c2.706,0.492,5.904,1.968,6.027,5.781l0.86,25.953c0.246,2.583-1.353,3.198-3.566,3.936
		l-3.937,1.353l-0.369,23.493c0,1.23-0.614,1.353-1.353,1.476C58.671,93.973,57.565,94.219,49.939,94.219z M44.035,24.601
		c-0.984-1.845-1.477-8.733-1.477-12.792c0-1.968,0.246-2.583,0.984-3.321c1.968-1.968,4.428-2.706,6.888-2.706
		c2.215,0,4.429,0.984,6.273,2.706c0.738,0.738,0.738,1.722,0.738,3.69c0,3.936-0.246,10.578-1.23,12.423
		c-0.492,0.984-2.46,2.337-6.149,2.337C46.618,26.938,44.527,25.584,44.035,24.601z"/>
</g>
<g id="_x3C_Layer_x3E_">
</g>
</svg>
