<?xml version="1.0" encoding="utf-8"?>
<!-- Generator: Adobe Illustrator 17.0.0, SVG Export Plug-In . SVG Version: 6.00 Build 0)  -->
<!DOCTYPE svg PUBLIC "-//W3C//DTD SVG 1.1//EN" "http://www.w3.org/Graphics/SVG/1.1/DTD/svg11.dtd">
<svg version="1.1" xmlns="http://www.w3.org/2000/svg" xmlns:xlink="http://www.w3.org/1999/xlink" x="0px" y="0px" width="100px"
	 height="100px" viewBox="0 0 100 100" enable-background="new 0 0 100 100" xml:space="preserve">
<g id="Layer_1">
	<path fill-rule="evenodd" clip-rule="evenodd" d="M32.534,54.797l8.487,32.226h-4.428c-1.6,0-2.583-0.861-2.952-2.214l-7.38-26.322
		c-0.123-0.492-0.861-0.492-0.984,0l-2.952,12.792c-0.246,0.615-0.615,1.476-1.229,1.968L8.425,84.932l-1.968-1.968
		c-0.492-0.615-0.861-1.476-0.861-2.337c0-0.861,0.369-1.599,0.984-2.214l9.472-9.348l2.583-14.022l3.197-20.418
		c0.615-3.321,3.075-6.396,7.258-6.396c4.305,0,6.765,2.46,6.765,6.519c0,0.615,0,1.353-0.123,1.968l-1.476,8.61h7.503
		c1.722,0,3.075,1.353,3.075,2.952c0,1.722-1.354,3.075-3.075,3.075h-8.61L32.534,54.797z M30.197,25.769
		c2.214,0,3.444-0.861,3.69-1.476c0.614-1.107,0.737-5.166,0.737-7.626c0-1.107,0-1.845-0.491-2.214
		c-1.107-0.861-2.338-1.476-3.69-1.476c-1.476,0-3.075,0.369-4.305,1.476c-0.369,0.369-0.615,0.861-0.615,2.091
		c0,2.337,0.369,6.642,0.984,7.749C26.752,24.908,27.983,25.769,30.197,25.769z M60.824,46.31c-2.46,0-4.92,0.492-7.134,1.353
		l-0.983-4.059c-0.123-0.369,0-0.738,0.368-1.107l3.198-3.321c0.369-0.492,0.861-0.369,0.984,0.369l0.492,4.674
		c0.737-0.123,2.091-0.246,3.074-0.246c4.306,0,7.995,1.23,11.439,3.321l-1.845-12.669c-0.246-2.091-1.723-3.813-3.813-4.059
		l-6.026-0.861c-0.492-0.123-0.984-0.123-1.354-0.123c-1.599,0-2.583,0.615-3.567,1.722l-7.503,7.134
		c-1.229,1.23-1.599,2.46-1.599,3.69c0,0.615,0.123,1.23,0.246,1.722l1.845,6.519c-4.92,3.69-8.241,9.471-8.241,16.359
		c0,10.947,9.103,20.295,20.418,20.295c11.07,0,20.05-9.348,20.05-20.295C80.874,55.412,71.894,46.31,60.824,46.31z M75.338,66.974
		c0-7.995-6.52-14.514-14.515-14.514c-2.091,0-4.059,0.492-5.78,1.23l0.123,0.861c0,1.353-0.615,2.583-2.583,2.583
		c-0.615,0-1.23-0.246-1.723-0.738c-2.829,2.706-4.551,6.396-4.551,10.578c0,7.995,6.519,14.514,14.514,14.514
		S75.338,74.969,75.338,66.974z M64.76,27.491c2.214,0,3.321-0.861,3.567-1.353c0.614-1.107,0.86-5.166,0.86-7.626
		c0-1.23,0-1.845-0.369-2.337c-1.106-0.861-2.46-1.476-3.689-1.476c-1.6,0-3.075,0.369-4.429,1.476
		c-0.491,0.492-0.491,0.984-0.491,2.091c0,2.46,0.246,6.765,0.86,7.872C61.316,26.63,62.669,27.491,64.76,27.491z M90.713,58.487
		c-0.123-2.214-2.46-3.813-5.043-3.813h-5.535c1.968,2.829,2.706,5.781,3.444,9.102l3.566,14.637
		c0.369,1.599,1.107,1.845,2.215,1.599l4.182-0.984c0.615,0,0.861-0.615,0.861-1.107L90.713,58.487z"/>
</g>
<g id="_x3C_Layer_x3E_">
</g>
</svg>
