<?xml version="1.0" encoding="utf-8"?>
<!-- Generator: Adobe Illustrator 17.0.0, SVG Export Plug-In . SVG Version: 6.00 Build 0)  -->
<!DOCTYPE svg PUBLIC "-//W3C//DTD SVG 1.1//EN" "http://www.w3.org/Graphics/SVG/1.1/DTD/svg11.dtd">
<svg version="1.1" xmlns="http://www.w3.org/2000/svg" xmlns:xlink="http://www.w3.org/1999/xlink" x="0px" y="0px" width="100px"
	 height="100px" viewBox="0 0 100 100" enable-background="new 0 0 100 100" xml:space="preserve">
<g id="Layer_1">
	<path d="M74.539,50.984c0,1.599-0.983,2.952-2.706,2.952c-1.599,0-2.337-0.492-3.689-1.968l-7.995-8.61
		c-1.477-1.476-2.706-4.797-2.952-7.626H56.95v19.434l7.749,16.605c0.369,0.738,0.492,1.722,0.615,2.706l2.091,19.065h-3.937
		c-2.214,0-3.812-1.353-4.182-3.567l-2.091-14.637L49.57,59.594c-0.123-0.369-0.492-0.615-0.861-0.615s-0.615,0.246-0.738,0.615
		l-3.32,15.129c-0.123,0.738-0.861,1.845-1.6,2.46L28.414,90.467l-1.477-1.476c-0.86-0.861-1.476-2.214-1.476-3.567
		c0-0.984,0.369-1.968,1.107-2.706l10.823-10.455l3.321-17.097V39.545c0-1.722,0-2.706,0.123-3.813h-0.369l-3.321,5.043
		l-3.689,11.931c-0.492,1.722-1.477,3.075-3.567,3.075c-1.599,0-2.829-1.107-2.829-3.198c0-0.615,0-1.23,0.246-1.845l3.444-11.193
		c0.123-0.492,0.492-1.353,0.861-1.968l5.289-8.61c1.599-2.583,4.551-4.428,12.054-4.428c7.749,0,11.193,1.353,12.423,4.551
		l3.937,10.332l8.118,8.856C74.169,49.139,74.539,50.123,74.539,50.984z M48.955,21.833c2.706,0,4.059-0.984,4.428-1.722
		c0.738-1.353,0.861-6.15,0.861-9.102c0-1.353,0-2.214-0.615-2.706c-1.353-1.107-2.952-1.845-4.674-1.845s-3.321,0.492-4.797,1.845
		c-0.492,0.615-0.738,1.107-0.738,2.46c0,2.952,0.369,7.995,1.107,9.348C44.896,20.849,46.372,21.833,48.955,21.833z"/>
</g>
<g id="_x3C_Layer_x3E_">
</g>
</svg>
