<?xml version="1.0" encoding="utf-8"?>
<!-- Generator: Adobe Illustrator 17.0.0, SVG Export Plug-In . SVG Version: 6.00 Build 0)  -->
<!DOCTYPE svg PUBLIC "-//W3C//DTD SVG 1.1//EN" "http://www.w3.org/Graphics/SVG/1.1/DTD/svg11.dtd">
<svg version="1.1" xmlns="http://www.w3.org/2000/svg" xmlns:xlink="http://www.w3.org/1999/xlink" x="0px" y="0px" width="100px"
	 height="100px" viewBox="0 0 100 100" enable-background="new 0 0 100 100" xml:space="preserve">
<g id="Layer_1">
	<path d="M70.788,44.035c1.476,0.369,2.46,1.722,2.46,3.198c0,1.968-1.354,3.444-3.198,3.444c-0.369,0-1.107-0.123-1.477-0.246
		l-9.963-2.829v0.615l7.012,24.231c0.246,0.861,0.491,1.845,0.614,2.829l1.23,19.188h-4.183c-1.476,0-2.951-1.107-3.197-2.706
		l-1.723-15.744l-1.599-4.305l-9.226-0.861L34.133,91.513l-2.706-1.476c-1.23-0.738-1.846-1.968-1.846-3.321
		c0-1.107,0.246-2.214,0.984-3.321l8.61-13.284l-4.429-0.369c-0.983-0.123-1.845-0.861-1.845-1.845c0-0.246,0-0.492,0.123-0.738
		l8.856-18.942l0.983-13.653h-0.614L32.903,52.03c-0.615,1.476-1.845,2.337-3.075,2.337c-0.492,0-0.86-0.123-1.353-0.369
		c-1.107-0.738-1.723-1.599-1.723-2.583c0-0.615,0.246-1.23,0.615-1.845l11.439-21.771c0.861-1.845,2.706-3.075,4.674-3.444
		c0,0,1.845-0.492,7.134-0.492c5.781,0,9.226,2.46,8.733,10.701l-0.369,6.15L70.788,44.035z M51.107,21.525
		c2.829,0,4.306-0.984,4.674-1.722c0.738-1.353,0.861-6.396,0.861-9.348c0-1.476,0-2.337-0.492-2.829
		c-1.476-1.476-3.198-2.091-4.92-2.091c-1.845,0-3.567,0.615-5.043,2.091c-0.615,0.492-0.738,0.984-0.738,2.46
		c0,3.075,0.369,8.364,1.107,9.717C46.925,20.542,48.524,21.525,51.107,21.525z"/>
</g>
<g id="_x3C_Layer_x3E_">
</g>
</svg>
