<?xml version="1.0" encoding="utf-8"?>
<!-- Generator: Adobe Illustrator 17.0.0, SVG Export Plug-In . SVG Version: 6.00 Build 0)  -->
<!DOCTYPE svg PUBLIC "-//W3C//DTD SVG 1.1//EN" "http://www.w3.org/Graphics/SVG/1.1/DTD/svg11.dtd">
<svg version="1.1" xmlns="http://www.w3.org/2000/svg" xmlns:xlink="http://www.w3.org/1999/xlink" x="0px" y="0px" width="100px"
	 height="100px" viewBox="0 0 100 100" enable-background="new 0 0 100 100" xml:space="preserve">
<g id="Layer_1">
	<path d="M94.649,86.101c0,1.722-1.106,3.075-3.32,3.075H8.918c-2.214,0-3.567-1.23-3.567-2.952c0-0.615,0.246-1.23,0.615-1.968
		l41.082-71.709c0.615-1.107,1.723-1.722,2.829-1.722c1.107,0,2.214,0.615,2.829,1.722L94.28,84.256
		C94.649,84.871,94.649,85.609,94.649,86.101z M85.671,82.657L50,20.91L14.576,82.657H85.671z M50,60.271l2.706-5.166
		c0.492-0.861,1.23-1.476,2.829-1.599c0,0,1.23-0.123,3.198-0.123c2.337,0,4.059,0.984,3.813,4.182l-0.123,2.337l4.551,1.353
		c0.86,0.246,1.476,0.984,1.476,1.722c0,1.107-0.86,1.722-1.476,1.722c-0.369,0-0.984-0.123-1.354-0.246l-3.197-0.984l2.829,8.118
		c0.245,0.615,0.368,1.23,0.368,1.722l0.369,7.257h-2.706c-0.737,0-1.106-0.492-1.229-1.107l-0.738-5.904l-0.615-1.722l-3.689-0.246
		l-5.166,7.872l-1.723-1.107c-0.492-0.246-0.86-0.861-0.86-1.353c0-0.369,0.246-0.861,0.614-1.353l2.583-4.182l-1.229-0.246
		c-0.615-0.123-0.984-0.369-0.984-0.861c0-0.369,0.246-0.861,0.369-1.107l3.937-6.642l0.245-3.813h-0.245l-3.321,6.52
		c-0.492,0.861-0.984,0.984-1.354,0.984s-0.983-0.246-1.353-0.984l-3.321-7.38h-0.246l-0.246,6.519l3.813,16.113h-2.952
		c-0.738,0-1.23-0.369-1.353-0.984l-2.706-11.808c0-0.123-0.123-0.369-0.369-0.369s-0.369,0.246-0.369,0.369l-1.23,5.535
		c0,0.246-0.246,0.738-0.614,0.984l-5.904,5.412l-1.477-1.599c-0.369-0.369-0.491-0.738-0.491-1.107
		c0-0.369,0.122-0.615,0.491-0.984l3.937-3.69l1.229-6.642l0.984-7.257h-0.246l-3.075,6.15c-0.246,0.492-0.86,1.107-1.599,1.107
		s-1.6-0.492-1.6-1.476c0-0.615,0.369-1.353,0.492-1.599l3.937-7.626c0.615-1.107,1.845-1.722,5.166-1.722h2.214
		c3.198,0,4.428,0.738,4.797,1.722L50,60.271z M40.406,51.415c-0.246-0.615-0.615-2.706-0.615-3.936c0-0.615,0.123-0.984,0.492-1.23
		c0.492-0.369,1.354-0.615,1.968-0.615c0.738,0,1.477,0.246,2.091,0.738c0.246,0.246,0.246,0.615,0.246,1.107
		c0,1.353-0.368,3.198-0.614,3.936c-0.123,0.369-0.615,0.615-1.723,0.615C41.021,52.03,40.529,51.784,40.406,51.415z M55.904,51.415
		c-0.246-0.615-0.615-2.706-0.615-3.936c0-0.615,0.123-0.984,0.492-1.23c0.492-0.369,1.354-0.615,1.968-0.615
		c0.738,0,1.477,0.246,2.092,0.738c0.245,0.246,0.245,0.615,0.245,1.107c0,1.353-0.368,3.198-0.614,3.936
		c-0.123,0.369-0.615,0.615-1.723,0.615C56.52,52.03,56.027,51.784,55.904,51.415z"/>
</g>
<g id="_x3C_Layer_x3E_">
</g>
</svg>
