<?xml version="1.0" encoding="utf-8"?>
<!-- Generator: Adobe Illustrator 17.0.0, SVG Export Plug-In . SVG Version: 6.00 Build 0)  -->
<!DOCTYPE svg PUBLIC "-//W3C//DTD SVG 1.1//EN" "http://www.w3.org/Graphics/SVG/1.1/DTD/svg11.dtd">
<svg version="1.1" xmlns="http://www.w3.org/2000/svg" xmlns:xlink="http://www.w3.org/1999/xlink" x="0px" y="0px" width="100px"
	 height="100px" viewBox="0 0 100 100" enable-background="new 0 0 100 100" xml:space="preserve">
<g id="Layer_1">
	<path d="M94.649,86.101c0,1.722-1.107,3.075-3.321,3.075H8.917c-2.214,0-3.567-1.23-3.567-2.952c0-0.615,0.246-1.23,0.615-1.968
		l41.082-71.709c0.615-1.107,1.722-1.722,2.829-1.722s2.214,0.615,2.829,1.722L94.28,84.256
		C94.649,84.871,94.649,85.609,94.649,86.101z M85.67,82.657L50,20.91L14.576,82.657h15.867l10.578-19.188h17.958l11.07,19.188
		H85.67z M49.262,43.173c-1.353,0-2.583,0.492-3.567,1.353c-0.738-0.861-1.845-1.353-2.952-1.353c-2.214,0-4.059,1.845-4.059,4.059
		c0,2.091,1.845,3.936,4.059,3.936c0.615,0,1.23-0.123,1.722-0.492c0.861,1.845,2.706,3.075,4.797,3.075
		c0.246,0,0.615,0,0.861-0.123c-0.984,0.738-1.599,1.845-1.599,3.075c0,2.337,1.845,4.059,4.059,4.059
		c1.722,0,3.198-1.107,3.69-2.706h0.492c3.198,0,5.658-2.583,5.658-5.535c0-1.845-0.984-3.567-2.46-4.674
		c0-2.091-1.845-3.813-3.936-3.813c-1.107,0-2.091,0.369-2.706,1.107C52.337,43.912,50.861,43.173,49.262,43.173z"/>
</g>
<g id="_x3C_Layer_x3E_">
</g>
</svg>
