<?xml version="1.0" encoding="utf-8"?>
<!-- Generator: Adobe Illustrator 17.0.0, SVG Export Plug-In . SVG Version: 6.00 Build 0)  -->
<!DOCTYPE svg PUBLIC "-//W3C//DTD SVG 1.1//EN" "http://www.w3.org/Graphics/SVG/1.1/DTD/svg11.dtd">
<svg version="1.1" xmlns="http://www.w3.org/2000/svg" xmlns:xlink="http://www.w3.org/1999/xlink" x="0px" y="0px" width="100px"
	 height="100px" viewBox="0 0 100 100" enable-background="new 0 0 100 100" xml:space="preserve">
<g id="Layer_1">
	<path d="M91.329,89.176H8.917c-2.214,0-3.567-1.23-3.567-2.952c0-0.615,0.246-1.23,0.615-1.968l41.082-71.709
		c0.615-1.107,1.722-1.722,2.829-1.722s2.214,0.615,2.829,1.722L94.28,84.256c0.369,0.615,0.369,1.353,0.369,1.845
		C94.649,87.823,93.542,89.176,91.329,89.176z M14.576,82.657H85.67L50,20.91L14.576,82.657z M55.658,69.619V51.907
		c0-2.952-2.46-5.535-5.658-5.535c-3.075,0-5.535,2.583-5.535,5.535v17.712c0,2.952,2.46,5.535,5.535,5.535
		C53.198,75.154,55.658,72.571,55.658,69.619z"/>
</g>
<g id="_x3C_Layer_x3E_">
</g>
</svg>
