<?xml version="1.0" encoding="utf-8"?>
<!-- Generator: Adobe Illustrator 17.0.0, SVG Export Plug-In . SVG Version: 6.00 Build 0)  -->
<!DOCTYPE svg PUBLIC "-//W3C//DTD SVG 1.1//EN" "http://www.w3.org/Graphics/SVG/1.1/DTD/svg11.dtd">
<svg version="1.1" xmlns="http://www.w3.org/2000/svg" xmlns:xlink="http://www.w3.org/1999/xlink" x="0px" y="0px" width="100px"
	 height="100px" viewBox="0 0 100 100" enable-background="new 0 0 100 100" xml:space="preserve">
<g id="Layer_1">
	<path d="M83.21,6.458v87.085H16.79V6.458H83.21z M76.568,13.469h-52.89v72.939h52.89V13.469z M33.395,72.509h-7.257v-6.765h7.257
		V15.929h6.765v49.815h33.948v6.765H40.16v11.439h-6.765V72.509z M47.294,48.524c-0.984-1.968-1.723-3.813-1.723-6.15
		c0-6.396,5.289-11.808,11.809-11.808c6.519,0,11.808,5.412,11.808,11.808c0,2.337-0.737,4.182-1.722,6.15L57.38,63.899
		L47.294,48.524z M52.583,41.39c0,2.706,2.214,4.674,4.797,4.674s4.674-1.968,4.674-4.674c0-2.583-2.091-4.92-4.674-4.92
		S52.583,38.807,52.583,41.39z"/>
</g>
<g id="_x3C_Layer_x3E_">
</g>
</svg>
