<?xml version="1.0" encoding="utf-8"?>
<!-- Generator: Adobe Illustrator 17.0.0, SVG Export Plug-In . SVG Version: 6.00 Build 0)  -->
<!DOCTYPE svg PUBLIC "-//W3C//DTD SVG 1.1//EN" "http://www.w3.org/Graphics/SVG/1.1/DTD/svg11.dtd">
<svg version="1.1" xmlns="http://www.w3.org/2000/svg" xmlns:xlink="http://www.w3.org/1999/xlink" x="0px" y="0px" width="100px"
	 height="100px" viewBox="0 0 100 100" enable-background="new 0 0 100 100" xml:space="preserve">
<g id="Layer_1">
	<path d="M91.575,33.32c0,14.514-11.686,26.445-26.814,26.445c-3.444,0-6.765-0.615-9.84-1.845L43.973,68.498l2.706-15.867
		c-5.166-4.797-8.487-11.685-8.487-19.311c0-3.813,0.738-7.38,2.214-10.578H15.314c-0.738,0-1.477,0.861-1.477,1.599v52.645
		c0,0.738,0.738,1.353,1.477,1.353h33.333c0.738,0,1.599-0.614,1.599-1.353v-8.61l3.567-3.444l1.968,0.615v22.633
		c0,2.828-1.476,3.936-3.936,3.936H11.747c-1.353,0-3.321-1.353-3.321-3.936V17.822c0-4.059,2.092-5.781,5.535-5.781h34.933
		c4.428-3.321,9.963-5.289,15.867-5.289C79.889,6.752,91.575,18.683,91.575,33.32z M39.545,17.453c0-0.861-0.615-1.476-1.477-1.476
		H26.015c-0.738,0-1.354,0.615-1.354,1.476c0,0.738,0.615,1.353,1.354,1.353h12.054C38.93,18.806,39.545,18.191,39.545,17.453z
		 M28.475,85.227c0,2.091,1.599,3.689,3.566,3.689c2.092,0,3.69-1.599,3.69-3.689c0-1.969-1.599-3.567-3.69-3.567
		C30.074,81.659,28.475,83.258,28.475,85.227z M71.894,42.053h-2.46V28.031H58.856v7.38h3.075v6.642h-3.075v7.503h13.038V42.053z
		 M61.316,22.865h7.749V16.1h-7.749V22.865z"/>
</g>
<g id="_x3C_Layer_x3E_">
</g>
</svg>
