<?xml version="1.0" encoding="utf-8"?>
<!-- Generator: Adobe Illustrator 17.0.0, SVG Export Plug-In . SVG Version: 6.00 Build 0)  -->
<!DOCTYPE svg PUBLIC "-//W3C//DTD SVG 1.1//EN" "http://www.w3.org/Graphics/SVG/1.1/DTD/svg11.dtd">
<svg version="1.1" xmlns="http://www.w3.org/2000/svg" xmlns:xlink="http://www.w3.org/1999/xlink" x="0px" y="0px" width="100px"
	 height="100px" viewBox="0 0 100 100" enable-background="new 0 0 100 100" xml:space="preserve">
<g id="Layer_1">
	<path d="M54.182,60.079h5.535v28.291c0,2.828-1.477,3.936-3.937,3.936H15.683c-1.354,0-3.321-1.353-3.321-3.936V18.012
		c0-4.059,2.091-5.781,5.535-5.781h35.916c4.428,0,5.904,1.722,5.904,5.781v4.92h-5.904h-1.229H19.25
		c-0.737,0-1.476,0.861-1.476,1.599v52.645c0,0.738,0.738,1.353,1.476,1.353h33.334c0.737,0,1.599-0.614,1.599-1.353V60.079z
		 M28.598,17.643c0,0.738,0.614,1.353,1.353,1.353h12.055c0.86,0,1.476-0.615,1.476-1.353c0-0.861-0.615-1.476-1.476-1.476H29.951
		C29.212,16.167,28.598,16.782,28.598,17.643z M84.317,27.36H32.78c-1.845,0-3.321,1.476-3.321,3.198v21.894
		c0,1.722,1.477,3.198,3.321,3.198h8.856l-2.829,13.038L52.583,55.65h31.733c1.846,0,3.321-1.476,3.321-3.198V30.558
		C87.638,28.836,86.163,27.36,84.317,27.36z M39.667,85.417c0-1.969-1.599-3.567-3.689-3.567c-1.968,0-3.567,1.599-3.567,3.567
		c0,2.091,1.6,3.689,3.567,3.689C38.069,89.106,39.667,87.508,39.667,85.417z"/>
</g>
<g id="_x3C_Layer_x3E_">
</g>
</svg>
