<?xml version="1.0" encoding="utf-8"?>
<!-- Generator: Adobe Illustrator 17.0.0, SVG Export Plug-In . SVG Version: 6.00 Build 0)  -->
<!DOCTYPE svg PUBLIC "-//W3C//DTD SVG 1.1//EN" "http://www.w3.org/Graphics/SVG/1.1/DTD/svg11.dtd">
<svg version="1.1" xmlns="http://www.w3.org/2000/svg" xmlns:xlink="http://www.w3.org/1999/xlink" x="0px" y="0px" width="100px"
	 height="100px" viewBox="0 0 100 100" enable-background="new 0 0 100 100" xml:space="preserve">
<g id="Layer_1">
	<path fill-rule="evenodd" clip-rule="evenodd" d="M94.526,93.174H80.012V31.796H19.987v61.378H5.474V22.94L50,6.826L94.526,22.94
		V93.174z M63.529,78.659c2.706-0.738,3.937-1.845,3.937-5.289c0-2.829-0.492-5.166-1.23-8.487l-2.706-11.315
		c-0.123-0.738-0.983-1.353-1.722-1.476v-0.123c0.615-0.246,1.477-0.738,1.477-1.968c0-1.353-0.861-2.214-2.215-2.214H40.528
		c-4.182,0-6.149,1.599-6.396,3.936l-1.477,14.391c-0.246,1.353,0.492,2.091,1.6,2.46l2.706,0.984l1.845,22.386
		c0.123,0.861,0.492,1.23,1.229,1.23h4.92l-0.737-11.439h-1.477c-1.106,0-1.599-0.492-1.476-1.476l0.861-10.455
		c0.123-1.354,0.737-2.092,1.845-2.338c2.337-0.491,4.797-0.368,4.797-0.368s2.706-0.123,4.92,0.368
		c1.107,0.246,1.845,0.861,1.968,2.338l0.861,10.455c0.123,0.983-0.492,1.476-1.476,1.476h-1.477l-0.738,11.193
		c0.123,0.123,0.369,0.246,0.615,0.246h4.183c0.983,0,1.229-0.738,1.229-1.23l1.107-12.3L63.529,78.659z M45.817,45.326
		c0.492-0.861,0.615-4.182,0.615-6.027c0-0.861,0-1.23-0.369-1.599c-0.861-0.738-2.091-1.107-3.198-1.107
		c-0.983,0-2.091,0.369-2.952,1.107c-0.368,0.369-0.368,0.861-0.368,1.722c0,1.845,0.122,5.043,0.614,5.904
		c0.246,0.492,1.107,0.984,2.706,0.984C44.588,46.31,45.571,45.818,45.817,45.326z M51.229,64.76
		c0.246-0.861,0.492-3.321,0.492-4.674c0-0.861-0.123-1.23-0.369-1.353c-0.738-0.369-1.722-0.615-2.46-0.615
		c-0.861,0-1.845,0.246-2.46,0.615c-0.246,0.123-0.369,0.615-0.369,1.476c0,1.353,0.123,3.69,0.369,4.552
		c0.246,0.245,1.107,0.737,2.337,0.737C50,65.498,50.983,65.006,51.229,64.76z M58.363,45.572c0.369-0.984,0.492-4.059,0.492-5.904
		c0-1.107,0-1.476-0.369-1.845c-0.983-0.738-2.091-1.107-3.075-1.107c-1.106,0-2.214,0.369-3.074,1.107
		c-0.369,0.369-0.615,0.738-0.615,1.599c0,1.845,0.369,5.166,0.738,6.15c0.246,0.369,1.229,1.107,2.951,1.107
		C57.134,46.679,58.117,45.941,58.363,45.572z"/>
</g>
<g id="_x3C_Layer_x3E_">
</g>
</svg>
