<?xml version="1.0" encoding="utf-8"?>
<!-- Generator: Adobe Illustrator 17.0.0, SVG Export Plug-In . SVG Version: 6.00 Build 0)  -->
<!DOCTYPE svg PUBLIC "-//W3C//DTD SVG 1.1//EN" "http://www.w3.org/Graphics/SVG/1.1/DTD/svg11.dtd">
<svg version="1.1" xmlns="http://www.w3.org/2000/svg" xmlns:xlink="http://www.w3.org/1999/xlink" x="0px" y="0px" width="100px"
	 height="100px" viewBox="0 0 100 100" enable-background="new 0 0 100 100" xml:space="preserve">
<g id="Layer_1">
	<path d="M57.687,60.147c5.043,2.952,8.61,8.61,8.61,15.006c0,9.963-8.487,18.45-18.327,18.45c-9.963,0-17.958-8.487-17.958-18.45
		c0-6.643,3.321-12.3,8.61-15.375V15.744c0-5.289,4.182-9.348,9.471-9.348c5.166,0,9.594,4.059,9.594,9.348V60.147z M50.43,67.159
		V15.252h-4.551v51.784c-3.69,0.983-6.273,4.305-6.273,8.241c0,4.797,3.69,8.855,8.487,8.855c4.674,0,8.733-4.059,8.733-8.855
		C56.827,71.463,53.998,68.142,50.43,67.159z M69.988,15.375H61.87v7.257h8.118V15.375z M69.988,32.595H61.87v7.257h8.118V32.595z
		 M69.988,49.815H61.87v7.257h8.118V49.815z"/>
</g>
<g id="_x3C_Layer_x3E_">
</g>
</svg>
