<?xml version="1.0" encoding="utf-8"?>
<!-- Generator: Adobe Illustrator 17.0.0, SVG Export Plug-In . SVG Version: 6.00 Build 0)  -->
<!DOCTYPE svg PUBLIC "-//W3C//DTD SVG 1.1//EN" "http://www.w3.org/Graphics/SVG/1.1/DTD/svg11.dtd">
<svg version="1.1" xmlns="http://www.w3.org/2000/svg" xmlns:xlink="http://www.w3.org/1999/xlink" x="0px" y="0px" width="100px"
	 height="100px" viewBox="0 0 100 100" enable-background="new 0 0 100 100" xml:space="preserve">
<g id="Layer_1">
	<path d="M93.05,89.374v1.476H6.95v-1.476L39.053,53.95h20.295L93.05,89.374z M18.758,19.018c0-4.797,4.059-8.733,8.856-8.733
		c2.583,0,4.92,1.107,6.642,2.952c2.091-1.845,4.797-2.952,7.749-2.952c3.567,0,6.888,1.6,8.979,4.183
		c1.599-1.477,3.69-2.338,6.027-2.338c4.797,0,8.733,3.813,8.856,8.61c3.198,2.214,5.289,6.027,5.289,10.086
		c0,6.396-5.535,12.424-12.546,12.424h-0.861c-1.23,3.443-4.551,5.903-8.364,5.903c-4.797,0-8.856-3.936-8.856-8.855
		c0-2.829,1.353-5.289,3.567-7.012c-0.738,0.123-1.353,0.246-2.091,0.246c-4.551,0-8.61-2.706-10.455-6.519
		c-1.23,0.492-2.583,0.86-3.936,0.86C22.817,27.873,18.758,23.938,18.758,19.018z"/>
</g>
<g id="_x3C_Layer_x3E_">
</g>
</svg>
