<?xml version="1.0" encoding="utf-8"?>
<!-- Generator: Adobe Illustrator 17.0.0, SVG Export Plug-In . SVG Version: 6.00 Build 0)  -->
<!DOCTYPE svg PUBLIC "-//W3C//DTD SVG 1.1//EN" "http://www.w3.org/Graphics/SVG/1.1/DTD/svg11.dtd">
<svg version="1.1" xmlns="http://www.w3.org/2000/svg" xmlns:xlink="http://www.w3.org/1999/xlink" x="0px" y="0px" width="100px"
	 height="100px" viewBox="0 0 100 100" enable-background="new 0 0 100 100" xml:space="preserve">
<g id="Layer_1">
	<path fill-rule="evenodd" clip-rule="evenodd" d="M7.934,25.563c-1.476,0-2.46-1.107-2.46-2.46c0-1.23,0.984-2.461,2.46-2.461
		c1.23,0,2.46,1.23,2.46,2.461C10.394,24.456,9.164,25.563,7.934,25.563z M71.402,38.232c3.321,5.412,5.412,13.407,7.011,21.033
		c0.123,0.737,0.369,1.353,1.476,1.353c0.861,0,1.23-1.229,1.107-1.845c-1.353-7.257-3.444-15.129-6.765-20.91h0.492
		c9.348,0,12.915,9.471,13.653,13.899c0.246,1.229,1.23,2.091,2.091,2.091c2.091,0,2.091-2.829,1.968-3.813
		c-1.107-5.289-6.519-16.604-17.712-16.604c-1.23,0-2.337,0.123-3.444,0.368c-1.968-2.214-4.182-3.812-6.888-4.305
		c5.043-6.15,11.562-9.963,19.926-11.316c0.984-0.123,2.46-0.983,2.46-2.46c0-1.476-1.476-2.46-2.46-2.337
		c-10.947,1.477-20.049,6.889-26.322,16.729c-6.519,2.829-10.086,12.546-11.439,23.985c-3.567-20.541-13.161-30.382-30.381-32.596
		c-1.23-0.123-2.46,1.107-2.46,2.337c0,1.477,1.23,2.214,2.46,2.46c14.022,2.214,22.017,10.947,25.584,28.045h-1.107
		C37.946,46.35,33.518,40.2,26.261,40.2c-9.225,0-14.76,12.546-15.867,17.343c-0.369,1.477,0,2.583,0.861,2.583
		c0.615,0,1.23-0.368,1.476-1.353c0.738-3.198,5.904-15.375,13.53-15.375c5.535,0,9.348,5.043,11.808,11.562L6.458,89.769v1.477
		h86.101v-1.477L59.225,54.713C61.562,46.596,64.883,39.954,71.402,38.232z M7.442,65.415c0,1.354,1.23,2.46,2.706,2.46
		c1.23,0,2.46-1.106,2.46-2.46c0-1.229-1.23-2.583-2.46-2.583C8.672,62.832,7.442,64.185,7.442,65.415z M45.572,33.066
		c1.353,0,2.583-1.107,2.583-2.46c0-1.23-1.23-2.46-2.583-2.46s-2.583,1.229-2.583,2.46C42.989,31.959,44.219,33.066,45.572,33.066z
		 M48.893,54.345h0.738c1.107-7.381,2.952-13.653,5.535-18.942C51.722,39.338,49.877,46.35,48.893,54.345z M62.546,31.836
		c-4.059,5.904-7.011,13.53-8.733,22.51h0.984c2.952-9.103,7.257-16.852,13.899-19.681C66.974,32.943,64.883,31.959,62.546,31.836z
		 M77.798,65.784c0,1.354,1.353,2.46,2.706,2.46c1.23,0,2.46-1.106,2.46-2.46c0-1.229-1.23-2.46-2.46-2.46
		C79.151,63.324,77.798,64.554,77.798,65.784z M91.697,56.559c-1.476,0-2.706,1.353-2.706,2.583c0,1.353,1.23,2.46,2.706,2.46
		c1.23,0,2.46-1.107,2.46-2.46C94.157,57.912,92.927,56.559,91.697,56.559z M92.066,17.199c1.353,0,2.46-1.23,2.46-2.46
		c0-1.477-1.107-2.583-2.46-2.583s-2.583,1.106-2.583,2.583C89.483,15.968,90.713,17.199,92.066,17.199z"/>
</g>
<g id="_x3C_Layer_x3E_">
</g>
</svg>
