<?xml version="1.0" encoding="utf-8"?>
<!-- Generator: Adobe Illustrator 17.0.0, SVG Export Plug-In . SVG Version: 6.00 Build 0)  -->
<!DOCTYPE svg PUBLIC "-//W3C//DTD SVG 1.1//EN" "http://www.w3.org/Graphics/SVG/1.1/DTD/svg11.dtd">
<svg version="1.1" xmlns="http://www.w3.org/2000/svg" xmlns:xlink="http://www.w3.org/1999/xlink" x="0px" y="0px" width="100px"
	 height="100px" viewBox="0 0 100 100" enable-background="new 0 0 100 100" xml:space="preserve">
<g id="Layer_1">
	<path d="M91.205,84.194v9.349H8.795v-9.349h18.327c-5.044-5.166-8.241-12.054-8.241-19.926c0-14.761,10.578-31.98,10.578-41.82
		c0-5.166-0.861-7.626-1.969-9.226l1.723-2.583c2.829,0.984,10.947,5.166,10.947,14.269c0,8.486-9.964,26.199-9.964,39.237
		c0,11.685,8.61,19.803,19.927,19.803c11.808,0,19.68-8.364,19.68-18.942c0-10.823-9.963-16.112-9.963-27.306l1.477-6.766h3.074
		c2.706,9.226,16.729,19.435,16.729,35.794c0,6.642-2.829,12.792-7.503,17.466H91.205z M40.16,9.533l2.091-3.075
		c10.086,3.197,15.006,9.963,14.883,19.434c-0.123,12.301-11.07,27.43-11.07,38.623c0,2.583,1.846,4.428,4.06,4.428
		c2.091,0,3.812-1.722,3.812-4.305c0-2.215-1.599-3.69-3.812-3.937l2.583-7.749c4.92,1.107,12.546,3.936,12.546,12.546
		s-6.273,14.638-15.129,14.638c-8.118,0-15.375-5.535-15.375-15.99c0-12.301,11.069-29.767,11.069-41.82
		C45.817,16.051,42.743,11.5,40.16,9.533z"/>
</g>
<g id="_x3C_Layer_x3E_">
</g>
</svg>
