<?xml version="1.0" encoding="utf-8"?>
<!-- Generator: Adobe Illustrator 17.0.0, SVG Export Plug-In . SVG Version: 6.00 Build 0)  -->
<!DOCTYPE svg PUBLIC "-//W3C//DTD SVG 1.1//EN" "http://www.w3.org/Graphics/SVG/1.1/DTD/svg11.dtd">
<svg version="1.1" xmlns="http://www.w3.org/2000/svg" xmlns:xlink="http://www.w3.org/1999/xlink" x="0px" y="0px" width="100px"
	 height="100px" viewBox="0 0 100 100" enable-background="new 0 0 100 100" xml:space="preserve">
<g id="Layer_1">
	<path d="M78.659,21.402l-0.246,41.451C78.29,83.517,67.466,93.604,50.737,93.604c-17.835,0-29.396-13.161-29.396-34.194V39.729
		h1.968c4.674,0,7.257,3.075,7.257,6.396v8.979l2.952,3.198V17.958c0-3.32,1.968-5.412,4.674-5.412s4.551,2.092,4.551,5.412v31.488
		h2.829V11.685c0-3.198,1.846-5.289,4.675-5.289c2.46,0,4.428,2.091,4.428,5.289v37.761h2.829v-33.21
		c0-3.198,2.091-5.289,4.797-5.289c2.46,0,4.428,2.091,4.428,5.289l-0.123,33.21h2.829V21.402c0-3.321,2.214-5.289,4.429-5.289
		C76.322,16.113,78.659,18.081,78.659,21.402z"/>
</g>
<g id="_x3C_Layer_x3E_">
</g>
</svg>
