<?xml version="1.0" encoding="utf-8"?>
<!-- Generator: Adobe Illustrator 17.0.0, SVG Export Plug-In . SVG Version: 6.00 Build 0)  -->
<!DOCTYPE svg PUBLIC "-//W3C//DTD SVG 1.1//EN" "http://www.w3.org/Graphics/SVG/1.1/DTD/svg11.dtd">
<svg version="1.1" xmlns="http://www.w3.org/2000/svg" xmlns:xlink="http://www.w3.org/1999/xlink" x="0px" y="0px" width="100px"
	 height="100px" viewBox="0 0 100 100" enable-background="new 0 0 100 100" xml:space="preserve">
<g id="Layer_1">
	<path d="M59.717,44.281v26.69c0,1.23-0.861,1.969-2.091,1.969H33.641l5.781-6.396h-4.429L13.714,86.962l3.198-14.021H7.811
		c-1.107,0-2.092-0.738-2.092-1.969v-26.69c0-1.23,0.984-2.092,2.092-2.092h49.815C58.856,42.189,59.717,43.051,59.717,44.281z
		 M64.637,56.581h7.749l14.637,19.926l-3.32-19.926h7.38c1.722,0,3.198-1.23,3.198-2.706V15.99c0-1.599-1.477-2.952-3.198-2.952
		H20.849c-1.6,0-2.952,1.354-2.952,2.952v21.156h44.649c1.229,0,2.091,0.861,2.091,2.091V56.581z"/>
</g>
<g id="_x3C_Layer_x3E_">
</g>
</svg>
