<?xml version="1.0" encoding="utf-8"?>
<!-- Generator: Adobe Illustrator 17.0.0, SVG Export Plug-In . SVG Version: 6.00 Build 0)  -->
<!DOCTYPE svg PUBLIC "-//W3C//DTD SVG 1.1//EN" "http://www.w3.org/Graphics/SVG/1.1/DTD/svg11.dtd">
<svg version="1.1" xmlns="http://www.w3.org/2000/svg" xmlns:xlink="http://www.w3.org/1999/xlink" x="0px" y="0px" width="100px"
	 height="100px" viewBox="0 0 100 100" enable-background="new 0 0 100 100" xml:space="preserve">
<g id="Layer_1">
	<path d="M50,26.63L26.629,50V28.844L50,5.474l23.37,23.37V50L50,26.63z M73.125,93.05V55.289c0-0.861-0.738-1.477-1.6-1.477h-7.749
		c-0.86,0-1.476,0.615-1.476,1.477v29.028h-1.845L49.016,55.289c-0.246-0.738-1.476-1.477-2.337-1.477H28.475
		c-0.861,0-1.477,0.615-1.477,1.477V93.05c0,0.861,0.615,1.477,1.477,1.477h7.749c0.86,0,1.599-0.615,1.599-1.477V64.022h1.723
		L50.984,93.05c0.246,0.738,1.354,1.477,2.214,1.477h18.327C72.386,94.526,73.125,93.911,73.125,93.05z"/>
</g>
<g id="_x3C_Layer_x3E_">
</g>
</svg>
