<?xml version="1.0" encoding="utf-8"?>
<!-- Generator: Adobe Illustrator 17.0.0, SVG Export Plug-In . SVG Version: 6.00 Build 0)  -->
<!DOCTYPE svg PUBLIC "-//W3C//DTD SVG 1.1//EN" "http://www.w3.org/Graphics/SVG/1.1/DTD/svg11.dtd">
<svg version="1.1" xmlns="http://www.w3.org/2000/svg" xmlns:xlink="http://www.w3.org/1999/xlink" x="0px" y="0px" width="100px"
	 height="100px" viewBox="0 0 100 100" enable-background="new 0 0 100 100" xml:space="preserve">
<g id="Layer_1">
</g>
<g id="_x3C_Layer_x3E_">
	<g>
		<path d="M23.063,90.222V11.993c0-4.551,2.459-6.52,6.149-6.52h41.206c4.797,0,6.519,1.969,6.519,6.52v78.229
			c0,2.952-1.722,4.305-4.429,4.305H26.875C25.153,94.526,23.063,93.174,23.063,90.222z M68.696,17.405H31.303
			c-0.738,0-1.476,0.615-1.476,1.845v58.549c0,0.738,0.614,1.353,1.353,1.353h37.516c0.492,0,1.6-0.614,1.6-1.353V19.25
			C70.295,18.144,69.68,17.405,68.696,17.405z M43.358,10.148c-0.984,0-1.6,0.491-1.6,1.353c0,0.738,0.615,1.6,1.6,1.6h13.283
			c0.861,0,1.6-0.861,1.6-1.6c0-0.861-0.738-1.353-1.6-1.353H43.358z M45.817,87.023c0,2.092,1.969,4.06,4.06,4.06
			c2.46,0,4.06-1.968,4.06-4.06c0-2.214-1.6-4.059-4.06-4.059C47.786,82.965,45.817,84.81,45.817,87.023z"/>
	</g>
</g>
</svg>
