<?xml version="1.0" encoding="utf-8"?>
<!-- Generator: Adobe Illustrator 17.0.0, SVG Export Plug-In . SVG Version: 6.00 Build 0)  -->
<!DOCTYPE svg PUBLIC "-//W3C//DTD SVG 1.1//EN" "http://www.w3.org/Graphics/SVG/1.1/DTD/svg11.dtd">
<svg version="1.1" xmlns="http://www.w3.org/2000/svg" xmlns:xlink="http://www.w3.org/1999/xlink" x="0px" y="0px" width="100px"
	 height="100px" viewBox="0 0 100 100" enable-background="new 0 0 100 100" xml:space="preserve">
<g id="Layer_1">
	<path d="M43.973,43.973h7.872v8.118h-7.872v4.797c0,4.552,2.337,7.012,12.423,7.012c14.392,0,21.895-5.658,21.895-20.05
		c0-16.358-9.84-23.493-27.184-23.493c-18.942,0-29.397,8.364-29.397,28.659c0,20.787,12.055,30.628,33.211,30.628
		c8.364,0,15.867-1.969,21.894-4.675v7.135c-6.272,2.337-14.391,4.428-22.263,4.428c-24.231,0-41.205-10.947-41.205-37.639
		c0-23.247,15.006-35.424,37.761-35.424c21.402,0,35.548,10.947,35.548,30.381c0,17.098-12.178,28.045-31.611,28.045
		c-14.884,0-21.648-6.52-21.648-14.515v-3.198C33.395,48.032,36.593,43.973,43.973,43.973z M55.534,59.594V36.962H38.807v-8.118
		h17.22c7.135,0,10.086,2.952,10.086,8.487v13.038C66.112,56.396,63.652,59.594,55.534,59.594z"/>
</g>
<g id="_x3C_Layer_x3E_">
</g>
</svg>
