<?xml version="1.0" encoding="utf-8"?>
<!-- Generator: Adobe Illustrator 17.0.0, SVG Export Plug-In . SVG Version: 6.00 Build 0)  -->
<!DOCTYPE svg PUBLIC "-//W3C//DTD SVG 1.1//EN" "http://www.w3.org/Graphics/SVG/1.1/DTD/svg11.dtd">
<svg version="1.1" xmlns="http://www.w3.org/2000/svg" xmlns:xlink="http://www.w3.org/1999/xlink" x="0px" y="0px" width="100px"
	 height="100px" viewBox="0 0 100 100" enable-background="new 0 0 100 100" xml:space="preserve">
<g id="Layer_1">
	<path d="M93.358,49.939c0,24.969-19.558,43.419-43.419,43.419c-24.354,0-43.297-20.049-43.297-43.419
		c0-24.108,19.065-43.297,43.297-43.297C74.169,6.642,93.358,25.338,93.358,49.939z M14.391,49.939
		c0,19.188,16.359,35.424,35.671,35.424c19.68,0,35.547-15.252,35.547-35.424c0-19.558-15.744-35.548-35.547-35.548
		C30.135,14.391,14.391,30.997,14.391,49.939z M36.532,54.859v-9.595h10.455V34.072H35.301c-8.487,0-10.824,3.812-10.824,9.348
		v13.284c0,5.412,3.075,9.348,10.455,9.348h11.686V54.859H36.532z M64.453,54.859v-9.595h10.455V34.072H63.223
		c-8.487,0-10.824,3.812-10.824,9.348v13.284c0,5.412,3.074,9.348,10.455,9.348h11.685V54.859H64.453z"/>
</g>
<g id="_x3C_Layer_x3E_">
</g>
</svg>
