<?xml version="1.0" encoding="utf-8"?>
<!-- Generator: Adobe Illustrator 17.0.0, SVG Export Plug-In . SVG Version: 6.00 Build 0)  -->
<!DOCTYPE svg PUBLIC "-//W3C//DTD SVG 1.1//EN" "http://www.w3.org/Graphics/SVG/1.1/DTD/svg11.dtd">
<svg version="1.1" xmlns="http://www.w3.org/2000/svg" xmlns:xlink="http://www.w3.org/1999/xlink" x="0px" y="0px" width="100px"
	 height="100px" viewBox="0 0 100 100" enable-background="new 0 0 100 100" xml:space="preserve">
<g id="Layer_1">
	<path d="M5.935,47.108V37.012c0-4.733,1.998-7.992,9.255-7.992h15.249v9.569H16.242V55.1C8.249,55.1,5.935,52.261,5.935,47.108z
		 M7.618,61.515v9.57h15.25c6.31,0,8.939-3.366,8.939-7.993v-9.675c0-5.048-1.893-7.993-10.307-7.993v16.091H7.618z M48.528,61.515
		h-2.314V28.914c-8.413,0-10.306,2.944-10.306,7.992v26.186c0,4.627,2.629,7.993,8.939,7.993h3.681V61.515z M53.786,71.086
		c7.992,0,10.306-2.84,10.306-7.993V36.907c0-4.733-1.998-7.992-9.255-7.992h-3.365v9.569h2.314V71.086z M78.5,55.1V38.589h14.198
		V29.02h-15.25c-7.256,0-9.255,3.26-9.255,7.992v10.096C68.193,52.261,70.507,55.1,78.5,55.1z M69.877,61.515v9.57h15.249
		c6.31,0,8.939-3.366,8.939-7.993v-9.675c0-5.048-1.893-7.993-10.306-7.993v16.091H69.877z"/>
</g>
<g id="_x3C_Layer_x3E_">
</g>
</svg>
