<?xml version="1.0" encoding="utf-8"?>
<!-- Generator: Adobe Illustrator 17.0.0, SVG Export Plug-In . SVG Version: 6.00 Build 0)  -->
<!DOCTYPE svg PUBLIC "-//W3C//DTD SVG 1.1//EN" "http://www.w3.org/Graphics/SVG/1.1/DTD/svg11.dtd">
<svg version="1.1" xmlns="http://www.w3.org/2000/svg" xmlns:xlink="http://www.w3.org/1999/xlink" x="0px" y="0px" width="100px"
	 height="100px" viewBox="0 0 100 100" enable-background="new 0 0 100 100" xml:space="preserve">
<g id="Layer_1">
	<path d="M21.709,60.701c0.369,0.369,0.369,1.107,0,1.476l-2.583,2.461c-0.123,0.245-0.369,0.368-0.737,0.368
		c-0.246,0-0.492-0.123-0.738-0.368c-7.626-7.75-11.932-18.205-11.932-29.028c0-10.947,4.306-21.033,11.932-29.028
		c0.246-0.246,0.492-0.369,0.738-0.369c0.368,0,0.614,0.123,0.737,0.369l2.583,2.46c0.369,0.492,0.369,1.106,0,1.476
		c-6.519,6.643-10.332,15.375-10.332,25.093C11.377,45.08,15.068,54.06,21.709,60.701z M22.694,35.609
		c0-7.012,2.706-13.53,7.626-18.45c0.246-0.246,0.369-0.492,0.369-0.738s-0.123-0.615-0.369-0.738L27.86,13.1
		c-0.246-0.123-0.492-0.246-0.738-0.246c-0.369,0-0.614,0.123-0.737,0.246c-6.273,6.273-9.349,14.515-9.349,22.51
		c0,8.24,3.075,16.235,9.349,22.509c0.123,0.246,0.368,0.246,0.737,0.246c0.246,0,0.492,0,0.738-0.246l2.46-2.583
		c0.369-0.369,0.369-0.984,0-1.476C25.4,49.139,22.694,42.62,22.694,35.609z M38.93,23.678c0.492-0.369,0.492-0.983,0-1.476
		l-2.46-2.46c-0.246-0.246-0.492-0.369-0.738-0.369s-0.615,0.123-0.738,0.369c-4.305,4.182-6.642,9.84-6.642,15.867
		c0,6.026,2.337,11.685,6.642,15.867c0.123,0.245,0.492,0.368,0.738,0.368s0.492-0.123,0.738-0.368l2.46-2.46
		c0.246-0.246,0.369-0.492,0.369-0.738s-0.123-0.615-0.369-0.738c-3.321-3.321-4.92-7.503-4.797-11.931
		C34.133,31.304,35.732,26.876,38.93,23.678z M49.754,27.614c-4.798,0-8.487,3.689-8.487,8.363c0,3.937,2.46,7.135,6.027,8.118
		v49.692h4.92V44.096c3.443-0.983,5.903-4.182,5.903-8.118C58.118,31.304,54.428,27.614,49.754,27.614z M65.006,19.742
		c-0.123-0.246-0.492-0.369-0.738-0.369c-0.246,0-0.492,0.123-0.738,0.369l-2.46,2.46c-0.491,0.492-0.491,1.106,0,1.476
		c3.198,3.198,4.798,7.626,4.798,11.932c0.122,4.428-1.477,8.609-4.798,11.931c-0.246,0.123-0.369,0.492-0.369,0.738
		s0.123,0.492,0.369,0.738l2.46,2.46c0.246,0.245,0.492,0.368,0.738,0.368c0.246,0,0.615-0.123,0.738-0.368
		c4.305-4.183,6.642-9.841,6.642-15.867C71.648,29.582,69.311,23.924,65.006,19.742z M73.617,13.1
		c-0.123-0.123-0.369-0.246-0.738-0.246c-0.246,0-0.492,0.123-0.738,0.246l-2.46,2.583c-0.246,0.123-0.369,0.492-0.369,0.738
		s0.123,0.492,0.369,0.738c4.92,4.92,7.626,11.438,7.626,18.45c0,7.011-2.706,13.529-7.626,18.45c-0.369,0.491-0.369,1.106,0,1.476
		l2.46,2.583c0.246,0.246,0.492,0.246,0.738,0.246c0.369,0,0.615,0,0.738-0.246c6.272-6.273,9.348-14.269,9.348-22.509
		C82.964,27.614,79.889,19.373,73.617,13.1z M82.349,6.581c-0.246-0.246-0.492-0.369-0.738-0.369c-0.368,0-0.614,0.123-0.737,0.369
		l-2.583,2.46c-0.369,0.492-0.369,1.106,0,1.476c6.519,6.643,10.332,15.375,10.332,25.093c0,9.471-3.69,18.45-10.332,25.092
		c-0.369,0.369-0.369,1.107,0,1.476l2.583,2.461c0.123,0.245,0.369,0.368,0.737,0.368c0.246,0,0.492-0.123,0.738-0.368
		c7.626-7.75,11.932-18.205,11.932-29.028C94.281,24.662,89.975,14.576,82.349,6.581z"/>
</g>
<g id="_x3C_Layer_x3E_">
</g>
</svg>
