<?xml version="1.0" encoding="utf-8"?>
<!-- Generator: Adobe Illustrator 17.0.0, SVG Export Plug-In . SVG Version: 6.00 Build 0)  -->
<!DOCTYPE svg PUBLIC "-//W3C//DTD SVG 1.1//EN" "http://www.w3.org/Graphics/SVG/1.1/DTD/svg11.dtd">
<svg version="1.1" xmlns="http://www.w3.org/2000/svg" xmlns:xlink="http://www.w3.org/1999/xlink" x="0px" y="0px" width="100px"
	 height="100px" viewBox="0 0 100 100" enable-background="new 0 0 100 100" xml:space="preserve">
<g id="Layer_1">
	<path d="M26.384,74.662h-9.349c-7.38,0-10.455-3.937-10.455-9.349V34.686c0-5.904,2.214-9.348,12.055-9.348v38.13h7.749V74.662z
		 M32.534,74.662c9.349,0,12.055-3.321,12.055-9.349V34.686c0-5.535-2.337-9.348-10.824-9.348h-8.979v11.192h7.749V74.662z
		 M52.829,25.338v49.323h12.055V25.338H52.829z M93.419,74.662v-2.337L80.75,49.938l11.193-24.6H78.783l-10.947,24.6l13.653,24.724
		H93.419z"/>
</g>
<g id="_x3C_Layer_x3E_">
</g>
</svg>
