<?xml version="1.0" encoding="utf-8"?>
<!-- Generator: Adobe Illustrator 17.0.0, SVG Export Plug-In . SVG Version: 6.00 Build 0)  -->
<!DOCTYPE svg PUBLIC "-//W3C//DTD SVG 1.1//EN" "http://www.w3.org/Graphics/SVG/1.1/DTD/svg11.dtd">
<svg version="1.1" xmlns="http://www.w3.org/2000/svg" xmlns:xlink="http://www.w3.org/1999/xlink" x="0px" y="0px" width="100px"
	 height="100px" viewBox="0 0 100 100" enable-background="new 0 0 100 100" xml:space="preserve">
<g id="Layer_1">
	<path d="M95.11,50.052c0,24.87-20.188,45.058-45.058,45.058c-24.974,0-45.161-20.188-45.161-45.058
		c0-24.974,20.188-45.161,45.161-45.161C74.922,4.891,95.11,25.078,95.11,50.052z M47.45,47.346v9.365l15.505-5.619
		c2.289-0.833,4.162-3.018,4.162-6.139v-9.261c0-3.538-2.289-6.868-8.117-6.868H41.519c-4.891,0-8.533,3.329-8.533,6.868v6.868
		h8.221l1.353-4.266h14.984v5.723L47.45,47.346z M42.56,48.907c-6.972,1.977-9.574,4.37-9.574,9.261v11.862h34.132v-9.469H42.56
		V48.907z"/>
</g>
<g id="_x3C_Layer_x3E_">
</g>
</svg>
