<?xml version="1.0" encoding="utf-8"?>
<!-- Generator: Adobe Illustrator 17.0.0, SVG Export Plug-In . SVG Version: 6.00 Build 0)  -->
<!DOCTYPE svg PUBLIC "-//W3C//DTD SVG 1.1//EN" "http://www.w3.org/Graphics/SVG/1.1/DTD/svg11.dtd">
<svg version="1.1" xmlns="http://www.w3.org/2000/svg" xmlns:xlink="http://www.w3.org/1999/xlink" x="0px" y="0px" width="100px"
	 height="100px" viewBox="0 0 100 100" enable-background="new 0 0 100 100" xml:space="preserve">
<g id="Layer_1">
	<path d="M50.052,95.109c-24.974,0-45.162-20.188-45.162-45.058c0-24.974,20.188-45.161,45.162-45.161
		c24.869,0,45.057,20.188,45.057,45.161C95.109,74.922,74.922,95.109,50.052,95.109z M39.542,28.824c-6.243,0-7.7,3.329-7.7,6.972
		v27.263c0,3.643,2.081,6.972,7.388,6.972h12.279v-9.469H41.415V38.294H56.4l1.457,4.162l8.116,0.104v-6.764
		c0-3.643-2.809-6.972-8.116-6.972H39.542z M46.306,45.473v9.47H56.4v15.088c8.116,0,9.573-2.913,9.573-6.972V51.82
		c0-3.538-1.457-6.347-7.7-6.347H46.306z"/>
</g>
<g id="_x3C_Layer_x3E_">
</g>
</svg>
