<?xml version="1.0" encoding="utf-8"?>
<!-- Generator: Adobe Illustrator 17.0.0, SVG Export Plug-In . SVG Version: 6.00 Build 0)  -->
<!DOCTYPE svg PUBLIC "-//W3C//DTD SVG 1.1//EN" "http://www.w3.org/Graphics/SVG/1.1/DTD/svg11.dtd">
<svg version="1.1" xmlns="http://www.w3.org/2000/svg" xmlns:xlink="http://www.w3.org/1999/xlink" x="0px" y="0px" width="100px"
	 height="100px" viewBox="0 0 100 100" enable-background="new 0 0 100 100" xml:space="preserve">
<g id="Layer_1">
	<path d="M50.052,95.109c-24.974,0-45.162-20.188-45.162-45.058c0-24.974,20.188-45.161,45.162-45.161
		c24.869,0,45.057,20.188,45.057,45.161C95.109,74.922,74.922,95.109,50.052,95.109z M47.971,28.824v9.47h9.365v22.269H33.507v2.497
		c0,3.643,1.977,6.972,7.388,6.972h19.042c6.243,0,7.701-3.329,7.701-6.972V35.796c0-3.643-2.081-6.972-7.388-6.972H47.971z
		 M52.342,53.902v-9.574H43.08V28.824c-8.117,0-9.574,2.913-9.574,6.972V46.93c0,3.538,1.457,6.972,7.701,6.972H52.342z"/>
</g>
<g id="_x3C_Layer_x3E_">
</g>
</svg>
