<svg xmlns="http://www.w3.org/2000/svg" viewBox="0 0 100 100"><title>01_Man_v15</title><g id="icons"><path d="M60.82,25.34c2.71.61,3.57,2,4.31,5.16l5.53,24.73a3.3,3.3,0,0,1-3.32,3.93,3.12,3.12,0,0,1-3.07-2.46L59.59,36.29c-.12-.5-.24-.62-.49-.62s-.37.12-.37.62l3.08,54.36c.12,2.22-.5,3.45-2.46,3.45H56.52c-2.09,0-2.46-1.85-2.59-2.83l-2.58-30H48.77l-2.58,30c-.13,1-.5,2.83-2.59,2.83H40.77c-2,0-2.58-1.23-2.46-3.45l3.08-54.36c0-.5-.25-.62-.37-.62s-.37.12-.49.62L35.73,56.7a3,3,0,0,1-2.95,2.46,3.38,3.38,0,0,1-3.45-3.93L34.87,30.5c.74-3.19,1.6-4.55,4.3-5.16A51.9,51.9,0,0,1,50,24.11,50.19,50.19,0,0,1,60.82,25.34ZM55.16,8c.5.5.87,1,.87,2.71,0,3-.37,7.75-1.11,9-.25.86-2.22,2-4.92,2s-4.55-1.11-4.8-2c-.74-1.23-1.11-6-1.11-9,0-1.72.37-2.21.87-2.71A6.89,6.89,0,0,1,50,5.9,7.16,7.16,0,0,1,55.16,8Z"/></g></svg>