<svg xmlns="http://www.w3.org/2000/svg" viewBox="0 0 100 100"><title>03_Assembly_point_v15</title><g id="icons"><path d="M7.64,89.94l1.23-8.73c.5-3.81,1.85-4.92,4.93-5.66a60.75,60.75,0,0,1,11.31-1.11,80.2,80.2,0,0,1,11.44,1.11c3.08.61,4.18,2.09,4.8,5.66l1.6,9.1a3.76,3.76,0,0,1-3.69,4.18H11.09C8.14,94.49,7.28,92.65,7.64,89.94ZM20.07,69.52a48,48,0,0,1-1.23-10.21,3,3,0,0,1,1-2.58,7.53,7.53,0,0,1,5.54-2,6.56,6.56,0,0,1,5.16,2c.5.49,1,1.11,1,3a55.56,55.56,0,0,1-1.23,9.84c-.25,1-2.22,2.22-5.17,2.22C22.53,71.74,20.44,70.51,20.07,69.52ZM41.22,26.23A8.72,8.72,0,0,0,50,34.71a8.5,8.5,0,0,0,8.48-8.48,8.85,8.85,0,0,0-6.39-8.49V5.81A20.94,20.94,0,0,1,70.87,26.6a20.22,20.22,0,0,1-3.08,10.82L51.19,65H48.73L32.12,37.42A20.82,20.82,0,0,1,47.87,5.81V17.74A9.08,9.08,0,0,0,41.22,26.23ZM57.09,89.94l1.23-8.73c.49-3.81,1.85-5,4.8-5.66a78.8,78.8,0,0,1,11.44-1.11A64.32,64.32,0,0,1,86,75.55c3,.61,4.18,2.09,4.79,5.66l1.6,9.1a3.76,3.76,0,0,1-3.69,4.18H60.41C57.58,94.49,56.72,92.65,57.09,89.94ZM69.51,69.52c-.61-1.35-1.23-6.89-1.23-10.21a3,3,0,0,1,1-2.58,7.52,7.52,0,0,1,5.53-2,6.73,6.73,0,0,1,5.17,2c.49.49.86,1.11.86,3a46.7,46.7,0,0,1-1.11,9.84c-.37,1-2.21,2.22-5.16,2.22C72,71.74,70,70.51,69.51,69.52Z"/></g></svg>