<svg xmlns="http://www.w3.org/2000/svg" viewBox="0 0 100 100"><title>04_Disabled_v15</title><g id="icons"><path d="M66.1,70C66.1,83.18,55.28,94.37,42,94.37A24.29,24.29,0,0,1,27.6,50.46l-2.33-8.24a6.31,6.31,0,0,1,1.59-6.52l8.86-8.61c1.6-1.6,3-2.22,6-1.85l7.25,1a5.63,5.63,0,0,1,4.56,4.92l2.21,15.13A26,26,0,0,0,42,42.46H38.43l-.5-5.53-1.35-.37-3.93,3.93A1.38,1.38,0,0,0,32.28,42L35,54c.37,1.73,0,3.57-2.09,4.06a2.62,2.62,0,0,1-2.7-.73A17,17,0,0,0,24.65,70,17.35,17.35,0,1,0,42,52.67c-1.47,0-2.58.12-2.58.12l-.74-6.88A24,24,0,0,1,66.1,70ZM42.24,21.18c-.74-1.47-1.11-6.52-1.11-9.47,0-1.35,0-2,.62-2.46a8,8,0,0,1,4.79-1.84,6.34,6.34,0,0,1,4.92,1.84c.5.49.5,1.35.5,2.71,0,2.95-.37,7.75-1.11,9.22-.25.5-1.6,1.6-4.31,1.6C44.08,22.78,42.48,21.68,42.24,21.18ZM81.35,84.53l-4.92,1.11c-1.35.24-2.21,0-2.7-1.85L69.42,66.2c-1-4.06-1.84-7.5-4.06-10.82h6.52c3.2,0,5.66,1.84,6.15,4.55l4.31,23.25A1.13,1.13,0,0,1,81.35,84.53Z"/></g></svg>