<svg xmlns="http://www.w3.org/2000/svg" viewBox="0 0 100 100"><title>05_Group_meeting_v15</title><g id="icons"><path d="M45,44.43c0,5.29,1.1,6.89,2.7,7.38v1.35A62.64,62.64,0,0,0,41,54c-1.72.37-2.71,1.23-3,3.69L36.72,74.93a2.19,2.19,0,0,0,1.84,2.59l2.95.74,1.11,16.35H32.16a2,2,0,0,1-2-2L27.74,62.51l-4.43-1.23c-2.58-.74-3.69-3-3.2-6.15l4.31-25.21C25,26.47,28,23.64,34.5,23.64h31c6.52,0,9.47,2.83,10.08,6.28l4.31,25.21c.49,3.2-.62,5.41-3.2,6.15l-4.43,1.23L69.8,92.65a2,2,0,0,1-2,2H57.38l1.11-16.35,2.95-.74a2.19,2.19,0,0,0,1.84-2.59L61.93,57.71c-.24-2.46-1.23-3.32-3-3.69a62.64,62.64,0,0,0-6.64-.86V51.81c1.6-.49,2.7-2.09,2.7-7.38,0-3.44-1.35-5-5-5S45,41,45,44.43ZM36.1,19.71c-.74-1.36-1-6.28-1-9.23,0-1.35,0-2.21.61-2.7a8.22,8.22,0,0,1,4.68-2,5.93,5.93,0,0,1,4.92,2,3.26,3.26,0,0,1,.73,2.46c0,2.95-.37,8.11-1.1,9.47-.37.61-1.85,1.6-4.43,1.6S36.47,20.32,36.1,19.71Zm20.42-.13c-.74-1.35-1.72-6.27-1.72-9.34a3.76,3.76,0,0,1,.73-2.71A7.18,7.18,0,0,1,60.7,5.81a7.47,7.47,0,0,1,4.55,1.72c.62.49.62,1.6.62,3,0,3.08-.74,7.75-1.48,9.1a4.54,4.54,0,0,1-3.93,1.73A4.75,4.75,0,0,1,56.52,19.58Z"/></g></svg>