<svg xmlns="http://www.w3.org/2000/svg" viewBox="0 0 100 100"><title>08_Evacuate_v15</title><g id="icons"><path d="M91.7,94.34H86.16a4,4,0,0,1-3.69-2.7L74.85,70.85,69.93,70l-.74,5.9a3.19,3.19,0,0,1-3.08,3h-13L51,72.45H61.32l.61-3.82L53.69,67c-2.95-.62-3.69-4.31-1.84-6.89L55,55.84a22.88,22.88,0,0,0,4.06-9l3.45-16c-3.32,0-5.91,3-6.89,7.75l-1.72,8.24a3.13,3.13,0,0,1-3.08,2.83h-.12a9.47,9.47,0,0,1-2.59-.49L42.5,47.48,41.27,55.1,55.53,94.34H49.88a4.42,4.42,0,0,1-3.69-2.7L33.89,60.52h-2V75.77a3,3,0,0,1-3.08,3H8.3V74.91a2.83,2.83,0,0,1,3.08-2.71H23.8V56.33a17.22,17.22,0,0,1,.37-3.56l4.67-21.9c-3.32,0-6,3-7,7.75l-1.72,8.24A3.12,3.12,0,0,1,17,49.69a3.22,3.22,0,0,1-3-4.06l1.73-8C17.9,28,23.43,23.86,34.38,23.86c7.26,0,11.56,3.32,10.21,11.2l-1,5.78,5,1.47,1-4.67c2.09-9.47,7.63-13.78,18.45-13.78,6.27,0,11.69,3.32,10.09,11.2l-1.48,6.76,12.06,3.32a3.4,3.4,0,0,1,2.58,3.2,3.3,3.3,0,0,1-3.08,3.44,9.47,9.47,0,0,1-2.58-.49l-9.35-2.7ZM34.62,19.56c-.73-1.48-1.1-6.52-1.1-9.47a3,3,0,0,1,.74-2.46,6.82,6.82,0,0,1,9.59,0c.62.49.62,1.35.62,2.7,0,2.95-.25,7.75-.87,9.23-.37.61-1.84,1.6-4.55,1.6C36.59,21.16,35,20.17,34.62,19.56Zm32.6.37c-.74-1.48-1.11-6.65-1.11-9.72A2.71,2.71,0,0,1,67,7.75a6.83,6.83,0,0,1,9.84,0c.5.49.5,1.23.5,2.71,0,3.07-.13,8-.87,9.47-.36.73-1.84,1.72-4.55,1.72S67.59,20.66,67.22,19.93Z"/></g></svg>