<svg xmlns="http://www.w3.org/2000/svg" viewBox="0 0 100 100"><title>10_Drop_cover_hold_v15</title><g id="icons"><path d="M94.53,32v7.25H89.24V74.32c-.49-1.11-2.22-2.09-4.43-2.09h-3v-33H18.14v50.8H10.76V39.26H5.47V32ZM52.58,71.12C51.11,72,46.31,72.6,41,72.84l2.83,1.48c3.2,1.72,5.41,4.18,5.41,8,0,4.8-3.69,7.51-8.85,7.75H22.94V87c0-2.95,2-4.8,5.41-4.8H40.41V81.7L30.32,77c-3.69-1.73-6-4.31-6-8.61,0-3.69,3.57-8,11.32-8.86l11.56-1.35ZM84.07,82.68H65.25c-3.81,0-5.16-2-7.13-6.52L50.49,58c6.4-.86,9.6,1,11.69,5.9l4.55,11H84.07c2.83,0,4.68,1.6,4.68,3.81C88.75,81.33,86.65,82.68,84.07,82.68ZM67.83,70l-3.19-7.74a39.92,39.92,0,0,1-.13-4.06c0-1.48.13-2.09.87-2.71a8.65,8.65,0,0,1,5.41-2,7.58,7.58,0,0,1,4.92,2c.73.62.73,1.6.73,3,0,3.32-.36,8.49-1,10-.37.86-1.84,2-4.8,2A9.21,9.21,0,0,1,67.83,70ZM89.24,83.18v6.88H81.86V85.27h3C87,85.27,88.75,84.28,89.24,83.18Z"/></g></svg>