<svg xmlns="http://www.w3.org/2000/svg" viewBox="0 0 100 100"><title>11_Evacuate_vertical_v15</title><g id="icons"><path d="M83.21,61.16V94.37H16.79V83.3H38.93V72.23H49a2.57,2.57,0,0,1-2.83-2.46L44.83,57.22,30.57,47.63c-1.48-1-2.46-2.58-1.85-6l2.71-15.5c-2.46,0-4.19,1.6-4.92,6.15L25.4,38.77A2.39,2.39,0,0,1,22.94,41a2.62,2.62,0,0,1-2.34-3.2l1.11-6.27C23.06,24,27.37,20.45,36.47,20.45c5.78,0,8.36,2.58,7.26,9l-3,16.49,7.88,5.41a4.33,4.33,0,0,1,2.21,3.32l2,17.59h8.24V61.16ZM26.51,74c-1.73-.49-2.71-1.48-1.73-4.06L31.3,52.3l5.29,3.32L29.83,74.93Zm10-57.19c-.62-1.11-.86-5.17-.86-7.51a2.49,2.49,0,0,1,.61-2,5.37,5.37,0,0,1,7.63,0c.49.5.49,1.11.49,2.22,0,2.34.12,6.27-.61,7.26C43.36,17.25,42.25,18,40,18,38.07,18,36.72,17.25,36.47,16.76Zm7.87,23.37L45.2,35l6.89,1.84a2.75,2.75,0,0,1,2.09,2.59A2.39,2.39,0,0,1,51.85,42a14.29,14.29,0,0,1-2.22-.37Z"/></g></svg>