<svg xmlns="http://www.w3.org/2000/svg" viewBox="0 0 100 100"><title>12_Evacuate_downstairs_v15</title><g id="icons"><path d="M20.48,64H40.16V75.06H59.84V86.13H79.52v8.48h-59ZM40.41,54l-10,7.75-1.35-2A3,3,0,0,1,30,55.75l7.26-5.66ZM33.52,28V38.4c0,1.73-.86,2.83-2.34,2.83S29,40.13,29,38.4V27.33c0-4.42,3.56-7.75,8.36-7.75s8.24,3.33,8.36,7.75l.25,16.24,3.94,6.76c.73,1.36,1.1,1.6,1.1,3.33V73h-2.7c-1.85,0-3.08-1-3.2-3.32l-.49-14.27L36.22,43.82A7.43,7.43,0,0,1,34.87,39V26.23C34,26.23,33.52,26.84,33.52,28Zm4.3-11.19c-.61-1.11-.86-5.05-.86-7.38a2.82,2.82,0,0,1,.62-2.1,5.07,5.07,0,0,1,3.81-1.35A5.07,5.07,0,0,1,45.2,7.28c.49.5.49,1.23.49,2.34,0,2,.13,6-.61,7.14-.37.49-1.48,1.23-3.69,1.23C39.42,18,38.07,17.25,37.82,16.76ZM56.89,38a2.64,2.64,0,0,1,1,2.1,2.1,2.1,0,0,1-2.21,2.09A5.52,5.52,0,0,1,52.58,41l-4.42-3V32ZM79.52,57.35v4.79L57.13,48.24V43.45Z"/></g></svg>