<svg xmlns="http://www.w3.org/2000/svg" viewBox="0 0 100 100"><title>14_Use_gloves_v15</title><g id="icons"><path d="M90.07,37.82,85.65,51a37,37,0,0,1-3.82,8c-2.21,3.44-3,8.24-2.83,12.05l.25,13.78v.12c0,5-7.87,7.63-16.23,7.63-7.75,0-14.52-2.22-15.63-6.52-1,4.42-8.11,6.52-15.86,6.64-8.37.12-16.12-2.71-16.12-7.75v-.12l.13-18.7c0-4.55-6.28-11.32-6.28-17.83V43.11c0-4.67.74-6.52,1.85-8.86l2.83-5.78A9.25,9.25,0,0,1,17.75,24a7.46,7.46,0,0,1,1.48-.61V16.54a1.72,1.72,0,0,0-1.85-1.72,1.82,1.82,0,0,0-2,1.72v5.29A34.83,34.83,0,0,0,11.11,29V16.54a6,6,0,0,1,6.27-6,5.34,5.34,0,0,1,2.34.5,6.53,6.53,0,0,1,6.15-3.69,6.64,6.64,0,0,1,5.41,2.83,5.64,5.64,0,0,1,2.83-.74c3,0,6.52,2.58,6.52,6v23H36.2V15.56a1.88,1.88,0,0,0-2.09-1.85,1.83,1.83,0,0,0-2,1.72v23h-4.3V13.22a1.91,1.91,0,0,0-2-1.72c-1.35,0-2.09.74-2.09,1.72v11c2.58,1.35,4.06,4.43,2.33,9.22l-2.95,8.49V45.2H18.73V41.14l3.2-9.22c.25-.86,1-3.2-.61-4.19C20.09,27,19,28.1,18.12,30l-3,6.15c-.86,1.84-1.36,3.2-1.36,7v5c0,5.05,6.28,11.32,6.28,18v13a28.41,28.41,0,0,1,11.44-2.09c5.78,0,11.07,1.23,13.9,3.69V61.68c0-5.9-2.34-14.14-2.34-25V19.49a6.28,6.28,0,0,1,6.27-6.15,5.34,5.34,0,0,1,2.34.5,7,7,0,0,1,6-3.94,5.66,5.66,0,0,1,2.83.61A6.93,6.93,0,0,1,66,7.56a7.13,7.13,0,0,1,6,3.69,8.13,8.13,0,0,1,2.46-.37A6.39,6.39,0,0,1,80.85,17v9c-1.35.37-3.2,1.85-4.55,4.43V17.16a1.85,1.85,0,1,0-3.69,0V38.44H68.06V13.84a2,2,0,0,0-2.09-2,1.94,1.94,0,0,0-2,2l.12,24.6H59.69l-.12-21.28V16.3a1.93,1.93,0,0,0-1.84-2.1,1.89,1.89,0,0,0-1.85,2.1V38.44H51.21l.12-19.19a1.9,1.9,0,0,0-2-1.6,2,2,0,0,0-2,1.84V36.71c0,11.57,2.34,18,2.34,25l.12,18.58c2.83-2.09,7.63-3.2,13.17-3.2A28,28,0,0,1,74.7,79.27l-.12-8.12c0-5,1.1-10.45,3.44-14.26a35.5,35.5,0,0,0,3.32-7l4.55-13.4c.74-2.34.5-3.32-.49-3.82-1.23-.61-2.46.13-3.57,2L75.19,46.43l-3.81-2.09L77.77,32.9c2.46-4.43,6.65-5.53,9.48-4.18C90.81,30.44,91.43,33.88,90.07,37.82Z"/></g></svg>