<svg xmlns="http://www.w3.org/2000/svg" viewBox="0 0 100 100"><title>16_Sneeze_in_elbow_v15</title><g id="icons"><path d="M92.8,51.63l-8.11,8.12L71.53,50.89l1.47-2c1.11-1.6,3.08-2,5-.62l6.15,4.18L86.65,50c-1.72-4.06-7-9.47-15.62-9.47H67.59L61.44,44.5l6.15,8.85L27.12,83.74a15.17,15.17,0,0,1-8.73,3.32C11.5,87.06,7.2,82.75,7.2,76.23a150.47,150.47,0,0,1,3-28.9c3.32-1.72,10-3.69,15.37-4.92a147.55,147.55,0,0,1-1.1-17.47c0-4.06,1-5.41,2.82-7.13,4.43-4.19,10.21-5.42,15.26-5.42s10.21,1,14.63,5.42c1.36,1.47,2.34,3.07,2.34,8.24,0,2.46-.12,5.53-.37,8.49l-6.64,3.93c.25-2.83.25-5.78.25-7.75A13.07,13.07,0,0,1,44.1,33.8c-4.31,0-7.63-4.43-11-4.43a5.94,5.94,0,0,0-4.31,1.72c0,8.36,2,17.22,4.19,24.36L66.24,34.9h4.92a21.16,21.16,0,0,1,14.76,5.29c3.32,2.71,5.9,6.64,6.64,10ZM69.93,56.8,81.61,70,79.15,85.21s-17.22-8.73-32.47-8.73c-1.35,0-2.71.12-2.71.12Z"/></g></svg>