<svg xmlns="http://www.w3.org/2000/svg" viewBox="0 0 100 100"><title>17_Temperature_v15</title><g id="icons"><path d="M51.23,75.38a18.51,18.51,0,0,1-37,0,19.15,19.15,0,0,1,6.52-14.14V20.65a12,12,0,1,1,24,0v8.11l-4.92,7.75V20.65a7.07,7.07,0,1,0-14.14,0V63.7l-1,.73a13.78,13.78,0,0,0-5.53,10.95,13.59,13.59,0,0,0,27.18,0,13.76,13.76,0,0,0-5.54-10.95l-1-.73V48.2l4.92-2.34V61.24A17.94,17.94,0,0,1,51.23,75.38ZM31.06,54.1l3.44-1.6v16a7.16,7.16,0,0,1,5.29,6.89,7.07,7.07,0,1,1-8.73-6.89ZM34.5,39l-3.44,1.6V35.9l3.44-1.6Zm-3.44,6.28,3.44-1.6v4.67l-3.44,1.6ZM85.79,27a8.84,8.84,0,0,1-8.85,9H58.61a8.09,8.09,0,0,1-3.44-.74L37.7,45.37,50.12,29.75A9.81,9.81,0,0,1,49.75,27a8.93,8.93,0,0,1,8.86-9H76.94A8.84,8.84,0,0,1,85.79,27Z"/></g></svg>