<svg xmlns="http://www.w3.org/2000/svg" viewBox="0 0 100 100"><title>19_Disinfectant_v15</title><g id="icons"><path d="M33.27,12.82H50.12v7.26L36.1,25v9.84H17.4V24.38l9.72-9.47A9.08,9.08,0,0,1,33.27,12.82ZM36.1,37.3c0,8.85,12.42,11.31,12.42,23.24v26h-17v-25H43.6v-1c0-7.62-9-11.31-11.56-18.32H22.32v47h26.2v2.22a3.07,3.07,0,0,1-3.07,2.7H20.23a2.66,2.66,0,0,1-2.83-2.58V37.3ZM47.29,23.4A40.64,40.64,0,0,0,50,38.77H47.29A45.27,45.27,0,0,1,40.4,25.86Zm5.29-10.58h3.69V20.2H52.58Zm13.28,3.44a2.71,2.71,0,1,1-2.7-2.7A2.73,2.73,0,0,1,65.86,16.26Zm9.35-3.93a2.71,2.71,0,1,1-2.7-2.71A2.73,2.73,0,0,1,75.21,12.33Zm0,7.87a2.71,2.71,0,1,1-2.7-2.71A2.73,2.73,0,0,1,75.21,20.2ZM80.13,8.39a2.71,2.71,0,1,1,2.71,2.71A2.73,2.73,0,0,1,80.13,8.39Zm5.41,7.87a2.71,2.71,0,1,1-2.7-2.7A2.73,2.73,0,0,1,85.54,16.26Zm0,8.24a2.71,2.71,0,1,1-2.7-2.7A2.73,2.73,0,0,1,85.54,24.5Z"/></g></svg>