<svg xmlns="http://www.w3.org/2000/svg" viewBox="0 0 100 100"><title>20_Keep_distance_v15</title><g id="icons"><path d="M7.15,51.81l1.23-10c.49-3.82,1.85-5.05,4.8-5.66a63.56,63.56,0,0,1,10.21-.86,52.27,52.27,0,0,1,10.21.86c2.95.61,4.18,2.09,4.8,5.66L40,52.18a3.76,3.76,0,0,1-3.69,4.18H10.47C7.65,56.36,6.78,54.52,7.15,51.81Zm8.37,23.86L24.13,64.6h6.15L21.54,75.67l8.74,11.2H24.13ZM18.35,30c-.62-1.35-1.23-6.89-1.23-10.21a3,3,0,0,1,1-2.58,7.53,7.53,0,0,1,5.54-2,6.72,6.72,0,0,1,5.16,2c.49.49.86,1.1.86,2.95A47.57,47.57,0,0,1,28.56,30c-.37,1-2.22,2.21-5.17,2.21C20.81,32.25,18.84,31,18.35,30Zm15,45.63a2.71,2.71,0,1,1,2.71,2.71A2.73,2.73,0,0,1,33.35,75.67Zm14.15,0a2.71,2.71,0,1,1,2.7,2.71A2.73,2.73,0,0,1,47.5,75.67ZM60,51.81l1.23-10c.5-3.82,1.85-5.05,4.8-5.66a63.56,63.56,0,0,1,10.21-.86,52.27,52.27,0,0,1,10.21.86c3,.61,4.18,2.09,4.8,5.66l1.59,10.33a3.75,3.75,0,0,1-3.68,4.18H63.36C60.54,56.36,59.67,54.52,60,51.81Zm1.6,23.86a2.71,2.71,0,1,1,2.71,2.71A2.73,2.73,0,0,1,61.64,75.67ZM71.24,30C70.62,28.69,70,23.15,70,19.83a3,3,0,0,1,1-2.58,7.53,7.53,0,0,1,5.54-2,6.72,6.72,0,0,1,5.16,2c.49.49.86,1.1.86,2.95A47.57,47.57,0,0,1,81.45,30c-.37,1-2.22,2.21-5.17,2.21C73.7,32.25,71.73,31,71.24,30Zm7.5,45.63L70.13,64.6h6.15L85,75.67,76.28,86.74H70.13Z"/></g></svg>