<svg xmlns="http://www.w3.org/2000/svg" viewBox="0 0 100 100"><title>21_Structural_fire_v15</title><g id="icons"><path d="M11.25,58.49c0-16.73,8.74-31.24,17.22-38.13h2.22a15.56,15.56,0,0,0-1.48,6.27c0,8.49,1.72,15.87,4.92,19.93L22.94,50.37v34.2C17.28,79.4,11.25,69.93,11.25,58.49ZM47.66,41.76,35.61,46c0-11.32,10.08-21.16,10.08-33.09a25.17,25.17,0,0,0-1.23-6.4H46.8c9.84,6.15,21.28,27.68,21.28,42.31V49Zm-8,25.34h16V93.67h-16ZM72.39,50.5l-2.83-.86a21.34,21.34,0,0,0,3.2-11,25.78,25.78,0,0,0-2.22-10h2.22a37.84,37.84,0,0,1,16,30.87c0,14.14-9.6,25.71-16.36,29.76Z"/></g></svg>