<svg xmlns="http://www.w3.org/2000/svg" viewBox="0 0 100 100"><title>22_Wildfire_v15</title><g id="icons"><path d="M11.25,57c0-17.72,10.21-31.61,18.21-38.5h1.6c-.62.86-4.18,10.7-4.18,20.66,0,9.47,2.46,18.45,6,22.76L45.2,61,31.67,72.72v2.09L51.23,73l19.68,1.84V72.72L57.26,61l13,.86V60.42L57.13,48.61l12.55.86a27.64,27.64,0,0,0,2.71-11.68,33.6,33.6,0,0,0-2.46-11.32h1.23A38.67,38.67,0,0,1,88.75,59.19c0,18.21-15.63,32.1-32.48,35.06V80.35a29.21,29.21,0,0,0-10.08-1.6V94.61C28.23,92.65,11.25,76.66,11.25,57Zm23.5-7.63,10.58-.74L33.89,59.44A44.61,44.61,0,0,1,34.75,49.35ZM51.23,30.16,35.36,45.29c3.08-14.88,10-25.34,10-35a13,13,0,0,0-1-4.55h1.48c10.21,6,23.74,22.63,23.74,32.22A22.67,22.67,0,0,1,68,46.64Z"/></g></svg>