<svg xmlns="http://www.w3.org/2000/svg" viewBox="0 0 100 100"><title>24_Warning_volcano_v15</title><g id="icons"><path d="M94.65,85.14a3,3,0,0,1-3.32,3.08H8.92c-2.22,0-3.57-1.11-3.57-3a4.63,4.63,0,0,1,.61-2l1-1.72H30.44L41.27,62.27H58.73L70.17,81.58h23l1,1.72A3.44,3.44,0,0,1,94.65,85.14ZM20.11,76.78H9.66L47.05,10.36a3.19,3.19,0,0,1,5.66,0L90.59,76.78H80.38L49.88,23.89Zm28.17-24.6a5.6,5.6,0,0,1-.62-2.46V49.6h-.37A5.25,5.25,0,0,1,42,44.31,5.33,5.33,0,0,1,47.29,39a5.46,5.46,0,0,1,5.29,5h.74A5.72,5.72,0,0,1,59,49.72a5.62,5.62,0,0,1-5.66,5.53v.62a4,4,0,1,1-8,0A3.92,3.92,0,0,1,48.28,52.18Z"/></g></svg>