<svg xmlns="http://www.w3.org/2000/svg" viewBox="0 0 100 100"><title>25_Warning_sign_v15</title><g id="icons"><path d="M82.23,88.22H8.92c-2.22,0-3.57-1.11-3.57-3a4.63,4.63,0,0,1,.61-2l1.48-2.58H77.92ZM54.8,14.05l-2.34-3.69a3.2,3.2,0,0,0-2.58-1.72,2.91,2.91,0,0,0-2.59,1.72L10,76H20.48ZM49.88,75.67A5.17,5.17,0,1,1,55,70.51,5.21,5.21,0,0,1,49.88,75.67Zm0-13.9c-2.34,0-4.06-1.72-4.31-5.16L45,45.78a4.77,4.77,0,0,1,4.92-4.92A4.91,4.91,0,0,1,55,45.78L54.3,56.61C54.06,60.05,52.34,61.77,49.88,61.77Zm2.21-33.58,35.06,60h4.18a3,3,0,0,0,3.32-3.08,3.44,3.44,0,0,0-.49-1.84L57.26,19Z"/></g></svg>