<svg xmlns="http://www.w3.org/2000/svg" viewBox="0 0 100 100"><title>27_Warning_fire_v15</title><g id="icons"><path d="M94.65,85.14a3,3,0,0,1-3.32,3.08H8.92c-2.22,0-3.57-1.11-3.57-3a4.63,4.63,0,0,1,.61-2l1-1.72H37.82a16.51,16.51,0,0,1-4.55-11.44c0-7.63,3.45-14.76,7.87-18.45h.74c-.37.24-.86,1.6-.86,3.56a15.32,15.32,0,0,0,2.71,9.11c0-5.78,4.67-11.07,4.67-16.85a6.53,6.53,0,0,0-.37-2.1h.62C53.44,48.37,59,57.71,59,64.6v1.11a8,8,0,0,0,2.09-5A13.83,13.83,0,0,0,60,55.38h.62C65.25,58.33,68,65,68,70.51a16.29,16.29,0,0,1-4.43,11.07H93.17l1,1.72A3.44,3.44,0,0,1,94.65,85.14ZM20.11,76.78H9.66L47.05,10.36a3.19,3.19,0,0,1,5.66,0L90.59,76.78H80.38L49.88,23.89Z"/></g></svg>