<svg xmlns="http://www.w3.org/2000/svg" viewBox="0 0 100 100"><title>31_Lockdown_v15</title><g id="icons"><path d="M84.69,48.28V94.16H78.54V52.09L50,39.79,21.46,52.09V94.16H15.31V48.28L50,33ZM35.61,34.63l-6.15,2.7V24.66c0-9.35,8.12-18.82,20.54-18.82,12.18,0,20.54,9.23,20.54,18.82V37.33l-6.15-2.7v-10c0-6.39-5.66-12.91-14.39-12.91S35.61,18.27,35.61,24.66ZM50,48.89,70.54,57.5v34H63.28L61.93,78.91a4.61,4.61,0,0,0-3.69-4.43,37.49,37.49,0,0,0-8.24-1,29.56,29.56,0,0,0-8.24,1,4.86,4.86,0,0,0-3.69,4.43L37,91.45h-7.5V57.5Zm0,9.72c-3.57,0-4.8,2.34-4.8,3.44a32.7,32.7,0,0,0,1,7.63A5,5,0,0,0,50,71.16a5.39,5.39,0,0,0,3.57-1.48c.61-.86,1.1-4.92,1.1-7.38C54.67,61,53.57,58.61,50,58.61Z"/></g></svg>