<svg xmlns="http://www.w3.org/2000/svg" viewBox="0 0 100 100"><title>32_Shelter_v15</title><g id="icons"><path d="M94.28,25.77v6.15L50,14l-44.28,18V25.77L50,7.93ZM19.62,16.3l-6.15,2.58V8.18h6.15ZM13.47,32.41,19.62,30V92.07H13.47ZM68.94,65.74a3.43,3.43,0,0,1-2.21,4.06l-2.09.86-1,20c0,1-.49,1.36-1.35,1.36H54.55l.74-10.95,2-.37c.86-.12,1.35-.74,1.23-1.84l-.86-11.44c-.13-1.73-.86-2.22-2-2.46a27.73,27.73,0,0,0-4.31-.62v-.86c1.11-.37,1.85-1.23,1.85-4.67C53.2,56,52.09,55,49.63,55s-3.57,1-3.57,3.82c0,3.44.74,4.3,1.85,4.67v.86A27.73,27.73,0,0,0,43.6,65c-1.1.24-1.84.73-2,2.46l-.87,11.44c-.12,1.1.37,1.72,1.23,1.84l2,.37.74,10.95H37c-.86,0-1.35-.37-1.35-1.36l-1-20-2.09-.86a3.43,3.43,0,0,1-2.21-4.06l2.09-16.85c.25-2.33,1.72-4.18,6.52-4.18h21.4c4.8,0,6.27,1.85,6.52,4.18ZM40.28,41.88a17.38,17.38,0,0,1-1.1-5.9,3,3,0,0,1,.61-2.09A4.44,4.44,0,0,1,43,32.78a4.44,4.44,0,0,1,3.2,1.11,2.53,2.53,0,0,1,.61,1.84,18.75,18.75,0,0,1-1.11,6.15,3.26,3.26,0,0,1-2.7,1A3.3,3.3,0,0,1,40.28,41.88Zm13.53,0a17.38,17.38,0,0,1-1.1-5.9,3,3,0,0,1,.61-2.09,5.17,5.17,0,0,1,6.4,0,2.53,2.53,0,0,1,.61,1.84,19,19,0,0,1-1.1,6.15,3.3,3.3,0,0,1-2.71,1A3.3,3.3,0,0,1,53.81,41.88Zm32.72-23L80.38,16.3V8.18h6.15ZM80.38,30l6.15,2.46V92.07H80.38Z"/></g></svg>