<svg xmlns="http://www.w3.org/2000/svg" viewBox="0 0 100 100"><title>33_Quarantine_v15</title><g id="icons"><path d="M7,42.07a2.94,2.94,0,0,1,2.83-2.83A2.77,2.77,0,1,1,7,42.07Zm43.3-21.53V92.87H55.2V16.36L9.56,7.13v4.92ZM30.23,47c1.72.49,2.46,1.35,2.83,3.44l2.7,16.48a2.21,2.21,0,1,1-4.3,1L29.37,54.37c0-.37-.13-.5-.37-.5s-.13.13-.13.5l2,36.28c.13,1.48-.37,2.22-1.6,2.22H27.4A1.78,1.78,0,0,1,25.55,91L24,71H22.11L20.39,91a1.75,1.75,0,0,1-1.72,1.85H16.82c-1.35,0-1.84-.74-1.72-2.22l2.09-36.28a.55.55,0,0,0-.25-.5c-.12,0-.37.13-.37.5L14.48,67.9a2,2,0,0,1-2,1.72,2.39,2.39,0,0,1-2.46-2.71l2.82-16.48c.37-2.09,1.11-3.07,2.83-3.44a38.38,38.38,0,0,1,7.14-.86A25.12,25.12,0,0,1,30.23,47ZM10.92,30.26a2.94,2.94,0,0,1,2.83-2.83,2.77,2.77,0,1,1-2.83,2.83Zm15.49,5c.37.37.5.74.5,1.85,0,2-.13,5.16-.62,5.9-.24.62-1.47,1.35-3.44,1.35-1.72,0-3-.73-3.08-1.35-.49-.74-.86-3.94-.86-5.9a2.63,2.63,0,0,1,.62-1.85A4.64,4.64,0,0,1,22.85,34,5,5,0,0,1,26.41,35.3Zm-3.69-8.85a3,3,0,0,1,2.83-2.83,2.77,2.77,0,1,1-2.83,2.83Zm8.74,6.76a2.94,2.94,0,0,1,2.83-2.83,2.77,2.77,0,1,1-2.83,2.83Zm3.44,10.7a3,3,0,0,1,2.83-2.83,2.77,2.77,0,1,1-2.83,2.83ZM87.42,47c1.72.49,2.46,1.35,2.83,3.44L93,66.91a2.21,2.21,0,1,1-4.31,1L86.56,54.37c0-.37-.12-.5-.37-.5s-.12.13-.12.5l2,36.28c.12,1.48-.37,2.22-1.6,2.22H84.59A1.78,1.78,0,0,1,82.75,91l-1.6-20H79.31L77.58,91a1.75,1.75,0,0,1-1.72,1.85H74c-1.36,0-1.85-.74-1.73-2.22l2.09-36.28a.55.55,0,0,0-.24-.5c-.12,0-.37.13-.37.5L71.68,67.9a2,2,0,0,1-2,1.72,2.4,2.4,0,0,1-2.46-2.71l2.83-16.48c.37-2.09,1.11-3.07,2.83-3.44A38.29,38.29,0,0,1,80,46.13,25.12,25.12,0,0,1,87.42,47ZM83.61,35.3c.37.37.49.74.49,1.85,0,2-.12,5.16-.61,5.9C83.24,43.67,82,44.4,80,44.4c-1.72,0-3-.73-3.07-1.35-.49-.74-.86-3.94-.86-5.9a2.69,2.69,0,0,1,.61-1.85A4.66,4.66,0,0,1,80,34,5,5,0,0,1,83.61,35.3Z"/></g></svg>