<svg xmlns="http://www.w3.org/2000/svg" viewBox="0 0 100 100"><title>35_Mobile_info_v15</title><g id="icons"><path d="M57,63.22h5.54V87.33c0,2.83-1.48,3.94-3.94,3.94H17.28A3.73,3.73,0,0,1,14,87.33V14.51c0-4,2-5.78,5.54-5.78h10l1.23,3.69H45.45l1.23-3.69h10c4.31,0,5.91,1.73,5.91,5.78v4.68H20.85a1.71,1.71,0,0,0-1.48,1.6V79.46a1.48,1.48,0,0,0,1.48,1.35H55.41A1.6,1.6,0,0,0,57,79.46ZM86,29.15V53.26a3.29,3.29,0,0,1-3.32,3.2H43.6L35.85,68.39V56.46H30.07a3.29,3.29,0,0,1-3.32-3.2V29.15A3.29,3.29,0,0,1,30.07,26H82.72A3.29,3.29,0,0,1,86,29.15Z"/></g></svg>