<svg xmlns="http://www.w3.org/2000/svg" viewBox="0 0 100 100"><title>36_Chat_v15</title><g id="icons"><path d="M5.49,67.68v-21A4.62,4.62,0,0,1,10,42.09H56.65a4.14,4.14,0,0,1,4.43,4.43V47H10.41V67.68Zm0,4.92,15.86-.12-2.09,9.34,9.23-9.34H56.16V51.93h4.92V73a4.37,4.37,0,0,1-4.55,4.43H30.45L18.65,87.6H14l2.22-10.2H10A4.43,4.43,0,0,1,5.49,73ZM86.3,78.13,72.4,58.58H65.51V39.76a2.13,2.13,0,0,0-2.21-2.22H18.77V19.22a3,3,0,0,1,2.95-3H90.85a3.14,3.14,0,0,1,3.2,3V55.87a3,3,0,0,1-3.2,2.71H83.71l3.2,19.55Z"/></g></svg>