<svg xmlns="http://www.w3.org/2000/svg" viewBox="0 0 100 100"><title>38_Charge_plug_v15</title><g id="icons"><path d="M10.15,61.5H25.77V68H10.15a3.13,3.13,0,0,1-3.08-3.08v-.49A3.1,3.1,0,0,1,10.15,61.5Zm0,18.33H25.77v6.52H10.15a3.11,3.11,0,0,1-3.08-3V82.9A3.12,3.12,0,0,1,10.15,79.83ZM23.92,37.27H19v-24a4.09,4.09,0,0,1,4.06-4h49.7a4.08,4.08,0,0,1,4,4v.87H23.92ZM19,43.05v-.86H71.89V19.06h4.92l7.51,1.23V35.55l-7.51,1.72v5.78a4.09,4.09,0,0,1-4,4.06H23.06A4.1,4.1,0,0,1,19,43.05Zm9.84-5.17V18.45H39.67V37.88ZM92.93,77.74H71.28a16.85,16.85,0,0,1-16.36,13H31.3V57.07H54.92A16.88,16.88,0,0,1,71.28,70H92.93Z"/></g></svg>