<svg xmlns="http://www.w3.org/2000/svg" viewBox="0 0 100 100"><title>39_Wipeout_v15</title><g id="icons"><path d="M91.33,27.12V48.89A114.58,114.58,0,0,1,89,73.37a35.91,35.91,0,0,0-.86,7.13V92.07H83.21V80.5a42.81,42.81,0,0,1,1-8.11,115.71,115.71,0,0,0,2.22-23.5V27.12a2.8,2.8,0,0,0-2.71-2.58A2.71,2.71,0,0,0,81,27.12V51.35H76.08V22.57a2.39,2.39,0,0,0-2.46-2.46,2.59,2.59,0,0,0-2.71,2.34v28.9H66V19.62a2.55,2.55,0,0,0-2.46-2.46,2.72,2.72,0,0,0-2.83,2.46V51.35H55.78V24.05a2.59,2.59,0,1,0-5.17,0V58.12H45.69v-5l-3.32-7.26c-.86-2.09-1.72-3-2.33-3.2a2,2,0,0,0-2-.12c-.62.24-1.72.74-.86,6L41.39,66c1.72,7,12.92,13.53,12.92,19.93v6.15H49.39V85.92c0-2-9.84-11.69-11.81-16.12L22.2,72.88a2.47,2.47,0,0,1-2.83-2l-8-40.1a2.71,2.71,0,1,1,0-5.41A2.66,2.66,0,0,1,14,27.25l27.68-5.54a2.46,2.46,0,0,1-.5-1.6,2.66,2.66,0,0,1,2.71-2.71,2.73,2.73,0,0,1,2.71,2.71c0,.25-.13.37-.13.62a7.9,7.9,0,0,1,6.77-4.19,8.49,8.49,0,0,1,3.07.62,8.4,8.4,0,0,1,2-2.83,7.17,7.17,0,0,1,3.32-1.72,2.91,2.91,0,0,1-.86-2,2.73,2.73,0,0,1,2.71-2.71,2.65,2.65,0,0,1,2.7,2.71,2.79,2.79,0,0,1-.73,2,7.41,7.41,0,0,1,4.79,3.56l9.6-2.09a2.55,2.55,0,0,1,3,1.85l.74,3.69h.24A7.55,7.55,0,0,1,89,21.71,7.75,7.75,0,0,1,91.33,27.12ZM8.67,10.64a2.71,2.71,0,1,1,2.71,2.71A2.73,2.73,0,0,1,8.67,10.64Zm6.52,9.47A2.66,2.66,0,0,1,17.9,17.4a2.71,2.71,0,0,1,0,5.42A2.66,2.66,0,0,1,15.19,20.11Zm6.52-9.47a2.71,2.71,0,1,1,2.71,2.71A2.73,2.73,0,0,1,21.71,10.64Zm6.4,9.47a2.71,2.71,0,1,1,2.7,2.71A2.73,2.73,0,0,1,28.11,20.11Zm6.64-9.47a2.71,2.71,0,1,1,2.7,2.71A2.73,2.73,0,0,1,34.75,10.64Zm13,0a2.65,2.65,0,0,1,2.7-2.71,2.71,2.71,0,1,1,0,5.42A2.65,2.65,0,0,1,47.79,10.64ZM59.23,87H78.29v4.92H59.23Z"/></g></svg>