<svg xmlns="http://www.w3.org/2000/svg" viewBox="0 0 100 100"><title>40_Food_v15</title><g id="icons"><path d="M93.18,22.41c0,7.14-4.92,11.2-14.26,11.2H75.59c-9.34,0-13-3.94-14.39-6.65l-.49-1v-.12l-49.57,1c-3.07,0-4.79-1.6-4.79-4.43s1.72-4.55,4.79-4.55l49.57,1v-.13l.49-.86c1.6-2.7,5-6.64,14.39-6.64h3.33C88.26,11.22,93.18,15.65,93.18,22.41ZM89.74,49.1v1.36a2.4,2.4,0,0,1-2.34,2.09h-77a2.26,2.26,0,0,1-2.09-2.09V49.1A2,2,0,0,1,10.4,47h77A2.14,2.14,0,0,1,89.74,49.1Zm-78,9H86.17c0,18.58-9.34,31.86-26.32,31.86H38.2C20.49,89.94,11.76,76.66,11.76,58.08Z"/></g></svg>