<svg xmlns="http://www.w3.org/2000/svg" viewBox="0 0 100 100"><title>45_Volcano_ashes_v15</title><g id="icons"><path d="M58.61,52.06l33.7,35.42V89H6.21V87.48l32.1-35.42ZM16.42,17.86a8.87,8.87,0,0,1,8.86-8.73A9.22,9.22,0,0,1,32,12.2a11.62,11.62,0,0,1,8.86-4,11.76,11.76,0,0,1,11.31,8.61,13.49,13.49,0,0,1,4.56-.87c.73,0,1.47.13,2.09.13a2.8,2.8,0,0,1,2.83-2.46,2.81,2.81,0,0,1,2.09,4.55A13,13,0,0,1,67.59,22a2.37,2.37,0,0,1,1.6-.61A3,3,0,0,1,72,24.26,2.93,2.93,0,0,1,69.19,27a5.26,5.26,0,0,1,.12,1.36A12.54,12.54,0,0,1,56.89,40.74a8.87,8.87,0,0,1-17.22-3,8.7,8.7,0,0,1,3.07-6.52,9.49,9.49,0,0,1-1.84.12A11.76,11.76,0,0,1,30.44,25a8.45,8.45,0,0,1-5.16,1.72A8.9,8.9,0,0,1,16.42,17.86Zm35.43-9.1a2.94,2.94,0,0,1,2.82-2.83,2.84,2.84,0,0,1,2.71,2.83,2.73,2.73,0,0,1-2.71,2.71A2.84,2.84,0,0,1,51.85,8.76Zm9.84,36.9a3,3,0,0,1,2.7,2.71,2.84,2.84,0,0,1-2.7,2.83,2.78,2.78,0,0,1-2.83-2.83A2.93,2.93,0,0,1,61.69,45.66Zm4.67-36.9a2.94,2.94,0,0,1,2.83-2.83A3,3,0,0,1,72,8.76a2.93,2.93,0,0,1-2.83,2.71A2.84,2.84,0,0,1,66.36,8.76ZM72,40.62a3,3,0,0,1-2.83,2.83,2.78,2.78,0,0,1-2.83-2.83,2.93,2.93,0,0,1,2.83-2.71A3.15,3.15,0,0,1,72,40.62Zm0,15.62a3,3,0,0,1-2.83,2.83,2.78,2.78,0,0,1-2.83-2.83,2.84,2.84,0,0,1,2.83-2.71A3.15,3.15,0,0,1,72,56.24Zm1.35-39.85a2.83,2.83,0,1,1,5.66,0,2.91,2.91,0,0,1-2.71,2.7A3,3,0,0,1,73.37,16.39Zm0,16.36A3,3,0,0,1,76.2,30,3.15,3.15,0,0,1,79,32.75a3,3,0,0,1-2.83,2.82A2.86,2.86,0,0,1,73.37,32.75Zm0,15.62a3,3,0,0,1,2.83-2.71A3.15,3.15,0,0,1,79,48.37,3,3,0,0,1,76.2,51.2,2.86,2.86,0,0,1,73.37,48.37Zm0,15.37a2.83,2.83,0,0,1,5.66,0,2.83,2.83,0,1,1-5.66,0ZM81,8.76a3.05,3.05,0,0,1,3-2.83,2.84,2.84,0,0,1,2.7,2.83A2.73,2.73,0,0,1,84,11.47,3,3,0,0,1,81,8.76Zm0,15.5a3.05,3.05,0,0,1,3-2.83,2.84,2.84,0,0,1,2.7,2.83A2.73,2.73,0,0,1,84,27,3,3,0,0,1,81,24.26Zm0,16.36a2.93,2.93,0,0,1,2.83-2.71,3.14,3.14,0,0,1,2.82,2.71,2.94,2.94,0,0,1-2.82,2.83A2.78,2.78,0,0,1,81,40.62Zm0,15.62a2.85,2.85,0,0,1,2.83-2.71,3.14,3.14,0,0,1,2.82,2.71,2.94,2.94,0,0,1-2.82,2.83A2.78,2.78,0,0,1,81,56.24Zm0,15.37a3,3,0,0,1,3-2.7,2.77,2.77,0,0,1,0,5.53A3.05,3.05,0,0,1,81,71.61Zm7.13-55.22A2.94,2.94,0,0,1,91,13.56a2.86,2.86,0,0,1,2.83,2.83,2.83,2.83,0,0,1-5.66,0Zm5.66,16.36a2.84,2.84,0,0,1-2.71,2.82,2.88,2.88,0,0,1-3-2.82,3.05,3.05,0,0,1,3-2.71A3,3,0,0,1,93.79,32.75Zm0,15.62a2.84,2.84,0,0,1-2.71,2.83,2.89,2.89,0,0,1-3-2.83,3.05,3.05,0,0,1,3-2.71A3,3,0,0,1,93.79,48.37Zm0,15.37a2.84,2.84,0,0,1-2.71,2.83,3.06,3.06,0,0,1-3-2.83,3,3,0,0,1,3-2.7A2.73,2.73,0,0,1,93.79,63.74Zm0,15.62a2.84,2.84,0,0,1-2.71,2.83,3.06,3.06,0,0,1-3-2.83,3,3,0,0,1,3-2.7A2.73,2.73,0,0,1,93.79,79.36Z"/></g></svg>