<svg xmlns="http://www.w3.org/2000/svg" viewBox="0 0 100 100"><title>46_Rain_v15</title><g id="icons"><path d="M92.68,47A13.28,13.28,0,0,1,79.4,60.17H27.49c-11.19,0-20.17-9.71-20.17-20A20.26,20.26,0,0,1,27.61,20.08a19.49,19.49,0,0,1,4.68.61,13.42,13.42,0,0,1,12.79-10,13.25,13.25,0,0,1,13.28,13v.12a24.62,24.62,0,0,1,3.08-.25,17.5,17.5,0,0,1,16,10.46,10.81,10.81,0,0,1,2-.12A13.33,13.33,0,0,1,92.68,47ZM38.93,83.91a3.36,3.36,0,0,1-.86,4.68,3.17,3.17,0,0,1-2,.74,3.56,3.56,0,0,1-2.7-1.48l-8.74-12.3a3.42,3.42,0,0,1,.62-4.67,3.27,3.27,0,0,1,4.79.73Zm21.65,0a3.22,3.22,0,0,1-.74,4.68,3.48,3.48,0,0,1-2,.74A4,4,0,0,1,55,87.85l-8.73-12.3a3.23,3.23,0,0,1,.86-4.67,3.16,3.16,0,0,1,4.68.73Zm21.77,0a3.22,3.22,0,0,1-.74,4.68,4.28,4.28,0,0,1-2,.74,3.56,3.56,0,0,1-2.7-1.48l-8.86-12.3a3.34,3.34,0,0,1,.74-4.67,3.3,3.3,0,0,1,4.8.73Z"/></g></svg>