<svg xmlns="http://www.w3.org/2000/svg" viewBox="0 0 100 100"><title>47_Tsunami_v15</title><g id="icons"><path d="M5.6,56.85c0-17.46,11.68-27.55,25-27.55S52,37.67,52,46.4c0,8.36-5.17,13-10.58,13A10.6,10.6,0,0,1,36.47,58V57.1a3.28,3.28,0,0,0,1-2.46,3.6,3.6,0,0,0-3.81-3.44c-2.46,0-4.8,1.72-4.8,6.76,0,6.15,5.29,9.35,11.93,9.35,10.83,0,16.61-7.87,32-7.87A38.69,38.69,0,0,1,94.4,66.57v22H5.6Zm67-4.3a31.14,31.14,0,0,0-11.07,2.09V38.28l16.36-6.4,16.48,6.4V59.07C92.8,57.71,84.19,52.55,72.63,52.55Z"/></g></svg>