<svg xmlns="http://www.w3.org/2000/svg" viewBox="0 0 100 100"><title>50_Flood_v15</title><g id="icons"><path d="M7.56,69a15.43,15.43,0,0,1,10.83-4.67c5.41,0,8.12,4.67,14.76,4.67,8.12,0,10.21-4.3,17-4.55S59,69,66,69c6.64,0,9-4.67,15.87-4.67A16.06,16.06,0,0,1,92.44,69v6.76a16.11,16.11,0,0,0-10.58-4.67c-6.89,0-9.23,4.67-15.87,4.67-7,0-9.22-4.55-15.87-4.55s-8.85,4.55-17,4.55c-6.64,0-9.35-4.67-14.76-4.67A15.43,15.43,0,0,0,7.56,75.79Zm0,14.15A15.39,15.39,0,0,1,18.39,78.5c5.41,0,8.12,4.68,14.76,4.68,8.12,0,10.21-4.56,17-4.56S59,83.18,66,83.18c6.64,0,9-4.68,15.87-4.68a16.06,16.06,0,0,1,10.58,4.68v6.76a16.06,16.06,0,0,0-10.58-4.67c-6.89,0-9.23,4.67-15.87,4.67-7,0-9.22-4.55-15.87-4.55s-8.85,4.55-17,4.55c-6.64,0-9.35-4.67-14.76-4.67A15.43,15.43,0,0,0,7.56,89.94ZM18.39,56.85a12.26,12.26,0,0,0-1.48.13V20L50,8.14,83.09,20V57.1L81.86,57C75,57,72.63,61.65,66,61.65a12.6,12.6,0,0,1-5.53-1.35V41.36H39.54V60.3a15.39,15.39,0,0,1-6.39,1.35C26.51,61.65,23.8,56.85,18.39,56.85Z"/></g></svg>