<svg xmlns="http://www.w3.org/2000/svg" viewBox="0 0 100 100"><title>53_Alarm_v15</title><g id="icons"><path d="M22.82,34.26a3.72,3.72,0,0,1-5.29,0L9.9,26.63a3.84,3.84,0,0,1,0-5.29,3.57,3.57,0,0,1,5.17,0L22.82,29A3.72,3.72,0,0,1,22.82,34.26ZM73.74,58.49l1.11,16.73v6.64H50v-36H43.85c-4.55,0-9.23,2.33-10.09,13.41L32.53,75.46v6.4H25.15V75.22l1.23-16.73c.74-10.7,5.78-20.05,17.47-20.05H56.27C67.71,38.44,73,47.29,73.74,58.49ZM25.15,87.39h49.7v5.54H25.15Zm21.16-65.8V10.76A3.78,3.78,0,0,1,50,7.07a3.7,3.7,0,0,1,3.69,3.69V21.59A3.71,3.71,0,0,1,50,25.28,3.79,3.79,0,0,1,46.31,21.59ZM90.1,26.88,82.47,34.5a3.69,3.69,0,1,1-5.29-5.16l7.75-7.75a3.79,3.79,0,0,1,5.17,0A3.84,3.84,0,0,1,90.1,26.88Z"/></g></svg>