<svg xmlns="http://www.w3.org/2000/svg" viewBox="0 0 100 100"><title>55_Authority_v15</title><g id="icons"><path d="M65.87,42.8l2.33-5a1.69,1.69,0,0,0-1-2.09L62.55,34a4.13,4.13,0,0,1-1.85-2.22l-2.09-4.67a1.62,1.62,0,0,0-2.21-.74l-4.31,1.85a4.39,4.39,0,0,1-3.07.12l-4.68-2a1.45,1.45,0,0,0-2,.74l-1.84,4.67a3.81,3.81,0,0,1-2.22,2l-4.55,2.09a2,2,0,0,0-.86,2.34l1.72,4.43a4.5,4.5,0,0,1,.5,1.72H11.87V16.73C19.74,11.69,35.49,8,49.39,8,64.51,8,80,11.69,88.13,16.73V44.28H65.62A4.45,4.45,0,0,1,65.87,42.8Zm22.26,6.4c0,23.62-22.39,33.83-35.79,41.94a6.47,6.47,0,0,1-3,.86,6.48,6.48,0,0,1-3-.86C34,83.64,11.87,72,11.87,49.2H35.24A4.28,4.28,0,0,1,35,50.31L32.9,55a1.54,1.54,0,0,0,1,2.09l4.42,1.85a4.52,4.52,0,0,1,2.1,2.21l2.09,4.55a1.72,1.72,0,0,0,2.21.74L49,64.58a4.79,4.79,0,0,1,2.95,0l4.67,2a1.63,1.63,0,0,0,2.09-.86L60.58,61a4.25,4.25,0,0,1,2.21-2L67.34,57a1.55,1.55,0,0,0,.74-2.21L66,50.55a2.75,2.75,0,0,1-.37-1.35Z"/></g></svg>