<svg xmlns="http://www.w3.org/2000/svg" viewBox="0 0 100 100"><title>63_Broadcast_v15</title><g id="icons"><path d="M21.6,10.73a35.61,35.61,0,0,0,0,50.18,1.13,1.13,0,0,1,0,1.48L19,64.85a.75.75,0,0,1-.73.37,1.07,1.07,0,0,1-.74-.37,41.29,41.29,0,0,1,0-58.06,1.07,1.07,0,0,1,.74-.37.75.75,0,0,1,.73.37L21.6,9.25A1.12,1.12,0,0,1,21.6,10.73Zm11.68,38.5-2.46,2.46a.92.92,0,0,1-1.47,0,22.26,22.26,0,0,1,0-31.74.92.92,0,0,1,1.47,0l2.46,2.46a1,1,0,0,1,0,1.48,17.45,17.45,0,0,0-4.79,11.93,15.91,15.91,0,0,0,4.79,11.93.93.93,0,0,1,0,1.48ZM53,43.2,66.37,94H61.45L49.64,48.86,45.58,64h4.06l1.23,5.16H44.23L41.4,80H53.33l1.23,5.16H40.05L37.71,94H32.79L46.2,43.08a7.53,7.53,0,0,1-4.31-6.89,7.62,7.62,0,0,1,7.75-7.63,7.51,7.51,0,0,1,7.63,7.63A7.73,7.73,0,0,1,53,43.2ZM70.55,20a22.29,22.29,0,0,1,0,31.74.92.92,0,0,1-1.47,0l-2.46-2.46a.92.92,0,0,1,0-1.48,15.91,15.91,0,0,0,4.79-11.93,17.23,17.23,0,0,0-4.79-11.93,1,1,0,0,1,0-1.48L69.08,20a.92.92,0,0,1,1.47,0ZM94.17,35.82a41.51,41.51,0,0,1-11.93,29,1.11,1.11,0,0,1-.74.37.75.75,0,0,1-.74-.37l-2.58-2.46a1.13,1.13,0,0,1,0-1.48,35.63,35.63,0,0,0,0-50.18,1.12,1.12,0,0,1,0-1.48l2.58-2.46a.75.75,0,0,1,.74-.37,1.11,1.11,0,0,1,.74.37A41.72,41.72,0,0,1,94.17,35.82Z"/></g></svg>