<svg xmlns="http://www.w3.org/2000/svg" viewBox="0 0 100 100"><title>64_Wifi_v15</title><g id="icons"><path d="M90,43.45a1.51,1.51,0,0,1-1,.12c-.49,0-.49,0-.86-.37-11.07-11-24.6-16.48-38-16.36A55.29,55.29,0,0,0,12,43.08c-.25.37-.62.37-1,.49s-.49-.12-.86-.49l-3.2-3.2a1.11,1.11,0,0,1-.12-1.72C19.49,25.73,34.74,19.46,50,19.46S80.74,25.73,93.17,38a1.69,1.69,0,0,1,.37,1,1.33,1.33,0,0,1-.37,1.1ZM27.11,58.82,23.79,55.5a1,1,0,0,1,.13-1.72c7.75-6.15,16.72-10,25.95-10S68.2,47.63,76.32,53.9a1,1,0,0,1,.12,1.72L73,59.07c-.49.49-1,.49-1.72.12-6.52-5-13.77-8.12-21.15-8.12s-14.89,3.2-21.28,7.87C28.1,59.31,27.61,59.31,27.11,58.82Zm22.88,8a13.44,13.44,0,0,0-9.35,4.3l9.48,9.59,9.22-9.47C56.39,68.29,53.07,66.82,50,66.82Z"/></g></svg>