<svg xmlns="http://www.w3.org/2000/svg" viewBox="0 0 100 100"><title>64_Wifi_v15</title><g id="icons"><path d="M7.44,36.78C19.25,26,34.75,19.43,50,19.43S80.75,26,92.56,36.78a1.1,1.1,0,0,1,0,1.72l-3.94,4.18a1.33,1.33,0,0,1-1.84,0c-10-9-23.5-15-36.78-15s-26.94,6-36.9,15a1.19,1.19,0,0,1-1.72-.12L7.44,38.5A1.1,1.1,0,0,1,7.44,36.78Zm17.1,17.09C31.67,47.6,40.9,43.67,50,43.67s19.43,3.93,25.46,10.2a1.2,1.2,0,0,1,0,1.73l-3.93,4.06a1.35,1.35,0,0,1-1.85,0A30,30,0,0,0,50,51.78a30.52,30.52,0,0,0-19.8,7.88,1.2,1.2,0,0,1-1.73,0L24.54,55.6A1.11,1.11,0,0,1,24.54,53.87Zm17.1,17.22A13.26,13.26,0,0,1,50,68a13,13,0,0,1,8.24,3.07,1.11,1.11,0,0,1,.12,1.73l-7.5,7.38a1.34,1.34,0,0,1-1.84,0l-7.38-7.38A1.1,1.1,0,0,1,41.64,71.09Z"/></g></svg>