<svg xmlns="http://www.w3.org/2000/svg" viewBox="0 0 100 100"><title>65_Help_others_v15</title><g id="icons"><path d="M83.19,69a20.24,20.24,0,1,1-40.47,0A20.09,20.09,0,0,1,51,52.67L50,49l-7-1.6a4.51,4.51,0,0,1-2.83-1.47l-2.46-3-2.34,13.9,8.49,32.23H39.28a2.83,2.83,0,0,1-3-2.21L29.07,60.54H28L25.13,73.33a3.73,3.73,0,0,1-1.23,2L11.23,87l-2-2a3.84,3.84,0,0,1-.87-2.34,3.05,3.05,0,0,1,1-2.21l9.47-9.35,5.78-34.44c.62-3.32,3.08-6.39,7.26-6.39,2.7,0,4.67,1,5.66,2.7l6.76,8.73,4.92,1.11a5.16,5.16,0,0,1,1.35-2.09l7.63-7.13c1.11-1,1.85-1.73,3.44-1.73a17.9,17.9,0,0,1,2.22.25l5.16.74A4.46,4.46,0,0,1,73,36.93l1.85,12.3a22.24,22.24,0,0,0-11.57-3.32,24.67,24.67,0,0,0-7.5,1.35L58,56.12c.62,1.72.13,3.32-1.47,3.93a3.25,3.25,0,0,1-3.32-.74A14.2,14.2,0,0,0,49.24,69a13.72,13.72,0,1,0,13.9-13.9h-1.6l-1.23-6.39a21.51,21.51,0,0,1,2.83-.13A20.21,20.21,0,0,1,83.19,69ZM29.31,26.59c-.61-1.1-1-5.41-1-7.74a2.63,2.63,0,0,1,.62-2.1,5.76,5.76,0,0,1,4.3-1.47,6.09,6.09,0,0,1,3.69,1.47c.49.37.49,1.11.49,2.22,0,2.46-.24,6.4-.73,7.62-.25.62-1.48,1.48-3.7,1.48S29.68,27.21,29.31,26.59Zm34.08,1.85c-.62-1.11-.86-5.41-.86-7.87,0-1.11,0-1.6.49-2.09A5.35,5.35,0,0,1,67.2,17a5.76,5.76,0,0,1,3.93,1.48c.37.37.37,1.1.37,2.33,0,2.46-.24,6.52-.86,7.63-.24.49-1.35,1.35-3.56,1.35S63.63,28.93,63.39,28.44ZM91.55,62.27,89,80.71a1.88,1.88,0,0,1-1.85,1.36H81.71A22.89,22.89,0,0,0,82.57,57h4.06A4.68,4.68,0,0,1,91.55,62.27Z"/></g></svg>