<svg xmlns="http://www.w3.org/2000/svg" viewBox="0 0 100 100"><title>66_Emergency_vehicle_v15</title><g id="icons"><path d="M5.47,41.7H59.59V27.92a2.27,2.27,0,0,1,2.34-2.34H87.64c2,0,3.2.87,3.44,2.22l3.45,18.82h-5L86.78,30.5H64.51V46.62h-59Zm8-11.2h-8V25.58h49.2V30.5h-8V38H41.76V30.5H32.53V38H27.61V30.5H18.39V38H13.47Zm-8,21H94.53v2.7l-2.46.62v7l2.46.74v2.83h-11A14.12,14.12,0,0,0,74.23,62,13.79,13.79,0,0,0,65,65.44H33.52A13.48,13.48,0,0,0,24.42,62a14.73,14.73,0,0,0-9.23,3.45H5.47ZM82.84,70.36H94.53v6H84.81a10.58,10.58,0,0,1-21.16,0H35a10.58,10.58,0,1,1-21.15,0H5.47v-6H15.81a10.54,10.54,0,0,1,17.34,0H65.62a10.42,10.42,0,0,1,17.22,0ZM79.77,21.28H69.93V18.7l.49-2.59C70.79,14,71.77,13,73.74,13H76c2,0,2.83.74,3.32,3.07l.5,2.59Z"/></g></svg>