<svg xmlns="http://www.w3.org/2000/svg" viewBox="0 0 100 100"><title>75_SOS_stencil_v15</title><g id="icons"><path d="M5.87,46.78V36.25c0-4.64,2.26-7.58,7.13-7.58H28.5v9H14.92v17C7.9,54.7,5.87,51.87,5.87,46.78Zm0,15.61H19.45V45.19C26.8,45.19,28.5,48,28.5,53V63.64c0,4.75-1.7,7.8-6.79,7.8H5.87Zm30.55,1.25V36.36c0-5.09,2.15-7.8,9-7.8V62.39H50v9H43.21C38.57,71.44,36.42,68.39,36.42,63.64Zm18.11-26H50v-9h6.45c4.75,0,7.13,3.17,7.13,7.8V63.64c0,5-2.38,7.8-9,7.8Zm17,9.17V36.25c0-4.64,2.26-7.58,7.13-7.58h15.5v9H80.55v17C73.54,54.7,71.5,51.87,71.5,46.78Zm0,15.61H85.08V45.19c7.36,0,9,2.83,9,7.81V63.64c0,4.75-1.69,7.8-6.79,7.8H71.5Z"/></g></svg>