<svg xmlns="http://www.w3.org/2000/svg" viewBox="0 0 100 100"><title>77_NO_stencil_v15</title><g id="icons"><path d="M23.41,29.86l4,5.88V55.21L20.92,45.13v25a1.29,1.29,0,0,1-1.36,1.25H13.11l-1.25-1.25V29.86a1.26,1.26,0,0,1,1.25-1.25h7.81A3,3,0,0,1,23.41,29.86Zm22.74-1.25,1.25,1.25V70.14a1.26,1.26,0,0,1-1.25,1.25H38.34a3.1,3.1,0,0,1-2.48-1.25l-4-5V45.25L38.34,55V29.86a1.36,1.36,0,0,1,1.36-1.25ZM66.41,62.33h8.15v9.06H65.05c-5.32,0-7.69-3.28-7.69-7.81V36.42c0-4.86,1.58-7.81,9-7.81ZM88.14,36.42V63.58c0,5-1.25,7.81-9.06,7.81V37.67H70.94V28.61H79.2C86.32,28.61,88.14,31.78,88.14,36.42Z"/></g></svg>