<svg xmlns="http://www.w3.org/2000/svg" viewBox="0 0 100 100"><title>NNN</title><path d="M7.64,89.3l1.23-8.73c.49-3.81,1.85-4.92,4.92-5.66A61,61,0,0,1,25.11,73.8a79.38,79.38,0,0,1,11.44,1.11c3.08.61,4.18,2.09,4.8,5.66l1.6,9.1a3.76,3.76,0,0,1-3.69,4.18H11.09C8.14,93.85,7.28,92,7.64,89.3ZM20.07,68.88a47.89,47.89,0,0,1-1.23-10.21,3,3,0,0,1,1-2.58,7.53,7.53,0,0,1,5.54-2,6.57,6.57,0,0,1,5.17,2c.49.49,1,1.11,1,3a55.75,55.75,0,0,1-1.23,9.84c-.25,1-2.21,2.21-5.17,2.21C22.53,71.09,20.44,69.86,20.07,68.88Zm12.05-31A18.92,18.92,0,0,1,29,27.06a20.91,20.91,0,0,1,41.82,0,18.93,18.93,0,0,1-3.07,10.82L50,65.44ZM58.44,25.46A8.72,8.72,0,0,0,50,16.73a8.93,8.93,0,0,0-8.73,8.73A8.72,8.72,0,0,0,50,33.95,8.5,8.5,0,0,0,58.44,25.46ZM57.09,89.3l1.23-8.73c.49-3.81,1.84-5,4.8-5.66A78,78,0,0,1,74.56,73.8,64.47,64.47,0,0,1,86,74.91c3,.61,4.18,2.09,4.8,5.66l1.6,9.1a3.76,3.76,0,0,1-3.69,4.18H60.41C57.58,93.85,56.72,92,57.09,89.3ZM69.51,68.88c-.61-1.35-1.23-6.89-1.23-10.21a3,3,0,0,1,1-2.58,7.53,7.53,0,0,1,5.54-2,6.73,6.73,0,0,1,5.17,2c.49.49.86,1.11.86,3a47.33,47.33,0,0,1-1.11,9.84c-.37,1-2.21,2.21-5.17,2.21C72,71.09,70,69.86,69.51,68.88Z"/></svg>