<svg xmlns="http://www.w3.org/2000/svg" viewBox="0 0 100 100"><title>NNN</title><path d="M30.09,92.44,27.26,55.66H24.68c-2.09,0-3.32-1.35-3.08-3.57l2.34-22.51c.49-3.44,3.2-6.15,10-6.15H68.59a3.52,3.52,0,0,1,3.81,3.32A3,3,0,0,1,70.31,30v.25a2.45,2.45,0,0,1,2.21,1.6l5.66,20a6.17,6.17,0,0,1,.25,1.48c0,1.6-1,2.34-2.71,2.34H72.28l3.81,12.92a5.23,5.23,0,0,1,.25,1.35,1.58,1.58,0,0,1-1.72,1.6h-8L65.27,92.44a2.26,2.26,0,0,1-2.21,2H54.44l1.11-17.59H58c1.6,0,2.34-.86,2.21-2.46L58.87,58.12c-.25-2.46-1.23-3.32-3-3.69a37,37,0,0,0-7.63-.86,37,37,0,0,0-7.63.86c-1.72.37-2.71,1.23-3,3.69L36.36,74.35v.25a2,2,0,0,0,2.21,2.21H41L42.14,94.4H32.06A2,2,0,0,1,30.09,92.44ZM34.64,19.5c-.74-1.35-1-6.27-1-9.23a4,4,0,0,1,.62-2.71,6.83,6.83,0,0,1,9.59,0A3.26,3.26,0,0,1,44.6,10c0,3-.37,8.12-1.11,9.47-.37.61-1.84,1.6-4.43,1.6S35,20.11,34.64,19.5Zm17.1,30.26c.49-1,1-5,1-7.26,0-1.11-.25-1.6-.74-2a5.59,5.59,0,0,0-3.81-1.35,5.93,5.93,0,0,0-3.69,1.35c-.49.37-.49,1-.49,2.09,0,2.34.25,6.15.74,7.13.37.62,1.48,1.35,3.57,1.35S51.49,50.37,51.74,49.75ZM54,19.37C53.21,18,52.84,13.1,52.84,10a3.08,3.08,0,0,1,.74-2.46,7,7,0,0,1,5.17-2,6.9,6.9,0,0,1,4.55,2c.61.49.61,1.35.61,2.71,0,3.07-.12,7.75-.86,9.1-.37.74-1.85,1.72-4.55,1.72S54.32,20.11,54,19.37Z"/></svg>