<svg xmlns="http://www.w3.org/2000/svg" viewBox="0 0 100 100"><title>NNN</title><path d="M94.53,21v7.26H89.24V63.41c-.49-1.11-2.21-2.09-4.43-2.09h-3V28.23H18.14V79H10.76V28.23H5.47V21ZM52.58,60.09c-1.48.86-6.27,1.48-11.69,1.6l3,1.6C47,65,49.26,67.59,49.26,71.4c0,4.8-3.69,7.38-8.86,7.63H22.82V76c0-3,2.21-4.8,5.66-4.8H40.41v-.49L30.32,66c-3.69-1.72-6-4.31-6-8.61,0-3.69,3.57-8,11.32-8.86l11.56-1.35ZM83.95,71.65H65.25c-3.81,0-5.17-2-7.13-6.52l-7.63-18.2c6.4-.86,9.59,1,11.69,5.9l4.55,10.95H83.95c2.83,0,4.92,1.6,4.92,3.81C88.87,70.3,86.53,71.65,83.95,71.65ZM67.84,59l-3.2-7.75c-.12-1-.12-2.83-.12-4.06,0-1.48.12-2.09.86-2.71a8.65,8.65,0,0,1,5.41-2,7.56,7.56,0,0,1,4.92,2c.74.62.74,1.6.74,3,0,3.32-.37,8.49-1,10-.37.86-1.85,2-4.8,2A9.28,9.28,0,0,1,67.84,59Zm21.4,13v7H81.86V74.11h3C87,74.11,88.75,73.12,89.24,72Z"/></svg>