<svg xmlns="http://www.w3.org/2000/svg" viewBox="0 0 100 100"><title>NNN</title><path d="M18.76,84.87H38.31V72.82H48.89a3.34,3.34,0,0,1-2.34-2.58L45.08,58.18,30.81,48.71a3.71,3.71,0,0,1-2-3.94L31.55,28l-3.69,1-2.21,12.3A3,3,0,0,1,22.45,44c-1.6,0-2.46-1.72-2.09-3.94l2-12.05c.62-2.83,2-4.06,5.41-4.92l8.86-2.34a14,14,0,0,1,2.58-.37c3.57,0,5.41,2.71,4.67,7l-1.11,6.76,7.87,2.21a2.75,2.75,0,0,1,2.09,2.71,2.55,2.55,0,0,1-2.58,2.71,5.41,5.41,0,0,1-1.23-.25l-7-1.85-1.11,6.4,8.12,5.66a4.53,4.53,0,0,1,2.21,3.32l2,17.71h4.3V60.27H81.24V94.34H18.76Zm6.89-8.36c-2-1.48-2.34-3.2-.62-5.78l10.46-16,5.66,3L27.86,78Zm9.84-59.66c-.49-1.11-.86-5.29-.86-7.63a2.81,2.81,0,0,1,.61-2.09,6,6,0,0,1,7.87,0c.37.49.37,1.11.37,2.21,0,2.46-.12,6.4-.74,7.5-.25.49-1.35,1.35-3.57,1.35A4.74,4.74,0,0,1,35.49,16.85Z"/></svg>