<svg xmlns="http://www.w3.org/2000/svg" viewBox="0 0 100 100"><title>NNN</title><path d="M94.53,5.54V94.46H64.64l7.87-6.15V53.38H63.9c-2.46,0-3.44-.62-5-3.32l-2.34-3.94L52.09,57.2,65.38,87.33H60.46a3.44,3.44,0,0,1-3.07-2L46.68,61.5a1.07,1.07,0,0,0-1-.74c-.61,0-.86.49-.86,1.11V73.19a2.49,2.49,0,0,1-2.58,2.46H25v-3.2l2.71-2.09H38.31V59.78a9.11,9.11,0,0,1,.86-4.18l6.89-16H42.13l-5.66,9.1c-1.11,1.72-1.72,2.46-3.2,2.46a2.19,2.19,0,0,1-1.85-3.32l5.9-9.59c1.48-2.46,3.07-3.81,7.13-3.81H51c4.06,0,6.27,1.6,8,4.55l5.29,9.1h8.24V13.53H28.35V66.42L22.94,70.6v7.26h5.41V88.31l-8,6.15H5.47V5.54ZM54.92,32.84c-.49-1.11-.86-4.92-.86-7.13a2.35,2.35,0,0,1,.62-1.85,5.21,5.21,0,0,1,3.81-1.11,6.41,6.41,0,0,1,3.69,1c.49.37.49,1.11.49,2.21,0,2.21.12,5.9-.61,6.89-.37.49-1.48,1.23-3.69,1.23C56.52,34.07,55.17,33.46,54.92,32.84Z"/></svg>