<svg xmlns="http://www.w3.org/2000/svg" viewBox="0 0 100 100"><title>NNN</title><path d="M93.54,22.76c0,6.89-5.29,10.95-13.65,10.95h-4.3c-9.1,0-12.67-3.69-14-6.4l-.49-1V26.2l-49.82.86c-3.08,0-4.8-1.48-4.8-4.31s1.72-4.43,4.8-4.43l49.82.86v-.12l.49-.86c1.6-2.71,4.92-6.4,14-6.4h4.3C88.25,11.81,93.54,16.24,93.54,22.76ZM90,49v1.6a2.27,2.27,0,0,1-2.21,2.09H10.52a2.13,2.13,0,0,1-2-2.09V49a1.91,1.91,0,0,1,2-2.09H87.76A2,2,0,0,1,90,49ZM12,57.56H86.41c0,16.11-9.47,25.58-23.86,30.63H36C21.46,83.15,12,73.68,12,57.56Z"/></svg>