<svg xmlns="http://www.w3.org/2000/svg" viewBox="0 0 100 100"><title>NNN</title><path d="M26.12,31.3,17.63,19.62a3.84,3.84,0,0,1,.86-5.17,3.86,3.86,0,0,1,5.17.86L32.15,27a3.74,3.74,0,0,1-.86,5.17A3.86,3.86,0,0,1,26.12,31.3Zm47.6,26.94L74.83,76v16H25.14V76l1.23-18c.74-6.77,2.34-11.44,5-14.76,3-3.57,7-5.29,12.42-5.29H56.26c5.41,0,9.47,1.72,12.42,5.29,2.71,3.32,4.31,8,5,14.76ZM32.52,80H50V45.33H43.83c-4.55,0-8.73,1.11-10.09,13.41L32.52,76.2ZM46.29,26.26V11.75A3.78,3.78,0,0,1,50,8.06a3.7,3.7,0,0,1,3.69,3.69V26.26A3.7,3.7,0,0,1,50,30,3.78,3.78,0,0,1,46.29,26.26Zm36-7L73.84,30.94a3.74,3.74,0,0,1-5.17.86,3.86,3.86,0,0,1-.86-5.17l8.49-11.69a3.86,3.86,0,0,1,5.17-.86A3.74,3.74,0,0,1,82.33,19.25Z"/></svg>