<svg xmlns="http://www.w3.org/2000/svg" viewBox="0 0 100 100"><title>NNN</title><path d="M5.35,86.22a4.52,4.52,0,0,1,.62-2L47,12.55a3.18,3.18,0,0,1,5.66,0L94.28,84.26a3.54,3.54,0,0,1,.37,1.85,3,3,0,0,1-3.32,3.07H8.92C6.7,89.18,5.35,87.95,5.35,86.22Zm44.53-6.64-3.69-16,1.6-7.5a3,3,0,0,0-3.08-3.81h-3.2c-1.85,0-2.83.62-3.2,1.72L36,61.25c-.62,2-.37,3.2,1.35,4.06l1,.49L37,71.34,33,75a1.27,1.27,0,0,0-.49,1A1.5,1.5,0,0,0,33,77.12l1.48,1.6,5.9-5.41a1.47,1.47,0,0,0,.62-1l1.11-5.54a.37.37,0,0,1,.74,0L45.57,78.6a1.24,1.24,0,0,0,1.35,1Zm-3.2-29.4a15.55,15.55,0,0,0,.61-3.94c0-.49,0-.86-.25-1.11A2.75,2.75,0,0,0,45,44.4,3.72,3.72,0,0,0,43,45a1.3,1.3,0,0,0-.49,1.23,15.56,15.56,0,0,0,.61,3.94c.12.37.62.62,1.85.62S46.56,50.55,46.68,50.18Zm18.57,29.4-.37-7.26a4.83,4.83,0,0,0-.37-1.72l-3.57-8.24.61-5.9c.37-3.07-1.23-4.06-3.57-4.06H55.9c-2.21,0-3.32,1.23-3.57,2.34l-3,11.93.86,3.44,2.71.25-2,2.83,1.23,4.92,4.92-7.5,3.2.25.62,1.48.49,6a1.16,1.16,0,0,0,1.23,1.23ZM59.1,50.18a15.53,15.53,0,0,0,.62-3.94c0-.49,0-.86-.25-1.11a2.75,2.75,0,0,0-2.09-.74,3.72,3.72,0,0,0-2,.62,1.29,1.29,0,0,0-.49,1.23,15.53,15.53,0,0,0,.62,3.94c.12.37.61.62,1.85.62S59,50.55,59.1,50.18Z"/></svg>