<svg xmlns="http://www.w3.org/2000/svg" viewBox="0 0 100 100"><title>NNN</title><path d="M5.35,86.22a4.52,4.52,0,0,1,.62-2L47,12.55a3.18,3.18,0,0,1,5.66,0L94.28,84.26a3.54,3.54,0,0,1,.37,1.85,3,3,0,0,1-3.32,3.07H8.92C6.7,89.18,5.35,87.95,5.35,86.22Zm65.93-3.57V81.8L58.73,62.48H41.27L29.21,81.8v.86Zm-14.76-26H57a5.62,5.62,0,0,0,5.66-5.54,6,6,0,0,0-2.46-4.67,3.94,3.94,0,0,0-3.94-3.81,3.43,3.43,0,0,0-2.71,1.11,5.19,5.19,0,0,0-4.06-2,5.36,5.36,0,0,0-3.57,1.35,3.93,3.93,0,0,0-3-1.35,4,4,0,1,0,0,8,2.83,2.83,0,0,0,1.72-.49,5.3,5.3,0,0,0,4.8,3.07,2.09,2.09,0,0,0,.86-.12,3.85,3.85,0,0,0-1.6,3.08,4,4,0,0,0,4.06,4.06A3.84,3.84,0,0,0,56.52,56.7Z"/></svg>