<svg xmlns="http://www.w3.org/2000/svg" viewBox="0 0 100 100"><title>NNN</title><path d="M91.57,33.89a26.87,26.87,0,0,1-36.65,24.6L44,69.07,46.68,53.2a26.37,26.37,0,0,1-8.49-19.31,25.08,25.08,0,0,1,2.21-10.58H15.31a1.71,1.71,0,0,0-1.48,1.6V77.55a1.48,1.48,0,0,0,1.48,1.35H48.65a1.6,1.6,0,0,0,1.6-1.35V68.94l3.57-3.44,2,.62V88.75c0,2.83-1.48,3.94-3.94,3.94H11.75a3.72,3.72,0,0,1-3.32-3.94V18.39c0-4.06,2.09-5.78,5.54-5.78H48.89A26.72,26.72,0,0,1,91.57,33.89ZM39.55,18a1.42,1.42,0,0,0-1.48-1.48H26A1.4,1.4,0,0,0,24.66,18,1.37,1.37,0,0,0,26,19.37H38.07A1.4,1.4,0,0,0,39.55,18ZM28.48,85.79A3.63,3.63,0,1,0,32,82.23,3.6,3.6,0,0,0,28.48,85.79ZM71.89,42.5H69.43V28.6H58.86V36h3.08V42.5H58.86V50h13ZM61.32,23.43h7.75V16.67H61.32Z"/></svg>