<svg xmlns="http://www.w3.org/2000/svg" viewBox="0 0 100 100"><title>NNN</title><path d="M87.64,17.16,87.52,49C87.39,64.88,79,72.63,66.24,72.63c-13.78,0-22.63-10.09-22.63-26.32V31.18h1.48c3.57,0,5.54,2.34,5.54,4.92V43L53,45.45V26.26H19.25a1.71,1.71,0,0,0-1.48,1.6V79.27a1.48,1.48,0,0,0,1.48,1.35H52.58a1.44,1.44,0,0,0,1.6-1.35V73.74a11.12,11.12,0,0,0,5.54,2.09V90.47c0,2.83-1.48,3.94-3.94,3.94H15.68a3.72,3.72,0,0,1-3.32-3.94V21.34c0-4.06,2.09-5.78,5.54-5.78H53V14.45c0-2.58,1.48-4.18,3.57-4.18s3.57,1.6,3.57,4.18V38.68h2.09v-29c0-2.46,1.48-4.06,3.69-4.06,1.85,0,3.32,1.6,3.32,4.06v29H71.4V13.1A3.73,3.73,0,0,1,75.09,9c1.85,0,3.44,1.6,3.44,4.06l-.12,25.58h2.21V17.16c0-2.58,1.6-4.06,3.32-4.06A3.73,3.73,0,0,1,87.64,17.16ZM43.48,21A1.42,1.42,0,0,0,42,19.5H30A1.4,1.4,0,0,0,28.6,21,1.37,1.37,0,0,0,30,22.33H42A1.4,1.4,0,0,0,43.48,21ZM32.41,87.52A3.63,3.63,0,1,0,36,83.95,3.6,3.6,0,0,0,32.41,87.52Z"/></svg>