<svg xmlns="http://www.w3.org/2000/svg" viewBox="0 0 100 100"><title>NNN</title><path d="M7.93,23.86A2.39,2.39,0,0,1,5.47,21.4a2.47,2.47,0,0,1,2.46-2.46,2.65,2.65,0,0,1,2.46,2.46A2.55,2.55,0,0,1,7.93,23.86ZM59.23,53,92.56,88.07v1.48H6.46V88.07L38.07,53.26C35.61,46.74,31.8,41.7,26.26,41.7c-7.63,0-12.79,12.18-13.53,15.38a1.53,1.53,0,0,1-1.48,1.35c-.86,0-1.23-1.11-.86-2.58C11.5,51,17,38.5,26.26,38.5c7.26,0,11.69,6.15,14.39,14.15h1.11c-3.57-17.1-11.56-25.83-25.58-28-1.23-.25-2.46-1-2.46-2.46a2.44,2.44,0,0,1,2.46-2.34C33.4,22,43,31.86,46.56,52.4,47.91,41,51.48,31.24,58,28.41A35.68,35.68,0,0,1,84.32,11.68,2.42,2.42,0,0,1,86.78,14a2.74,2.74,0,0,1-2.46,2.46A31.2,31.2,0,0,0,64.39,27.8a12.22,12.22,0,0,1,6.89,4.3,15.61,15.61,0,0,1,3.44-.37c11.19,0,16.61,11.32,17.71,16.6.12,1,.12,3.81-2,3.81a2.46,2.46,0,0,1-2.09-2.09c-.74-4.43-4.31-13.9-13.65-13.9h-.49c3.32,5.78,5.41,13.65,6.76,20.91.12.62-.25,1.84-1.11,1.84-1.11,0-1.35-.62-1.48-1.35-1.6-7.63-3.69-15.62-7-21C64.88,38.25,61.56,44.9,59.23,53ZM10.15,61.13a2.77,2.77,0,0,1,2.46,2.58,2.55,2.55,0,0,1-2.46,2.46,2.61,2.61,0,0,1-2.71-2.46A2.8,2.8,0,0,1,10.15,61.13ZM43,28.91a2.59,2.59,0,0,1,5.17,0,2.59,2.59,0,0,1-5.17,0Zm5.9,23.74h.74A65,65,0,0,1,55.17,33.7C51.72,37.64,49.88,44.65,48.89,52.64ZM62.55,30.13c-4.06,5.9-7,13.53-8.73,22.51h1c3-9.1,7.26-16.85,13.9-19.68A9.26,9.26,0,0,0,62.55,30.13Zm18,31.49A2.65,2.65,0,0,1,83,64.08a2.55,2.55,0,0,1-2.46,2.46,2.69,2.69,0,0,1-2.71-2.46A2.79,2.79,0,0,1,80.5,61.62Zm13.65-4.18A2.55,2.55,0,0,1,91.7,59.9,2.61,2.61,0,0,1,89,57.44a2.8,2.8,0,0,1,2.71-2.58A2.76,2.76,0,0,1,94.16,57.44ZM89.48,13a2.6,2.6,0,0,1,2.58-2.58A2.5,2.5,0,0,1,94.53,13a2.55,2.55,0,0,1-2.46,2.46A2.67,2.67,0,0,1,89.48,13Z"/></svg>