<svg xmlns="http://www.w3.org/2000/svg" viewBox="0 0 100 100"><title>NNN</title><path d="M92.68,47A13.28,13.28,0,0,1,79.4,60.15H27.49c-11.19,0-20.17-9.72-20.17-20A20.26,20.26,0,0,1,27.61,20a19.51,19.51,0,0,1,4.67.61,13.43,13.43,0,0,1,12.79-10,13.26,13.26,0,0,1,13.28,13v.12a24,24,0,0,1,3.08-.25,17.49,17.49,0,0,1,16,10.46,10.58,10.58,0,0,1,2-.12A13.34,13.34,0,0,1,92.68,47ZM40.16,83.89a3.23,3.23,0,0,1-.86,4.67,3.17,3.17,0,0,1-2,.74,3.57,3.57,0,0,1-2.71-1.48l-8.73-12.3a3.2,3.2,0,0,1,.62-4.67,3.27,3.27,0,0,1,4.8.74Zm20.42,0a3.21,3.21,0,0,1-.74,4.67,3.49,3.49,0,0,1-2,.74A4,4,0,0,1,55,87.82l-8.73-12.3a3.23,3.23,0,0,1,.86-4.67,3.15,3.15,0,0,1,4.67.74Zm20.54,0a3.12,3.12,0,0,1-.74,4.67,4.32,4.32,0,0,1-2,.74,3.57,3.57,0,0,1-2.71-1.48l-8.86-12.3a3.21,3.21,0,0,1,.74-4.67,3.29,3.29,0,0,1,4.8.74Z"/></svg>