<svg xmlns="http://www.w3.org/2000/svg" viewBox="0 0 100 100"><title>NNN</title><path d="M12.73,58c0-16,7.5-31.37,16.85-39.36h1.35A17.42,17.42,0,0,0,29.34,26,33.3,33.3,0,0,0,35.12,45.7c0-12.18,10.33-23.49,10.33-36A11.3,11.3,0,0,0,44.34,5.1h1.35C55.9,11.38,68,31.55,68,46.19v2.46c2.21-2,4.43-6.76,4.43-10.95a32.13,32.13,0,0,0-2.21-11.07H71.4C81.24,32.9,87.27,47,87.27,59.22c0,19.93-17.59,35.67-37.15,35.67S12.73,79.15,12.73,58ZM62.91,70.17A12.92,12.92,0,1,0,50,83.09,12.91,12.91,0,0,0,62.91,70.17Z"/></svg>