<svg xmlns="http://www.w3.org/2000/svg" viewBox="0 0 100 100"><title>NNN</title><path d="M48.77,38.75H5.6V34.81h4.8V26.32H5.6V22.39H48.77v3.94H43.23v8.49h5.54ZM94.4,67.65v5.54H85.67a10.89,10.89,0,0,1-21.53,0H35.73a10.89,10.89,0,0,1-21.53,0H11L5.6,67.53V65.19H16.17A9.44,9.44,0,0,1,18.39,63h-7l6.4-7.38H5.6v-13H52.71V29A2.26,2.26,0,0,1,55,26.69H82.23a3.36,3.36,0,0,1,3.44,2.21L93,47.48V63H82.47l7-7.38h-6l-5.29,5.54a11.94,11.94,0,0,1,5.41,4.06h8.24ZM14.33,34.81h5.29V26.32H14.33ZM19.5,62.24a11.2,11.2,0,0,1,5.66-1.6,8.12,8.12,0,0,1,1.72.12L31.8,55.6h-6Zm9.84,9.23A4.53,4.53,0,0,0,25,67.16a4.37,4.37,0,1,0,4.31,4.3Zm-.12-45.14H23.55v8.49h5.66ZM68.45,62.85l6.89-7.26h-6L62.3,63H53.94l7-7.38h-6l-7,7.38H39.3l7-7.38h-6l-7,7.38H31.43a9.45,9.45,0,0,1,2.21,2.21H66.11A10.51,10.51,0,0,1,68.45,62.85ZM39.3,26.32H33.15v8.49H39.3ZM57.38,47.11H68V30.87H57.38ZM74.23,24.35H66.11V23l.49-2.46c.37-2,1.23-3,3.08-3h1c1.84,0,2.58.74,3.08,3L74.23,23Zm5,47.11A4.73,4.73,0,0,0,75,67.16a4.37,4.37,0,1,0,4.31,4.3ZM72.51,47.11H86.9V45.26L81.24,30.87H72.51Z"/></svg>