<svg xmlns="http://www.w3.org/2000/svg" viewBox="0 0 100 100"><title>NNN</title><path d="M44,44h7.87v8.12H44v4.8c0,4.55,2.34,7,12.42,7,14.39,0,21.89-5.66,21.89-20,0-16.36-9.84-23.49-27.18-23.49-18.94,0-29.4,8.36-29.4,28.66,0,20.79,12.05,30.63,33.21,30.63A53.71,53.71,0,0,0,76.81,75V82.1a66.35,66.35,0,0,1-22.26,4.43c-24.23,0-41.21-10.95-41.21-37.64,0-23.25,15-35.42,37.76-35.42,21.4,0,35.55,10.95,35.55,30.38,0,17.1-12.18,28-31.61,28-14.88,0-21.65-6.52-21.65-14.51v-3.2C33.39,48,36.59,44,44,44ZM55.53,59.59V37H38.81V28.84H56c7.13,0,10.09,3,10.09,8.49v13C66.11,56.4,63.65,59.59,55.53,59.59Z"/></svg>