<svg xmlns="http://www.w3.org/2000/svg" viewBox="0 0 100 100"><title>NNN</title><path d="M21.71,10.52a35.64,35.64,0,0,0,0,50.18,1.12,1.12,0,0,1,0,1.48l-2.58,2.46a.74.74,0,0,1-.74.37,1.06,1.06,0,0,1-.74-.37,41.28,41.28,0,0,1,0-58.06,1.06,1.06,0,0,1,.74-.37.74.74,0,0,1,.74.37L21.71,9A1.12,1.12,0,0,1,21.71,10.52Zm11.69,37a.92.92,0,0,1,0,1.48l-2.46,2.46a.92.92,0,0,1-1.48,0,22.27,22.27,0,0,1,0-31.73.92.92,0,0,1,1.48,0L33.4,22.2a1,1,0,0,1,0,1.48,17.49,17.49,0,0,0-4.8,11.93A16,16,0,0,0,33.4,47.54ZM53.08,43l12.18,50.8H60.33l-2.09-8.86H41.14l-2.09,8.86H34.13L46.31,42.87A7.53,7.53,0,0,1,42,36a7.61,7.61,0,0,1,7.75-7.63A7.51,7.51,0,0,1,57.38,36,7.72,7.72,0,0,1,53.08,43ZM57,79.77,54.43,68.94H45L42.37,79.77Zm-10.82-16h7L49.75,49.26Zm24.48-44a22.27,22.27,0,0,1,0,31.73.92.92,0,0,1-1.48,0L66.73,49a.92.92,0,0,1,0-1.48,16,16,0,0,0,4.8-11.93,17.25,17.25,0,0,0-4.8-11.93,1,1,0,0,1,0-1.48l2.46-2.46a.92.92,0,0,1,1.48,0ZM94.28,35.61a41.47,41.47,0,0,1-11.93,29,1.06,1.06,0,0,1-.74.37.74.74,0,0,1-.74-.37l-2.58-2.46a1.12,1.12,0,0,1,0-1.48,35.64,35.64,0,0,0,0-50.18,1.12,1.12,0,0,1,0-1.48l2.58-2.46a.74.74,0,0,1,.74-.37,1.06,1.06,0,0,1,.74.37A41.69,41.69,0,0,1,94.28,35.61Z"/></svg>