<svg xmlns="http://www.w3.org/2000/svg" viewBox="0 0 100 100"><title>NNN</title><path d="M5.84,46.86V36.16c0-5,2.46-8.49,9-8.49h15.5V37.88H15.93V55.47C8.3,55.47,5.84,52.4,5.84,46.86Zm.25,15.38H20.85V45.14c8,0,10.09,3.08,10.09,8.49V64c0,4.92-2.46,8.49-8.61,8.49H6.09ZM35.85,64V36c0-5.29,2.09-8.49,10.09-8.49V62.24H48.4V72.45H44.46C37.82,72.45,35.85,68.88,35.85,64Zm17.47-26.2H50.86V27.55h3.57c7.75,0,9,3.44,9,8.49V64c0,5.41-2.46,8.49-10.09,8.49Zm15.74,9.1V36.16c0-5,2.46-8.49,9-8.49h15.5V37.88H79.15V55.47C71.53,55.47,69.06,52.4,69.06,46.86Zm.25,15.38H84.07V45.14c8,0,10.09,3.08,10.09,8.49V64c0,4.92-2.46,8.49-8.61,8.49H69.31Z"/></svg>