<svg xmlns="http://www.w3.org/2000/svg" viewBox="0 0 100 100"><title>NNN</title><path d="M23.8,28.91l3.08,5.17V55.23l-5.78-9.47V71.09a1.4,1.4,0,0,1-1.48,1.35H12.36L11,71.09V28.91a1.37,1.37,0,0,1,1.35-1.35h8.73A3.55,3.55,0,0,1,23.8,28.91Zm22.51-1.35,1.35,1.35V71.09a1.36,1.36,0,0,1-1.35,1.35H37.58a3.55,3.55,0,0,1-2.71-1.35L31.8,65.93V44.77l5.78,9.47V28.91a1.48,1.48,0,0,1,1.48-1.35ZM66.48,62.24H74V72.45H65c-5.78,0-8.61-3.57-8.61-8.49V36c0-5.29,2.09-8.49,10.09-8.49ZM89,36V64c0,5.41-2.46,8.49-10.09,8.49V37.76H71.4V27.55H80C86.78,27.55,89,31,89,36Z"/></svg>