<?xml version="1.0" encoding="utf-8"?>
<!-- Generator: Adobe Illustrator 17.0.0, SVG Export Plug-In . SVG Version: 6.00 Build 0)  -->
<!DOCTYPE svg PUBLIC "-//W3C//DTD SVG 1.1//EN" "http://www.w3.org/Graphics/SVG/1.1/DTD/svg11.dtd">
<svg version="1.1" xmlns="http://www.w3.org/2000/svg" xmlns:xlink="http://www.w3.org/1999/xlink" x="0px" y="0px" width="100px"
	 height="100px" viewBox="0 0 100 100" enable-background="new 0 0 100 100" xml:space="preserve">
<g id="Layer_1">
	<path d="M94.526,36.997v7.257h-4.428v49.569h-7.38V44.253H17.282v49.569h-7.38V44.253H5.474v-7.257H94.526z M43.235,78.079
		l-3.075-1.722c3.936-0.369,6.027-1.23,7.38-2.214l-2.214-12.177l-10.332,1.353c-7.995,1.107-11.316,5.412-11.316,8.979
		c0,4.428,2.337,7.011,6.027,8.487l10.332,4.674v0.492H29.336c-3.444,0-5.658,1.845-5.658,4.797v3.075h16.113
		c5.166-0.246,8.856-2.829,8.856-7.626C48.647,82.384,46.433,79.801,43.235,78.079z M71.648,85.951H61.316l-3.444-18.204
		c-0.861-4.305-3.444-6.765-9.717-5.904l4.551,25.461c0.861,4.674,3.321,6.519,7.134,6.519h11.808c2.583,0,4.674-1.353,4.674-4.059
		C76.322,87.55,74.477,85.951,71.648,85.951z M66.974,75.127c2.952,0,4.428-1.107,4.797-1.968c0.861-1.353,0.984-6.642,0.984-9.963
		c0-1.353,0-2.337-0.738-2.952c-1.476-1.107-3.075-1.968-4.92-1.968s-3.813,0.492-5.412,1.968c-0.615,0.738-0.861,1.23-0.861,2.706
		c0,3.321,0.369,8.856,1.23,10.209C62.546,74.02,64.022,75.127,66.974,75.127z"/>
</g>
<g id="_x3C_Layer_x3E_">
</g>
</svg>
