<?xml version="1.0" encoding="utf-8"?>
<!-- Generator: Adobe Illustrator 17.0.0, SVG Export Plug-In . SVG Version: 6.00 Build 0)  -->
<!DOCTYPE svg PUBLIC "-//W3C//DTD SVG 1.1//EN" "http://www.w3.org/Graphics/SVG/1.1/DTD/svg11.dtd">
<svg version="1.1" xmlns="http://www.w3.org/2000/svg" xmlns:xlink="http://www.w3.org/1999/xlink" x="0px" y="0px" width="100px"
	 height="100px" viewBox="0 0 100 100" enable-background="new 0 0 100 100" xml:space="preserve">
<g id="Layer_1">
	<path d="M94.526,5.535v88.93h-31.12l7.872-6.15V54.367h-9.225c-2.337,0-3.567-0.738-4.797-3.321l-1.23-2.583l-2.583,9.717
		l12.546,30.135h-4.674c-1.106,0-2.46-0.861-2.952-1.968L48.031,62.731c-0.123-0.369-0.492-0.492-0.737-0.492
		c-0.369,0-0.738,0.246-0.738,0.861v11.07c0,1.476-1.107,2.46-2.46,2.46H28.352v11.685l-7.995,6.15H5.474V5.535H94.526z
		 M71.278,49.078v-35.67H28.352v57.934h11.685V59.533c0-1.107,0-2.091,0.246-2.952l4.674-15.99h-4.674l-3.32,10.333
		c-0.492,1.599-1.477,2.46-2.829,2.46c-1.477,0-2.46-1.476-1.969-3.321l3.075-10.824c0.615-2.337,2.337-3.813,5.535-3.813h11.07
		c2.583,0,4.797,1.107,5.781,3.321l4.797,10.332H71.278z M57.995,22.509c-0.984-1.107-2.215-1.476-3.69-1.476
		c-1.23,0-2.583,0.369-3.567,1.476c-0.369,0.369-0.614,0.861-0.614,1.845c0,2.214,0.368,6.027,0.86,7.134
		c0.369,0.492,1.477,1.23,3.321,1.23c2.214,0,3.198-0.738,3.567-1.23c0.368-1.23,0.614-4.674,0.614-6.888
		C58.486,23.493,58.486,22.878,57.995,22.509z"/>
</g>
<g id="_x3C_Layer_x3E_">
</g>
</svg>
