<?xml version="1.0" encoding="utf-8"?>
<!-- Generator: Adobe Illustrator 17.0.0, SVG Export Plug-In . SVG Version: 6.00 Build 0)  -->
<!DOCTYPE svg PUBLIC "-//W3C//DTD SVG 1.1//EN" "http://www.w3.org/Graphics/SVG/1.1/DTD/svg11.dtd">
<svg version="1.1" xmlns="http://www.w3.org/2000/svg" xmlns:xlink="http://www.w3.org/1999/xlink" x="0px" y="0px" width="100px"
	 height="100px" viewBox="0 0 100 100" enable-background="new 0 0 100 100" xml:space="preserve">
<g id="Layer_1">
	<path d="M6.827,88.363V18.006c0-4.059,2.091-5.781,5.535-5.781h35.916c4.429,0,5.904,1.722,5.904,5.781v70.357
		c0,2.829-1.476,3.936-3.937,3.936H10.148C8.794,92.299,6.827,90.946,6.827,88.363z M47.171,22.926H13.714
		c-0.737,0-1.476,0.861-1.476,1.599V77.17c0,0.738,0.738,1.353,1.476,1.353h33.457c0.614,0,1.476-0.614,1.476-1.353V24.525
		C48.647,23.787,47.786,22.926,47.171,22.926z M24.416,16.161c-0.737,0-1.353,0.615-1.353,1.476c0,0.738,0.615,1.353,1.353,1.353
		H36.47c0.86,0,1.476-0.615,1.476-1.353c0-0.861-0.615-1.476-1.476-1.476H24.416z M26.875,85.411c0,2.091,1.6,3.689,3.567,3.689
		c2.091,0,3.69-1.599,3.69-3.689c0-1.969-1.6-3.567-3.69-3.567C28.475,81.844,26.875,83.442,26.875,85.411z M63.899,51.832
		c4.306-4.182,6.643-9.84,6.643-15.867c0-6.027-2.337-11.685-6.643-15.867c-0.123-0.246-0.492-0.369-0.737-0.369
		c-0.246,0-0.492,0.123-0.738,0.369l-2.46,2.46c-0.492,0.492-0.492,1.107,0,1.476c3.198,3.198,4.797,7.626,4.797,11.931
		c0.123,4.428-1.476,8.61-4.797,11.931c-0.246,0.123-0.369,0.492-0.369,0.738c0,0.246,0.123,0.492,0.369,0.738l2.46,2.46
		c0.246,0.246,0.492,0.369,0.738,0.369C63.407,52.201,63.776,52.078,63.899,51.832z M72.509,58.474
		c6.273-6.273,9.348-14.268,9.348-22.509c0-7.995-3.074-16.236-9.348-22.509c-0.123-0.123-0.369-0.246-0.738-0.246
		c-0.246,0-0.492,0.123-0.737,0.246l-2.461,2.583c-0.245,0.123-0.368,0.492-0.368,0.738s0.123,0.492,0.368,0.738
		c4.921,4.92,7.627,11.439,7.627,18.45s-2.706,13.53-7.627,18.45c-0.368,0.492-0.368,1.107,0,1.476l2.461,2.583
		c0.245,0.246,0.491,0.246,0.737,0.246C72.14,58.72,72.386,58.72,72.509,58.474z M81.243,64.993
		c7.626-7.75,11.931-18.205,11.931-29.029c0-10.947-4.305-21.033-11.931-29.028c-0.246-0.246-0.492-0.369-0.738-0.369
		c-0.369,0-0.615,0.123-0.738,0.369l-2.583,2.46c-0.369,0.492-0.369,1.107,0,1.476c6.52,6.642,10.332,15.375,10.332,25.092
		c0,9.471-3.689,18.45-10.332,25.092c-0.369,0.369-0.369,1.107,0,1.476l2.583,2.46c0.123,0.245,0.369,0.368,0.738,0.368
		C80.75,65.361,80.997,65.238,81.243,64.993z"/>
</g>
<g id="_x3C_Layer_x3E_">
</g>
</svg>
