<?xml version="1.0" encoding="utf-8"?>
<!-- Generator: Adobe Illustrator 17.0.0, SVG Export Plug-In . SVG Version: 6.00 Build 0)  -->
<!DOCTYPE svg PUBLIC "-//W3C//DTD SVG 1.1//EN" "http://www.w3.org/Graphics/SVG/1.1/DTD/svg11.dtd">
<svg version="1.1" xmlns="http://www.w3.org/2000/svg" xmlns:xlink="http://www.w3.org/1999/xlink" x="0px" y="0px" width="100px"
	 height="100px" viewBox="0 0 100 100" enable-background="new 0 0 100 100" xml:space="preserve">
<g id="Layer_1">
	<path d="M58.61,54.612l33.703,35.425v1.476H6.211v-1.476l32.104-35.425H58.61z M17.897,19.188c0-4.797,4.059-8.733,8.856-8.733
		c2.583,0,5.043,1.23,6.642,3.075c2.091-1.968,4.92-3.075,7.872-3.075c3.567,0,6.765,1.6,8.979,4.183
		c0.614-0.615,1.476-1.23,2.337-1.6c-0.492-0.492-0.738-1.106-0.738-1.722c0-1.477,1.353-2.829,2.829-2.829
		c1.476,0,2.706,1.353,2.706,2.829c0,0.369-0.123,0.738-0.246,0.984c4.305,0.614,7.749,4.182,7.872,8.486
		c1.23,0.861,2.337,2.092,3.321,3.321c0.246,0,0.492-0.123,0.86-0.123c1.354,0,2.829,1.354,2.829,2.829
		c0,1.107-0.86,2.091-1.845,2.46c0.123,0.492,0.123,1.107,0.123,1.599c0,6.643-5.535,12.424-12.546,12.424h-0.861
		c-1.229,3.443-4.551,5.903-8.364,5.903c-4.797,0-8.855-3.936-8.855-8.855c0-2.706,1.353-5.166,3.32-6.766
		c-0.614,0.123-1.106,0.123-1.722,0.123c-4.551,0-8.61-2.706-10.578-6.642c-1.107,0.615-2.46,0.984-3.936,0.984
		C21.956,28.045,17.897,24.108,17.897,19.188z M61.685,48.217c1.354,0,2.706,1.476,2.706,2.706c0,1.599-1.353,2.829-2.706,2.829
		c-1.599,0-2.829-1.23-2.829-2.829C58.856,49.692,60.086,48.217,61.685,48.217z M66.359,11.316c0-1.477,1.354-2.829,2.829-2.829
		c1.354,0,2.829,1.353,2.829,2.829c0,1.476-1.476,2.706-2.829,2.706C67.712,14.022,66.359,12.792,66.359,11.316z M72.017,43.174
		c0,1.599-1.476,2.829-2.829,2.829c-1.599,0-2.829-1.23-2.829-2.829c0-1.23,1.23-2.706,2.829-2.706
		C70.542,40.468,72.017,41.943,72.017,43.174z M72.017,58.795c0,1.599-1.476,2.829-2.829,2.829c-1.599,0-2.829-1.23-2.829-2.829
		c0-1.23,1.107-2.706,2.829-2.706C70.542,56.089,72.017,57.564,72.017,58.795z M73.371,18.942c0-1.476,1.476-2.829,2.952-2.829
		c1.229,0,2.706,1.354,2.706,2.829s-1.477,2.706-2.706,2.706C74.846,21.648,73.371,20.418,73.371,18.942z M73.371,35.302
		c0-1.23,1.353-2.706,2.829-2.706c1.353,0,2.829,1.476,2.829,2.706c0,1.599-1.477,2.829-2.829,2.829
		C74.723,38.131,73.371,36.9,73.371,35.302z M73.371,50.923c0-1.23,1.353-2.706,2.829-2.706c1.353,0,2.829,1.476,2.829,2.706
		c0,1.599-1.477,2.829-2.829,2.829C74.723,53.752,73.371,52.521,73.371,50.923z M73.371,66.298c0-1.476,1.476-2.706,2.829-2.706
		c1.353,0,2.829,1.23,2.829,2.706s-1.477,2.829-2.829,2.829C74.846,69.127,73.371,67.773,73.371,66.298z M80.997,11.316
		c0-1.477,1.476-2.829,2.952-2.829c1.476,0,2.706,1.353,2.706,2.829c0,1.476-1.23,2.706-2.706,2.706
		C82.472,14.022,80.997,12.792,80.997,11.316z M80.997,26.814c0-1.476,1.476-2.829,2.952-2.829c1.476,0,2.706,1.354,2.706,2.829
		s-1.23,2.706-2.706,2.706C82.472,29.521,80.997,28.29,80.997,26.814z M80.997,43.174c0-1.23,1.229-2.706,2.829-2.706
		c1.353,0,2.829,1.476,2.829,2.706c0,1.599-1.477,2.829-2.829,2.829C82.226,46.003,80.997,44.772,80.997,43.174z M80.997,58.795
		c0-1.354,1.229-2.706,2.829-2.706c1.353,0,2.829,1.476,2.829,2.706c0,1.599-1.477,2.829-2.829,2.829
		C82.226,61.624,80.997,60.394,80.997,58.795z M80.997,74.17c0-1.354,1.476-2.706,2.952-2.706c1.476,0,2.706,1.353,2.706,2.706
		c0,1.476-1.23,2.829-2.706,2.829C82.472,76.999,80.997,75.646,80.997,74.17z M88.13,18.942c0-1.476,1.354-2.829,2.829-2.829
		c1.477,0,2.829,1.23,2.829,2.829c0,1.476-1.353,2.706-2.829,2.706C89.484,21.648,88.13,20.418,88.13,18.942z M93.789,35.302
		c0,1.599-1.353,2.829-2.706,2.829c-1.599,0-2.952-1.23-2.952-2.829c0-1.23,1.354-2.706,2.952-2.706
		C92.436,32.596,93.789,34.071,93.789,35.302z M93.789,50.923c0,1.599-1.353,2.829-2.706,2.829c-1.599,0-2.952-1.23-2.952-2.829
		c0-1.23,1.354-2.706,2.952-2.706C92.436,48.217,93.789,49.692,93.789,50.923z M93.789,66.298c0,1.476-1.23,2.829-2.706,2.829
		s-2.952-1.354-2.952-2.829s1.477-2.706,2.952-2.706S93.789,64.822,93.789,66.298z M93.789,81.919c0,1.476-1.23,2.829-2.706,2.829
		s-2.952-1.354-2.952-2.829s1.477-2.706,2.952-2.706S93.789,80.443,93.789,81.919z"/>
</g>
<g id="_x3C_Layer_x3E_">
</g>
</svg>
