<?xml version="1.0" encoding="utf-8"?>
<!-- Generator: Adobe Illustrator 17.0.0, SVG Export Plug-In . SVG Version: 6.00 Build 0)  -->
<!DOCTYPE svg PUBLIC "-//W3C//DTD SVG 1.1//EN" "http://www.w3.org/Graphics/SVG/1.1/DTD/svg11.dtd">
<svg version="1.1" xmlns="http://www.w3.org/2000/svg" xmlns:xlink="http://www.w3.org/1999/xlink" x="0px" y="0px" width="100px"
	 height="100px" viewBox="0 0 100 100" enable-background="new 0 0 100 100" xml:space="preserve">
<g id="Layer_1">
	<path d="M92.436,69.619v20.418H7.564V69.619c1.846-1.845,5.535-4.92,10.824-4.92c5.412,0,8.118,4.92,14.761,4.92
		c8.118,0,10.209-4.797,16.974-4.797c6.643,0,8.856,4.797,15.867,4.797c6.643,0,8.979-4.92,15.867-4.92
		C86.285,64.699,90.591,67.651,92.436,69.619z M83.088,21.771v36.777l-1.23-0.123c-6.888,0-9.225,5.043-15.867,5.043
		c-2.214,0-3.936-0.614-5.535-1.353V43.173h-20.91v18.942c-1.722,0.738-3.689,1.353-6.396,1.353c-6.643,0-9.349-5.043-14.761-5.043
		c-0.491,0-0.983,0.123-1.476,0.123V21.771L50,9.963L83.088,21.771z"/>
</g>
<g id="_x3C_Layer_x3E_">
</g>
</svg>
