<?xml version="1.0" encoding="utf-8"?>
<!-- Generator: Adobe Illustrator 17.0.0, SVG Export Plug-In . SVG Version: 6.00 Build 0)  -->
<!DOCTYPE svg PUBLIC "-//W3C//DTD SVG 1.1//EN" "http://www.w3.org/Graphics/SVG/1.1/DTD/svg11.dtd">
<svg version="1.1" xmlns="http://www.w3.org/2000/svg" xmlns:xlink="http://www.w3.org/1999/xlink" x="0px" y="0px" width="100px"
	 height="100px" viewBox="0 0 100 100" enable-background="new 0 0 100 100" xml:space="preserve">
<g id="Layer_1">
	<path d="M50.052,95.109c-24.974,0-45.162-20.188-45.162-45.058c0-24.974,20.188-45.161,45.162-45.161
		c24.869,0,45.057,20.188,45.057,45.161C95.109,74.922,74.922,95.109,50.052,95.109z M66.597,35.796c0-3.643-1.457-6.972-7.7-6.972
		H46.93v9.47h10.093v8.533l-14.984-4.058V28.824c-8.116,0-9.574,2.913-9.574,6.972v8.116c0,4.162,1.77,5.516,4.683,5.723v0.416
		c-2.913,0.104-4.683,1.457-4.683,5.516v7.492c0,3.643,1.457,6.972,7.701,6.972h11.967v-9.469H42.039v-8.221l14.984,4.058v13.632
		c8.117,0,9.574-2.913,9.574-6.972v-8.116c0-4.162-1.769-5.515-4.683-5.723v-0.416c2.914-0.104,4.683-1.457,4.683-5.516V35.796z"/>
</g>
<g id="_x3C_Layer_x3E_">
</g>
</svg>
