<?xml version="1.0" encoding="utf-8"?>
<!-- Generator: Adobe Illustrator 17.0.0, SVG Export Plug-In . SVG Version: 6.00 Build 0)  -->
<!DOCTYPE svg PUBLIC "-//W3C//DTD SVG 1.1//EN" "http://www.w3.org/Graphics/SVG/1.1/DTD/svg11.dtd">
<svg version="1.1" xmlns="http://www.w3.org/2000/svg" xmlns:xlink="http://www.w3.org/1999/xlink" x="0px" y="0px" width="100px"
	 height="100px" viewBox="0 0 100 100" enable-background="new 0 0 100 100" xml:space="preserve">
<g id="Layer_1">
	<path d="M38.192,63.96c0.492,0.492,0.738,1.23,0.738,1.722c0,1.107-0.738,1.968-1.846,1.968c-1.106,0-1.599-0.246-2.46-1.23
		l-5.289-5.781c-0.983-0.984-1.845-3.198-1.968-5.043h-0.246v12.915l5.166,11.07c0.246,0.492,0.369,1.107,0.492,1.845l1.354,12.669
		H31.55c-1.477,0-2.583-0.861-2.829-2.337l-1.354-9.84l-5.166-10.455c0-0.246-0.246-0.369-0.492-0.369s-0.491,0.123-0.491,0.369
		L19.003,81.55c-0.123,0.492-0.614,1.23-1.106,1.599l-9.718,8.856l-0.983-0.984c-0.615-0.492-0.984-1.476-0.984-2.337
		c0-0.615,0.246-1.353,0.738-1.845l7.134-6.888l2.214-11.439V58.057c0-1.107,0-1.722,0.123-2.46h-0.246l-2.214,3.321l-2.46,7.995
		c-0.369,1.107-0.983,1.968-2.337,1.968c-1.106,0-1.968-0.738-1.968-2.091c0-0.369,0-0.861,0.246-1.23l2.214-7.503
		c0.123-0.246,0.369-0.861,0.615-1.23l3.566-5.781c0.984-1.722,2.952-2.952,7.995-2.952c5.166,0,7.503,0.861,8.241,3.075
		l2.706,6.888L38.192,63.96z M21.833,46.249c1.846,0,2.706-0.615,2.952-1.107c0.492-0.861,0.615-4.059,0.615-6.027
		c0-0.984,0-1.476-0.492-1.845c-0.861-0.738-1.968-1.23-3.075-1.23c-1.106,0-2.214,0.369-3.198,1.23
		c-0.368,0.369-0.491,0.738-0.491,1.599c0,1.968,0.246,5.412,0.737,6.273C19.126,45.633,20.111,46.249,21.833,46.249z M45.08,83.149
		c-1.476,0-2.828,1.353-2.828,2.829s1.353,2.706,2.828,2.706c1.477,0,2.829-1.23,2.829-2.706
		C47.909,84.379,46.556,83.149,45.08,83.149z M56.027,76.507c-1.476,0-2.829,1.353-2.829,2.829s1.354,2.706,2.829,2.706
		c1.477,0,2.829-1.23,2.829-2.706C58.856,77.737,57.503,76.507,56.027,76.507z M73.617,5.904l-20.05,7.257v32.472h12.055v-22.14
		h15.99v22.14h12.177V13.161L73.617,5.904z M66.113,70.111c-1.476,0-2.828,1.353-2.828,2.829s1.353,2.706,2.828,2.706
		c1.477,0,2.829-1.23,2.829-2.706C68.942,71.341,67.589,70.111,66.113,70.111z M72.632,48.339c-1.477,0-2.829,1.353-2.829,2.829
		s1.353,2.706,2.829,2.706c1.476,0,2.829-1.23,2.829-2.706C75.461,49.569,74.108,48.339,72.632,48.339z M72.632,60.147
		c-1.477,0-2.829,1.353-2.829,2.829s1.353,2.706,2.829,2.706c1.476,0,2.829-1.23,2.829-2.706
		C75.461,61.377,74.108,60.147,72.632,60.147z"/>
</g>
<g id="_x3C_Layer_x3E_">
</g>
</svg>
