<?xml version="1.0" encoding="utf-8"?>
<!-- Generator: Adobe Illustrator 17.0.0, SVG Export Plug-In . SVG Version: 6.00 Build 0)  -->
<!DOCTYPE svg PUBLIC "-//W3C//DTD SVG 1.1//EN" "http://www.w3.org/Graphics/SVG/1.1/DTD/svg11.dtd">
<svg version="1.1" xmlns="http://www.w3.org/2000/svg" xmlns:xlink="http://www.w3.org/1999/xlink" x="0px" y="0px" width="100px"
	 height="100px" viewBox="0 0 100 100" enable-background="new 0 0 100 100" xml:space="preserve">
<g id="Layer_1">
	<path d="M41.759,57.811H31.181c-1.476,4.797-6.027,8.241-11.193,8.241c-6.396,0-11.685-5.166-11.685-11.685
		c0-6.396,5.289-11.562,11.685-11.562c5.166,0,9.717,3.444,11.193,8.118h10.578c2.706,0,4.797-2.952,4.797-5.535V31.488
		c-4.92-1.353-8.61-5.904-8.61-11.316c0-6.396,5.289-11.562,11.685-11.562c6.396,0,11.686,5.166,11.686,11.562
		c0,5.166-3.321,9.471-7.872,11.07v14.146C53.444,51.415,48.77,57.811,41.759,57.811z M80.012,68.143
		c-5.166,0-9.471,3.321-11.07,7.872h-8.979c-2.706,0-6.519-3.198-6.519-6.396v-12.3c-1.845,2.214-4.305,3.936-6.888,4.797v7.503
		c0,6.765,6.642,13.284,13.407,13.284h8.856c1.353,4.92,5.904,8.486,11.193,8.486c6.396,0,11.685-5.166,11.685-11.685
		C91.697,73.309,86.408,68.143,80.012,68.143z"/>
</g>
<g id="_x3C_Layer_x3E_">
</g>
</svg>
