<?xml version="1.0" encoding="utf-8"?>
<!-- Generator: Adobe Illustrator 17.0.0, SVG Export Plug-In . SVG Version: 6.00 Build 0)  -->
<!DOCTYPE svg PUBLIC "-//W3C//DTD SVG 1.1//EN" "http://www.w3.org/Graphics/SVG/1.1/DTD/svg11.dtd">
<svg version="1.1" xmlns="http://www.w3.org/2000/svg" xmlns:xlink="http://www.w3.org/1999/xlink" x="0px" y="0px" width="100px"
	 height="100px" viewBox="0 0 100 100" enable-background="new 0 0 100 100" xml:space="preserve">
<g id="Layer_1">
	<path d="M49.816,93.666C26.077,93.666,6.15,74.231,6.15,50c0-24.108,19.927-43.665,43.666-43.665
		C73.923,6.334,93.85,25.891,93.85,50C93.85,74.231,73.923,93.666,49.816,93.666z M54.244,57.872l10.332-3.198
		c3.198-0.983,4.059-2.337,4.059-7.257V34.994c0-5.166-2.706-8.856-11.438-8.856H43.419c-7.503,0-12.546,4.306-12.546,8.856v5.535
		h8.733l2.337-3.321h15.621v8.856l-10.332,3.689c-2.952,1.107-4.552,3.567-4.552,7.38v3.444h11.562V57.872z M54.49,68.819
		c0-1.229-0.369-1.722-1.477-1.722h-8.855c-1.107,0-1.723,0.492-1.723,1.722v6.52c0,0.86,0.615,1.476,1.723,1.476h8.855
		c1.107,0,1.477-0.615,1.477-1.476V68.819z"/>
</g>
<g id="_x3C_Layer_x3E_">
</g>
</svg>
