<svg xmlns="http://www.w3.org/2000/svg" viewBox="0 0 100 100"><title>NNN</title><path d="M66.17,69.07c0,13.16-10.82,24.35-24.11,24.35A24.49,24.49,0,0,1,17.71,69.07a24.16,24.16,0,0,1,9.84-19.56L25.34,41.4a6.33,6.33,0,0,1,1.6-6.52l8.86-8.61c1.6-1.6,3-2.21,6-1.85l7.26,1a5.49,5.49,0,0,1,4.55,4.92l1.11,7.26,1.11,7.87a26,26,0,0,0-13.78-3.81H38.5L38,36.85V36a.81.81,0,0,0-1.35-.25L32.84,39.8a1.17,1.17,0,0,0-.49,1.35l1.11,5.17a25.44,25.44,0,0,1,8.61-1.6A24.2,24.2,0,0,1,66.17,69.07Zm-6.76,0A17.32,17.32,0,0,0,42.07,51.73a16.67,16.67,0,0,0-7,1.48c.37,1.72,0,3.57-2.09,4.06a3.15,3.15,0,0,1-2.83-.74A17.33,17.33,0,1,0,59.41,69.07ZM42.31,20.36c-.86-1.35-1.11-6.52-1.11-9.47,0-1.35,0-2,.62-2.46a7.34,7.34,0,0,1,4.8-1.84,7,7,0,0,1,4.92,1.84c.49.49.49,1.35.49,2.71,0,3-.25,7.87-1.11,9.23-.25.49-1.6,1.6-4.3,1.6C44.16,22,42.56,20.86,42.31,20.36Zm40,61.87c0,.62-.25,1.35-1,1.35l-4.92,1.11c-1.35.25-2.21,0-2.71-1.84L69.37,65.26c-.86-4.06-1.84-7.5-4.06-10.82h6.52c3.2,0,5.9,1.85,6.15,4.55Z"/></svg>