<svg xmlns="http://www.w3.org/2000/svg" viewBox="0 0 100 100"><title>NNN</title><path d="M23.06,90.22V12c0-4.55,2.46-6.52,6.15-6.52H70.42c4.8,0,6.52,2,6.52,6.52V90.22c0,3-1.72,4.3-4.43,4.3H26.88A4,4,0,0,1,23.06,90.22ZM68.7,79.15c.49,0,1.6-.62,1.6-1.35V19.25a1.62,1.62,0,0,0-1.6-1.84H31.3c-.74,0-1.48.61-1.48,1.84V77.8a1.37,1.37,0,0,0,1.35,1.35ZM56.64,13.1a1.72,1.72,0,0,0,1.6-1.6,1.43,1.43,0,0,0-1.6-1.35H43.36c-1,0-1.6.49-1.6,1.35a1.62,1.62,0,0,0,1.6,1.6ZM53.94,87A3.94,3.94,0,0,0,49.88,83,4.18,4.18,0,0,0,45.82,87a4.27,4.27,0,0,0,4.06,4.06A4,4,0,0,0,53.94,87Z"/></svg>