<svg xmlns="http://www.w3.org/2000/svg" viewBox="0 0 100 100"><title>NNN</title><path d="M82.35,74a11.45,11.45,0,0,1-7.26-2.71,1.82,1.82,0,0,1,.12.86A9.5,9.5,0,0,1,75,74a28.43,28.43,0,0,1,8.73,5.78l6.15,5.9v7.5h-83V6.77h5.29l9.22,10.58,1.48,5.9A3,3,0,0,1,25,22.14,2.76,2.76,0,0,1,27.74,25,2.73,2.73,0,0,1,25,27.68a2.93,2.93,0,0,1-1.11-.25l2,8.12a2.62,2.62,0,0,1,2.58,2.71,2.8,2.8,0,0,1-1.23,2.34l1.11,4.55a15,15,0,0,1,1.23,1.48,2.63,2.63,0,0,1,2.58-2.21,2.76,2.76,0,0,1,2.71,2.83,2.71,2.71,0,0,1-2.58,2.71c1.11,1.48,2.46,3.08,3.81,4.67a2.68,2.68,0,0,1,2.71-2.34,2.71,2.71,0,0,1,0,5.41h-.25A21.43,21.43,0,0,0,40,59.41C43.85,64,46.93,67,50.25,68.88a5.41,5.41,0,0,1,10.82.25,5.73,5.73,0,0,1-.61,2.58c1.23.12,2.58.12,3.94.12a5.39,5.39,0,0,1,5.41-5,5.72,5.72,0,0,1,2.58.61,9.8,9.8,0,0,1-.86-4.18v-.49A7.25,7.25,0,0,1,69.8,63a5.41,5.41,0,1,1,0-10.82,5.32,5.32,0,0,1,4.92,3.2,9.65,9.65,0,0,1,5-2.71,5.59,5.59,0,0,1-2.83-4.8,5.41,5.41,0,0,1,10.82,0,5.58,5.58,0,0,1-2.83,4.8,10.72,10.72,0,0,1,8.24,10.58A10.84,10.84,0,0,1,82.35,74ZM31.18,31.37a2.71,2.71,0,1,1,2.71,2.71A2.73,2.73,0,0,1,31.18,31.37ZM36,39.85a2.71,2.71,0,1,1,2.71,2.71A2.73,2.73,0,0,1,36,39.85Zm7.26,7.38a2.71,2.71,0,1,1,2.71,2.71A2.73,2.73,0,0,1,43.23,47.23Zm0,13.9a2.71,2.71,0,1,1,2.71,2.71A2.73,2.73,0,0,1,43.23,61.13Zm1.35-27.06a2.71,2.71,0,1,1,2.71,2.71A2.73,2.73,0,0,1,44.59,34.07Zm5,20.42A5.41,5.41,0,1,1,55,59.9,5.46,5.46,0,0,1,49.63,54.49Zm3.2-14.64a2.71,2.71,0,1,1,2.71,2.71A2.73,2.73,0,0,1,52.83,39.85Zm7.38,7.38a2.71,2.71,0,1,1,5.41,0,2.71,2.71,0,0,1-5.41,0Zm8-6.15a2.65,2.65,0,0,1,2.71-2.71,2.71,2.71,0,0,1,0,5.41A2.65,2.65,0,0,1,68.2,41.08Z"/></svg>