<?xml version="1.0" encoding="utf-8"?>
<!-- Generator: Adobe Illustrator 17.0.0, SVG Export Plug-In . SVG Version: 6.00 Build 0)  -->
<!DOCTYPE svg PUBLIC "-//W3C//DTD SVG 1.1//EN" "http://www.w3.org/Graphics/SVG/1.1/DTD/svg11.dtd">
<svg version="1.1" xmlns="http://www.w3.org/2000/svg" xmlns:xlink="http://www.w3.org/1999/xlink" x="0px" y="0px" width="100px"
	 height="100px" viewBox="0 0 100 100" enable-background="new 0 0 100 100" xml:space="preserve">
<g id="Layer_1">
	<path d="M32.534,41.575h34.933c8.979,0,12.423,3.813,13.53,9.84l2.46,14.022c0.246,1.599,0.492,3.198,0.492,4.551
		c0,8.364-5.043,12.792-15.498,12.792h-0.615c-0.369-5.043-2.829-9.963-5.412-10.701C56.642,70.972,50,70.972,50,70.972
		s-6.643,0-12.424,1.107c-2.583,0.738-5.043,5.658-5.412,10.701h-0.86c-10.332,0-15.253-4.428-15.253-12.792
		c0-1.476,0.246-2.952,0.492-4.551l2.46-14.022C20.111,45.388,23.555,41.575,32.534,41.575z M35.609,38.007
		c-3.567,0-5.535-1.353-5.904-2.214c-0.983-1.722-1.353-8.364-1.353-12.3c0-1.968,0.246-2.829,0.86-3.69
		c1.723-1.722,4.06-2.583,6.273-2.583s4.674,0.738,6.52,2.583c0.737,0.861,1.106,1.476,1.106,3.321
		c0,3.936-0.615,10.947-1.599,12.669C41.021,36.654,39.053,38.007,35.609,38.007z M49.877,67.405c3.32,0,5.412-0.984,5.657-2.214
		c0.738-1.599,1.477-7.995,1.477-11.439c0-1.845-0.246-3.075-1.107-3.567c-2.214-1.476-3.936-1.722-6.149-1.722
		c-2.337,0-4.06,0.492-5.904,1.722c-0.861,0.492-0.861,1.845-0.861,3.813c0,3.813,0.492,9.594,1.23,11.193
		C44.465,66.421,46.433,67.405,49.877,67.405z M63.53,38.007c-3.689,0-5.534-1.353-5.903-2.214c-1.107-1.722-1.354-8.364-1.354-12.3
		c0-1.968,0.123-2.829,0.861-3.69c1.722-1.722,3.936-2.583,6.149-2.583c2.338,0,4.675,0.738,6.643,2.583
		c0.615,0.861,0.984,1.476,0.984,3.321c0,3.936-0.492,10.947-1.477,12.669C68.819,36.654,66.974,38.007,63.53,38.007z"/>
</g>
<g id="_x3C_Layer_x3E_">
</g>
</svg>
