<?xml version="1.0" encoding="utf-8"?>
<!-- Generator: Adobe Illustrator 17.0.0, SVG Export Plug-In . SVG Version: 6.00 Build 0)  -->
<!DOCTYPE svg PUBLIC "-//W3C//DTD SVG 1.1//EN" "http://www.w3.org/Graphics/SVG/1.1/DTD/svg11.dtd">
<svg version="1.1" xmlns="http://www.w3.org/2000/svg" xmlns:xlink="http://www.w3.org/1999/xlink" x="0px" y="0px" width="100px"
	 height="100px" viewBox="0 0 100 100" enable-background="new 0 0 100 100" xml:space="preserve">
<g id="Layer_1">
	<path d="M92.374,44.404c1.477,0.369,2.46,1.599,2.46,3.198c0,1.845-1.476,3.321-3.32,3.321c-0.369,0-0.861-0.123-1.23-0.246
		l-9.84-2.706v0.492l6.888,23.985c0.246,0.861,0.492,1.722,0.615,2.583l1.23,18.819h-4.183c-1.476,0-2.952-0.984-3.198-2.583
		l-1.599-15.375l-1.599-4.305l-9.103-0.861L56.334,91.021l-2.583-1.476c-1.229-0.738-1.845-1.968-1.845-3.321
		c0-0.984,0.246-2.091,0.983-3.198l8.487-13.038l-4.428-0.369c-0.984-0.123-1.722-0.861-1.722-1.722c0-0.246,0-0.492,0.122-0.738
		l8.61-18.696l0.984-13.284h-0.492l-9.225,17.097c-0.984,1.968-2.215,2.337-3.198,2.337c-0.861,0-2.091-0.492-3.321-2.337
		l-9.84-16.974h-0.492l-1.23,20.541L47.11,93.85h-5.166c-1.846,0-3.075-1.107-3.444-2.583l-8.856-30.996
		c-0.246-0.615-1.106-0.615-1.229,0l-3.444,15.006c-0.123,0.738-0.615,1.845-1.476,2.46L8.487,91.513l-2.337-2.46
		c-0.615-0.738-0.983-1.845-0.983-2.829s0.246-1.845,0.983-2.46l11.439-11.07l3.321-16.851l2.46-20.541h-0.615l-8.364,16.974
		c-0.738,1.353-1.968,1.845-2.952,1.845c-1.722,0-3.198-1.23-3.198-3.075c0-0.615,0.246-1.23,0.615-1.968l10.209-20.541
		c1.354-2.829,5.658-4.305,11.809-4.305h1.968c6.888,0,9.349,2.091,10.578,4.305l8.856,16.359l8.609-16.359
		c0.738-1.476,2.338-2.952,4.798-3.444c0,0,1.722-0.615,6.888-0.615c5.658,0,8.979,2.583,8.61,10.701l-0.369,5.904L92.374,44.404z
		 M27.429,19.803c0.369,0.738,1.845,1.722,4.428,1.722s4.06-0.984,4.306-1.722c0.738-1.353,0.983-6.15,0.983-8.979
		c0-1.476-0.123-2.214-0.614-2.706C35.178,6.765,33.58,6.15,31.857,6.15c-1.722,0-3.32,0.615-4.797,1.968
		c-0.492,0.492-0.737,0.984-0.737,2.46C26.323,13.407,26.691,18.45,27.429,19.803z M77.614,20.664
		c0.738-1.353,0.984-6.273,0.984-9.225c0-1.476-0.123-2.337-0.615-2.829c-1.354-1.353-3.075-2.091-4.797-2.091
		c-1.723,0-3.444,0.738-4.92,2.091c-0.615,0.492-0.738,1.107-0.738,2.46c0,3.075,0.369,8.241,1.106,9.594
		c0.246,0.738,1.846,1.722,4.429,1.722C75.769,22.386,77.245,21.402,77.614,20.664z"/>
</g>
<g id="_x3C_Layer_x3E_">
</g>
</svg>
