<?xml version="1.0" encoding="utf-8"?>
<!-- Generator: Adobe Illustrator 17.0.0, SVG Export Plug-In . SVG Version: 6.00 Build 0)  -->
<!DOCTYPE svg PUBLIC "-//W3C//DTD SVG 1.1//EN" "http://www.w3.org/Graphics/SVG/1.1/DTD/svg11.dtd">
<svg version="1.1" xmlns="http://www.w3.org/2000/svg" xmlns:xlink="http://www.w3.org/1999/xlink" x="0px" y="0px" width="100px"
	 height="100px" viewBox="0 0 100 100" enable-background="new 0 0 100 100" xml:space="preserve">
<g id="Layer_1">
	<path d="M26.261,34.195l7.749,52.398h32.349l7.626-52.398h6.273L71.771,92.62H28.229l-8.487-58.425H26.261z M66.113,56.949
		l-3.443,25.83H37.823l-3.566-25.83H66.113z M50,40.098c-6.273,0-11.439-5.043-11.439-11.316c0-1.23,0.738-3.936,1.107-4.92
		L46.679,7.38h6.642l7.012,16.482c0.492,1.23,0.983,2.952,0.983,4.92C61.316,35.055,56.273,40.098,50,40.098z M48.155,26.568
		c-2.337,0-4.305,1.968-4.305,4.182c0,2.337,1.968,4.305,4.305,4.305s4.306-1.968,4.306-4.305
		C52.46,28.536,50.492,26.568,48.155,26.568z"/>
</g>
<g id="_x3C_Layer_x3E_">
</g>
</svg>
