<?xml version="1.0" encoding="utf-8"?>
<!-- Generator: Adobe Illustrator 17.0.0, SVG Export Plug-In . SVG Version: 6.00 Build 0)  -->
<!DOCTYPE svg PUBLIC "-//W3C//DTD SVG 1.1//EN" "http://www.w3.org/Graphics/SVG/1.1/DTD/svg11.dtd">
<svg version="1.1" xmlns="http://www.w3.org/2000/svg" xmlns:xlink="http://www.w3.org/1999/xlink" x="0px" y="0px" width="100px"
	 height="100px" viewBox="0 0 100 100" enable-background="new 0 0 100 100" xml:space="preserve">
<g id="Layer_1">
	<path d="M6.642,50c0-23.985,19.434-43.419,43.419-43.419c23.862,0,43.296,19.434,43.296,43.419s-19.434,43.42-43.296,43.42
		C26.076,93.419,6.642,73.985,6.642,50z M83.149,50c0-18.327-14.76-33.21-33.087-33.21c-18.45,0-33.21,14.883-33.21,33.21
		s14.76,33.211,33.21,33.211C68.389,83.21,83.149,68.327,83.149,50z M46.372,26.137v27.799h22.632v-7.38H53.751V26.137H46.372z"/>
</g>
<g id="_x3C_Layer_x3E_">
</g>
</svg>
