<?xml version="1.0" encoding="utf-8"?>
<!-- Generator: Adobe Illustrator 17.0.0, SVG Export Plug-In . SVG Version: 6.00 Build 0)  -->
<!DOCTYPE svg PUBLIC "-//W3C//DTD SVG 1.1//EN" "http://www.w3.org/Graphics/SVG/1.1/DTD/svg11.dtd">
<svg version="1.1" xmlns="http://www.w3.org/2000/svg" xmlns:xlink="http://www.w3.org/1999/xlink" x="0px" y="0px" width="100px"
	 height="100px" viewBox="0 0 100 100" enable-background="new 0 0 100 100" xml:space="preserve">
<g id="Layer_1">
	<path d="M92.681,46.986c0,7.381-6.149,13.161-13.284,13.161H27.491c-11.193,0-20.172-9.717-20.172-20.049
		c0-10.947,9.102-20.049,20.295-20.049c1.599,0,3.198,0.246,4.674,0.614c1.477-5.657,6.766-9.963,12.792-9.963
		c7.258,0,13.284,5.904,13.284,13.038v0.123c0.984-0.123,1.969-0.246,3.075-0.246c7.134,0,13.284,4.306,15.99,10.455
		c0.615-0.123,1.354-0.123,1.968-0.123C86.532,33.948,92.681,39.853,92.681,46.986z M31.304,71.587
		c-1.107-1.599-3.198-1.968-4.797-0.738c-1.477,0.984-1.846,3.075-0.615,4.674l8.732,12.301c0.615,0.86,1.723,1.476,2.706,1.476
		c0.861,0,1.477-0.369,1.969-0.738c1.599-0.983,1.968-3.074,0.86-4.674L31.304,71.587z M51.845,71.587
		c-1.107-1.599-3.198-1.968-4.674-0.738c-1.6,0.984-1.969,3.075-0.861,4.674l8.733,12.301c0.737,0.86,1.845,1.476,2.829,1.476
		c0.737,0,1.476-0.369,1.968-0.738c1.599-0.983,1.845-3.074,0.738-4.674L51.845,71.587z M72.386,71.587
		c-1.107-1.599-3.321-1.968-4.797-0.738c-1.6,0.984-1.845,3.075-0.738,4.674l8.856,12.301c0.615,0.86,1.722,1.476,2.706,1.476
		c0.615,0,1.353-0.369,1.968-0.738c1.599-0.983,1.968-3.074,0.738-4.674L72.386,71.587z"/>
</g>
<g id="_x3C_Layer_x3E_">
</g>
</svg>
