<?xml version="1.0" encoding="utf-8"?>
<!-- Generator: Adobe Illustrator 17.0.0, SVG Export Plug-In . SVG Version: 6.00 Build 0)  -->
<!DOCTYPE svg PUBLIC "-//W3C//DTD SVG 1.1//EN" "http://www.w3.org/Graphics/SVG/1.1/DTD/svg11.dtd">
<svg version="1.1" xmlns="http://www.w3.org/2000/svg" xmlns:xlink="http://www.w3.org/1999/xlink" x="0px" y="0px" width="100px"
	 height="100px" viewBox="0 0 100 100" enable-background="new 0 0 100 100" xml:space="preserve">
<g id="Layer_1">
	<path d="M9.471,58.18c0.246-0.246,0.492-0.369,0.861-0.369c0.246,0,0.614,0.123,0.86,0.369
		c11.193,11.193,24.97,16.729,38.623,16.729c14.145,0,28.044-5.904,38.868-16.605c0.246-0.369,0.615-0.492,0.86-0.492
		c0.369,0,0.738,0.246,0.984,0.492l3.321,3.198c0.246,0.368,0.492,0.737,0.492,0.983s-0.123,0.492-0.369,0.861
		C81.058,76.261,65.437,82.411,50.062,82.411c-15.744,0-31.366-6.52-44.035-19.065C5.781,63.1,5.658,62.73,5.658,62.484
		c0-0.369,0.123-0.737,0.492-1.106L9.471,58.18z M21.157,46.494c0.245-0.368,0.614-0.491,0.86-0.491
		c0.369,0,0.615,0.123,0.861,0.491c7.749,7.626,17.466,11.439,27.061,11.439c9.84,0,19.965-3.542,27.06-11.316
		c0.409-0.448,0.615-0.633,0.861-0.633s0.513,0.344,0.861,0.633l3.32,3.075c0.738,0.738,0.615,1.354,0.123,1.845
		c-9.102,9.103-20.541,13.899-32.103,13.899c-11.439,0-23.002-4.797-32.35-13.899c-0.123-0.245-0.369-0.614-0.369-0.983
		c0-0.246,0.123-0.615,0.492-0.984L21.157,46.494z M32.841,34.687c0.246-0.369,0.615-0.492,0.984-0.492
		c0.246,0,0.614,0.123,0.86,0.492c4.429,4.305,10.087,6.396,15.376,6.519c5.411-0.123,10.823-2.214,15.129-6.396
		c0.246-0.246,0.492-0.492,0.86-0.492c0.369,0,0.738,0.123,0.984,0.492l3.321,3.198c0.492,0.491,0.615,1.353,0,1.845
		c-5.904,5.781-13.038,8.733-20.295,8.733c-7.135,0-14.515-2.952-20.419-8.733c-0.369-0.369-0.492-0.738-0.492-1.107
		c0-0.246,0.123-0.614,0.369-0.86L32.841,34.687z M49.939,31.734c3.32,0,6.519-1.599,9.471-4.551l-9.471-9.595l-9.472,9.472
		C43.542,30.136,46.741,31.734,49.939,31.734z"/>
</g>
<g id="_x3C_Layer_x3E_">
</g>
</svg>
