<svg xmlns="http://www.w3.org/2000/svg" viewBox="0 0 100 100"><title>NNN</title><path d="M49.74,91.64,46.17,60.39q0-.74-1.48-.74c-1,0-1.6.25-1.72.86L39.41,91.64c-.12,1.11-.62,2.83-2.83,2.83H33.87c-1.72,0-2.46-1.23-2.34-2.83L35.47,36a.45.45,0,0,0-.49-.49.67.67,0,0,0-.74.49l-5,19.68A3.42,3.42,0,0,1,26,58.43a3.19,3.19,0,0,1-3.2-3.81L29,30.38c1.23-4.67,4.55-6,10.09-6H75.69a1.51,1.51,0,0,1,1.6,1.35c0,2.21-1.72,5.29-4.18,5.41L55,31.61c-1.23,0-1.85.49-1.72,1.35l4.31,58.3c.12,1.84-.37,3.32-2.46,3.32H52.45C50.23,94.59,49.86,92.74,49.74,91.64Zm-11.19-82,.74-1.72L53.68,5.41l.12,1.11L52.08,9.1v1.85H38.55ZM39.78,19.8c-.49-1-.86-3.94-1.11-6.77H52.08l3.44,1.11v.74H51.46a24.22,24.22,0,0,1-.86,4.92c-.49.86-2.21,2-5.41,2S40.27,20.66,39.78,19.8Zm8.49,16a2.28,2.28,0,0,0,1.6-2.09V32.1a5.16,5.16,0,0,0-2-.49A4.56,4.56,0,0,0,46,32.1v1.6a2.52,2.52,0,0,0,1.48,2.09.61.61,0,0,0,.74,0Z"/></svg>