<svg xmlns="http://www.w3.org/2000/svg" viewBox="0 0 100 100"><title>NNN</title><path d="M34.91,35.55,29.5,55.72a3.57,3.57,0,0,1-3.32,2.71A3.19,3.19,0,0,1,23,54.61l6-24.23c1.11-4.55,3.2-6,6.76-6ZM59.38,91.27c.12,1.84-.37,3.32-2.46,3.32H54.22c-2.21,0-2.58-1.84-2.71-3L47.95,60.39q0-.74-1.48-.74c-1,0-1.6.25-1.72.86L41.18,91.64c-.12,1.11-.61,2.83-2.83,2.83H35.64c-1.72,0-2.46-1.23-2.34-2.83L36,52.52l7-7.38H39.33l-3.08,3.2,1.72-24H54.46L56.06,45l-7.13,7.5h3.69l3.69-3.94ZM40.32,9.59l.74-1.72L55.45,5.41l.12,1.11L53.85,9.1v1.85H40.32ZM41.55,19.8c-.49-1-.86-3.94-1.11-6.77H53.85l3.44,1.11v.74H53.23c-.25,2.09-.37,4.06-.86,4.92s-2.21,2-5.41,2S42,20.66,41.55,19.8Zm6,25.34-7,7.38h3.69l7-7.38Zm2.34-9.35a2.56,2.56,0,0,0,1.72-2.21V31.73a6.24,6.24,0,0,0-2.09-.37,5.57,5.57,0,0,0-2,.37v1.85a2.84,2.84,0,0,0,1.6,2.21.61.61,0,0,0,.74,0Zm6.76-11.44H78.57c1.23,0,1.85.49,1.85,1.35a5.52,5.52,0,0,1-4.67,5.17l-18.45.49Z"/></svg>