<svg xmlns="http://www.w3.org/2000/svg" viewBox="0 0 100 100"><title>NNN</title><path d="M76.08,48.22l15.5,46.13H86a4,4,0,0,1-3.69-2.71L74.72,70.85,69.8,70l-.74,5.9a3.18,3.18,0,0,1-3.08,3H53l-2.09-6.4H61.19l.62-3.81-5.41-1a2,2,0,0,1-1.6-2.46l3.57-15.74,4.06-18.57c-3.32,0-5.9,3-6.89,7.75l-1.72,8.24a3.12,3.12,0,0,1-3.08,2.83h-.12A9.58,9.58,0,0,1,48,49.2l-5.66-1.72L41.14,55.1,55.53,94.34H49.88a4.42,4.42,0,0,1-3.69-2.71L33.76,60.52a1,1,0,0,0-2,.37V75.77a3,3,0,0,1-3.07,3H7.93V74.91l3.32-2.71H23.68V56.33A17.55,17.55,0,0,1,24,52.77l4.67-21.89c-3.32,0-6,3-7,7.75L20,46.86a3.12,3.12,0,0,1-3.08,2.83,3.22,3.22,0,0,1-3-4.06l1.72-8c2.09-9.47,7.75-13.78,18.57-13.78,7.26,0,11.56,3.32,10.21,11.19l-1,5.78,5,1.48,1-4.67C51.6,28.17,57.13,23.86,68,23.86c6.27,0,11.68,3.32,10.09,11.19l-1.35,6.4L89.48,45a3.4,3.4,0,0,1,2.58,3.2A3.3,3.3,0,0,1,89,51.66a9.57,9.57,0,0,1-2.58-.49ZM34.5,19.56c-.74-1.48-1.11-6.52-1.11-9.47a3.08,3.08,0,0,1,.74-2.46,6.83,6.83,0,0,1,9.59,0c.62.49.62,1.35.62,2.71,0,3-.25,7.75-.86,9.23-.37.61-1.84,1.6-4.55,1.6C36.47,21.16,34.87,20.17,34.5,19.56Zm32.6.37C66.36,18.45,66,13.28,66,10.21a2.71,2.71,0,0,1,.86-2.46,6.83,6.83,0,0,1,9.84,0c.49.49.49,1.23.49,2.71,0,3.08-.12,8-.86,9.47-.37.74-1.84,1.72-4.55,1.72S67.47,20.66,67.1,19.93Z"/></svg>