<svg xmlns="http://www.w3.org/2000/svg" viewBox="0 0 100 100"><title>NNN</title><path d="M12.61,58.43C12.61,41.7,20,27.18,28.48,20.3h2.21a15.5,15.5,0,0,0-1.48,6.27c0,8.49,1.72,15.87,4.92,19.93L22.94,50.31V84.5C17.4,79.09,12.61,68.63,12.61,58.43ZM47.66,41.7,35.61,45.88c0-11.32,10.09-21.16,10.09-33.09a25.33,25.33,0,0,0-1.23-6.4H46.8c9.84,6.15,21.28,27.68,21.28,42.31V49ZM39.67,67h16V93.6h-16Zm32.72-16.6-2.83-.86a21.29,21.29,0,0,0,3.2-10.95,25.91,25.91,0,0,0-2.21-10h2.21c7.87,5.29,14.64,16.73,14.64,31.12,0,14.15-8.24,25.46-15,29.52Z"/></svg>