<svg xmlns="http://www.w3.org/2000/svg" viewBox="0 0 100 100"><title>NNN</title><path d="M9.41,61.5H22.57V68H9.41a3.12,3.12,0,0,1-3.08-3.07v-.49A3.1,3.1,0,0,1,9.41,61.5Zm0,18.33H22.57v6.52H9.41a3.1,3.1,0,0,1-3.08-3V82.9A3.12,3.12,0,0,1,9.41,79.83Zm8.73-34.19V13.28A4.09,4.09,0,0,1,22.2,9.23H71.4a4.09,4.09,0,0,1,4.06,4.06V21l7.5.86v15l-7.5,1v7.75a4.1,4.1,0,0,1-4.06,4.06H22.2A4.09,4.09,0,0,1,18.14,45.63ZM25,43.42H68v-28H25ZM93.67,77.74H66.85a16.86,16.86,0,0,1-16.36,13H28V57.07H50.49A16.88,16.88,0,0,1,66.85,70H93.67ZM28.72,19.06h9V39.73h-9Z"/></svg>