<svg xmlns="http://www.w3.org/2000/svg" viewBox="0 0 100 100"><title>NNN</title><path d="M58.61,54.61,92.31,90v1.48H6.21V90l32.1-35.42ZM17.9,19.19a8.81,8.81,0,0,1,15.5-5.66,11.49,11.49,0,0,1,7.87-3.08,11.78,11.78,0,0,1,9,4.18A7.86,7.86,0,0,1,52.58,13a2.43,2.43,0,0,1-.74-1.72,3,3,0,0,1,2.83-2.83,2.84,2.84,0,0,1,2.71,2.83,2.32,2.32,0,0,1-.25,1A9.06,9.06,0,0,1,65,20.79a17,17,0,0,1,3.32,3.32c.25,0,.49-.12.86-.12A3,3,0,0,1,72,26.81a2.79,2.79,0,0,1-1.84,2.46,7,7,0,0,1,.12,1.6A12.57,12.57,0,0,1,57.75,43.3h-.86a8.86,8.86,0,0,1-17.22-3A8.82,8.82,0,0,1,43,33.58a8.11,8.11,0,0,1-1.72.12,11.93,11.93,0,0,1-10.58-6.64,8.11,8.11,0,0,1-3.94,1A8.9,8.9,0,0,1,17.9,19.19Zm43.79,29a3,3,0,0,1,2.71,2.71,2.84,2.84,0,0,1-2.71,2.83,2.78,2.78,0,0,1-2.83-2.83A2.93,2.93,0,0,1,61.69,48.22Zm4.67-36.9a3,3,0,0,1,2.83-2.83A3,3,0,0,1,72,11.32,2.93,2.93,0,0,1,69.19,14,2.84,2.84,0,0,1,66.36,11.32ZM72,43.17A3,3,0,0,1,69.19,46a2.78,2.78,0,0,1-2.83-2.83,2.93,2.93,0,0,1,2.83-2.71A3.14,3.14,0,0,1,72,43.17Zm0,15.62a3,3,0,0,1-2.83,2.83,2.78,2.78,0,0,1-2.83-2.83,2.84,2.84,0,0,1,2.83-2.71A3.14,3.14,0,0,1,72,58.79Zm1.35-39.85a2.83,2.83,0,1,1,5.66,0,2.91,2.91,0,0,1-2.71,2.71A3,3,0,0,1,73.37,18.94Zm0,16.36A3,3,0,0,1,76.2,32.6,3.14,3.14,0,0,1,79,35.3a3,3,0,0,1-2.83,2.83A2.86,2.86,0,0,1,73.37,35.3Zm0,15.62a3,3,0,0,1,2.83-2.71A3.14,3.14,0,0,1,79,50.92a3,3,0,0,1-2.83,2.83A2.86,2.86,0,0,1,73.37,50.92Zm0,15.38a2.83,2.83,0,0,1,5.66,0,2.83,2.83,0,0,1-5.66,0Zm7.63-55a3.06,3.06,0,0,1,3-2.83,2.84,2.84,0,0,1,2.71,2.83A2.73,2.73,0,0,1,83.95,14,3,3,0,0,1,81,11.32Zm0,15.5a3.06,3.06,0,0,1,3-2.83,2.84,2.84,0,0,1,2.71,2.83,2.73,2.73,0,0,1-2.71,2.71A3,3,0,0,1,81,26.81Zm0,16.36a2.93,2.93,0,0,1,2.83-2.71,3.14,3.14,0,0,1,2.83,2.71A3,3,0,0,1,83.83,46,2.78,2.78,0,0,1,81,43.17Zm0,15.62a2.84,2.84,0,0,1,2.83-2.71,3.14,3.14,0,0,1,2.83,2.71,3,3,0,0,1-2.83,2.83A2.78,2.78,0,0,1,81,58.79Zm0,15.38a3.05,3.05,0,0,1,3-2.71,2.77,2.77,0,0,1,0,5.54A3.06,3.06,0,0,1,81,74.17Zm7.13-55.23A3,3,0,0,1,91,16.11a2.77,2.77,0,1,1-2.83,2.83ZM93.79,35.3a2.84,2.84,0,0,1-2.71,2.83,2.89,2.89,0,0,1-3-2.83,3.05,3.05,0,0,1,3-2.71A3,3,0,0,1,93.79,35.3Zm0,15.62a2.84,2.84,0,0,1-2.71,2.83,2.89,2.89,0,0,1-3-2.83,3.05,3.05,0,0,1,3-2.71A3,3,0,0,1,93.79,50.92Zm0,15.38a2.84,2.84,0,0,1-2.71,2.83,3.06,3.06,0,0,1-3-2.83,3,3,0,0,1,3-2.71A2.73,2.73,0,0,1,93.79,66.3Zm0,15.62a2.84,2.84,0,0,1-2.71,2.83,3.06,3.06,0,0,1-3-2.83,3,3,0,0,1,3-2.71A2.73,2.73,0,0,1,93.79,81.92Z"/></svg>