<svg xmlns="http://www.w3.org/2000/svg" viewBox="0 0 100 100"><title>NNN</title><path d="M5.47,57.32H17A44.26,44.26,0,0,0,5.47,81.67Zm17.83,0h7.63L27.37,21.53l13.41-5.66V29.4l12.05,4.8-4.06,22a32.1,32.1,0,0,0-7,1.11,31.69,31.69,0,0,0-23.37,30.5H9.53A40.27,40.27,0,0,1,23.31,57.32ZM50,60.64A27.19,27.19,0,0,1,77.18,87.82h-9a18.27,18.27,0,1,0-36.53,0H22.82A27.19,27.19,0,0,1,50,60.64Zm0,13.28a13.86,13.86,0,0,1,13.78,13.9H54.92a4.92,4.92,0,0,0-9.84,0h-9A14,14,0,0,1,50,73.92Zm8.24-16.61a36.5,36.5,0,0,0-5.29-1L57.5,31.61,45,26.69V14l4.43-1.84,20.17,5.17,3.81,40h3.32a40.27,40.27,0,0,1,13.78,30.5H81.61A31.69,31.69,0,0,0,58.24,57.32Zm24.72,0H94.53V81.67A45.12,45.12,0,0,0,83,57.32Z"/></svg>