<svg xmlns="http://www.w3.org/2000/svg" viewBox="0 0 100 100"><title>NNN</title><path d="M94.28,84.75a8.77,8.77,0,0,1-8.86,8.61H5.72V58.06l14.15-35.3,8.24-3h1.35l7.26,3L63.28,75.52c1.85,3.57,2.71,4.31,6,4.31h2.83L71,83.76H68.94c-4.8,0-6.76-.86-9.59-6.27L33.52,27.18l-4.8-2.09-5.54,2.09L13.1,51.41l8.36-3.57,8.61,5.66,9.47-2.09,16,31.37c2.34,4.55,5.29,6.64,12.18,6.64H85.42a4.67,4.67,0,1,0-4.67-4.67H76.81A8.66,8.66,0,0,1,85.42,76h.12a4.77,4.77,0,0,0-4.43-3.32,4.65,4.65,0,0,0-4.67,4.55H72.39a8.74,8.74,0,0,1,8.73-8.61c4.67,0,8.36,3.2,8.49,8.49A8.76,8.76,0,0,1,94.28,84.75ZM65.5,68.64,54.92,47.48h1.72l5.78,5.66,6.89,13.78A1.61,1.61,0,0,0,71.16,68h1.6L71.52,72h-.61C67.84,72,67.1,71.59,65.5,68.64ZM59.35,30.87l12.3-6.76-12.3-6.77,2.21-3.94,12.05,7.38L73.25,6.64h4.67l-.37,14,11.93-7.26,2.34,3.94-12.3,6.77,12.3,6.76-2.34,3.94L77.55,27.55l.37,14H73.25l.37-14.15L61.56,34.81Z"/></svg>